<?xml version="1.0" encoding="utf-8"?>
<!-- Generator: Adobe Illustrator 21.0.2, SVG Export Plug-In . SVG Version: 6.00 Build 0)  -->
<svg version="1.1" id="Layer_1" xmlns="http://www.w3.org/2000/svg" xmlns:xlink="http://www.w3.org/1999/xlink" x="0px" y="0px"
	 viewBox="0 0 404.3 285.7" style="enable-background:new 0 0 404.3 285.7;" xml:space="preserve">
<style type="text/css">
	.st0{fill:#6D6E71;}
	.st1{fill:#F1F2F2;stroke:#231F20;stroke-width:5.86;stroke-linejoin:round;}
	.st2{fill:#3D8BA4;stroke:#231F20;stroke-width:5.86;stroke-linejoin:round;}
	.st3{fill:none;stroke:#231F20;stroke-width:5.86;stroke-linejoin:round;}
	.st4{opacity:0.2;fill:#FFFFFF;enable-background:new    ;}
	.st5{fill:#FFFFFF;}
</style>
<title>analytics</title>
<g id="Layer_2">
	<g id="Element">
		<path class="st0" d="M375,24c0-8.8-7.5-15.2-16.3-15.2H48.5c-8.8,0-16.2,6.4-16.2,15.2v226.5H375V24z"/>
		<path class="st1" d="M2.9,250.5v16.6c0,8.8,11.9,15.7,22.1,15.7h357.2c10.1,0,19.2-6.9,19.2-15.7v-16.6H2.9z"/>
		<rect x="52.7" y="27.8" class="st2" width="300.3" height="199.2"/>
		<line class="st3" x1="184.6" y1="268.1" x2="224.1" y2="268.1"/>
		<rect x="68.8" y="42.5" class="st4" width="269.5" height="14.6"/>
		<rect x="68.8" y="68.8" class="st4" width="269.5" height="74.7"/>
		<rect x="68.8" y="155.3" class="st4" width="80.6" height="13.2"/>
		<rect x="68.8" y="178.7" class="st4" width="80.6" height="33.7"/>
		<rect x="162.6" y="155.3" class="st4" width="80.6" height="13.2"/>
		<rect x="162.6" y="178.7" class="st4" width="80.6" height="33.7"/>
		<rect x="259.3" y="155.3" class="st4" width="79.1" height="13.2"/>
		<rect x="259.3" y="178.7" class="st4" width="79.1" height="33.7"/>
		<polyline class="st3" points="53.3,173 149.7,114.2 240.6,157.3 352.6,80.5 		"/>
		<circle class="st5" cx="148.9" cy="118.1" r="13.3"/>
		<circle class="st5" cx="242.9" cy="155.7" r="13.3"/>
		<polygon class="st5" points="366.2,77.6 243.2,77.6 243.2,112.8 298.1,112.8 305.3,125.3 312.5,112.8 366.2,112.8 		"/>
		<line class="st3" x1="254.9" y1="89.4" x2="293" y2="89.4"/>
		<line class="st3" x1="254.9" y1="102.6" x2="354.5" y2="102.6"/>
		<polygon class="st5" points="93.8,202.2 216.8,202.2 216.8,167 161.5,167 154.3,154.5 147,167 93.8,167 		"/>
		<line class="st3" x1="105.5" y1="178.7" x2="143.6" y2="178.7"/>
		<line class="st3" x1="105.5" y1="191.9" x2="205.1" y2="191.9"/>
		<polygon class="st5" points="162.6,51.3 41,51.3 41,86.4 93.6,86.4 102.7,102.1 111.7,86.4 162.6,86.4 		"/>
		<line class="st3" x1="51.3" y1="63" x2="90.8" y2="63"/>
		<line class="st3" x1="51.3" y1="74.7" x2="152.4" y2="74.7"/>
	</g>
</g>
</svg>
