<?xml version="1.0" encoding="utf-8"?>
<!-- Generator: Adobe Illustrator 21.0.2, SVG Export Plug-In . SVG Version: 6.00 Build 0)  -->
<svg version="1.1" id="Layer_1" xmlns="http://www.w3.org/2000/svg" xmlns:xlink="http://www.w3.org/1999/xlink" x="0px" y="0px"
	 viewBox="0 0 925 164" style="enable-background:new 0 0 925 164;" xml:space="preserve">
<style type="text/css">
	.st0{fill-rule:evenodd;clip-rule:evenodd;fill:#EAEAEA;}
	.st1{fill-rule:evenodd;clip-rule:evenodd;fill:#204D72;}
	.st2{fill-rule:evenodd;clip-rule:evenodd;fill:#3D8BA4;}
	.st3{fill-rule:evenodd;clip-rule:evenodd;fill:#1D5B6E;}
	.st4{fill-rule:evenodd;clip-rule:evenodd;fill:#BDA07E;}
	.st5{fill-rule:evenodd;clip-rule:evenodd;fill:#F3D8B6;}
	.st6{fill-rule:evenodd;clip-rule:evenodd;fill:#3D8BA4;stroke:#3D8BA4;stroke-width:0.216;stroke-miterlimit:22.9256;}
	.st7{fill-rule:evenodd;clip-rule:evenodd;fill:#7FBCCF;}
	.st8{fill-rule:evenodd;clip-rule:evenodd;fill:#FBEBD9;}
	.st9{fill-rule:evenodd;clip-rule:evenodd;fill:#569FB6;}
	.st10{fill:#AE8C64;}
	.st11{fill-rule:evenodd;clip-rule:evenodd;fill:#84BB46;}
	.st12{fill-rule:evenodd;clip-rule:evenodd;fill:#A4D969;}
	.st13{fill-rule:evenodd;clip-rule:evenodd;fill:#5D737A;}
	.st14{fill-rule:evenodd;clip-rule:evenodd;fill:#FFFFFF;}
	.st15{fill-rule:evenodd;clip-rule:evenodd;fill:#F0684E;}
	.st16{fill-rule:evenodd;clip-rule:evenodd;fill:#C7452B;}
	.st17{fill-rule:evenodd;clip-rule:evenodd;fill:#31464D;}
	.st18{fill-rule:evenodd;clip-rule:evenodd;fill:#8AA1A9;}
	.st19{fill-rule:evenodd;clip-rule:evenodd;fill:#B5E9E1;}
	.st20{fill-rule:evenodd;clip-rule:evenodd;fill:#FBC017;}
</style>
<g>
	<g>
		<g>
			<path class="st0" d="M867.8,68.9c26.3,0,1,0,27.3,0c5.9,0,5.9,8.2,0,8.2c-26.3,0-1,0-27.3,0C861.8,77.1,861.8,68.9,867.8,68.9z"
				/>
			<path class="st0" d="M895.1,77.1c5.6,0,10.1-4.5,10.1-10.1s-4.5-10.1-10.1-10.1c-5.6,0-10.1,4.5-10.1,10.1S889.5,77.1,895.1,77.1
				z"/>
			<circle class="st0" cx="872.2" cy="68.9" r="5"/>
			<path class="st0" d="M882.8,73.1c5.6,0,10.1-4.5,10.1-10.1c0-5.6-4.5-10.1-10.1-10.1s-10.1,4.5-10.1,10.1
				C872.7,68.5,877.3,73.1,882.8,73.1z"/>
		</g>
		<g>
			<path class="st0" d="M780.5,20.6c-26.7,0-1.1,0-27.8,0c-6,0-6,8.3,0,8.3c26.7,0,1.1,0,27.8,0C786.5,28.9,786.5,20.6,780.5,20.6z"
				/>
			<path class="st0" d="M749.1,28.9c3.7,0,6.7-3,6.7-6.7c0-3.7-3-6.7-6.7-6.7c-3.7,0-6.7,3-6.7,6.7
				C742.4,25.9,745.4,28.9,749.1,28.9z"/>
			<path class="st0" d="M771.4,27.9c4.7,0,8.5-3.8,8.5-8.5c0-4.7-3.8-8.5-8.5-8.5c-4.7,0-8.5,3.8-8.5,8.5
				C762.9,24.1,766.7,27.9,771.4,27.9z"/>
			<path class="st0" d="M759.4,24.8c5.7,0,10.3-4.6,10.3-10.3c0-5.7-4.6-10.3-10.3-10.3s-10.3,4.6-10.3,10.3
				C749.2,20.2,753.8,24.8,759.4,24.8z"/>
		</g>
		<g>
			<path class="st0" d="M586.1,47.7c-27,0-1.1,0-28.1,0c-6.1,0-6.1,8.4,0,8.4c27,0,1.1,0,28.1,0C592.2,56.1,592.2,47.7,586.1,47.7z"
				/>
			<path class="st0" d="M558,56.1c5.7,0,10.4-4.7,10.4-10.4s-4.7-10.4-10.4-10.4c-5.7,0-10.4,4.7-10.4,10.4S552.3,56.1,558,56.1z"/>
			<circle class="st0" cx="581.5" cy="47.7" r="5.1"/>
			<path class="st0" d="M570.6,52c5.7,0,10.4-4.7,10.4-10.4c0-5.7-4.7-10.4-10.4-10.4c-5.7,0-10.4,4.7-10.4,10.4
				C560.2,47.3,564.9,52,570.6,52z"/>
		</g>
		<rect x="811.7" y="38.8" class="st1" width="56.7" height="36.6"/>
		<rect x="515.8" y="67.3" class="st2" width="6.3" height="23.4"/>
		<rect x="519" y="67.3" class="st3" width="3.1" height="23.4"/>
		<rect x="811.7" y="30.7" class="st2" width="56.7" height="23.4"/>
		<polygon class="st1" points="840.1,33.9 824.5,47.6 855.7,47.6 		"/>
		<rect x="811.7" y="75.4" class="st1" width="56.7" height="55.3"/>
		<polygon class="st4" points="840.1,37.2 828.3,47.6 851.9,47.6 		"/>
		<rect x="811.7" y="117" class="st1" width="56.7" height="23.1"/>
		<rect x="811.7" y="111.8" class="st5" width="56.7" height="5.2"/>
		<g>
			<rect x="853.1" y="96.9" class="st6" width="10" height="10.7"/>
			<rect x="835.1" y="96.9" class="st7" width="10" height="10.7"/>
			<rect x="817.2" y="96.9" class="st2" width="10" height="10.7"/>
		</g>
		<g>
			<rect x="853.1" y="81.5" class="st4" width="10" height="10.7"/>
			<rect x="835.1" y="81.5" class="st8" width="10" height="10.7"/>
			<rect x="817.2" y="81.5" class="st5" width="10" height="10.7"/>
		</g>
		<rect x="835.1" y="117" class="st2" width="10" height="23.1"/>
		<rect x="853.1" y="117" class="st5" width="10" height="10.7"/>
		<rect x="817.2" y="117" class="st7" width="10" height="10.7"/>
		<rect x="755.7" y="87.3" class="st5" width="56.1" height="52.7"/>
		<rect x="755.7" y="61.5" class="st2" width="56.1" height="25.9"/>
		<polygon class="st1" points="783.7,68.3 770.2,80.1 768.1,82 799.3,82 		"/>
		<polygon class="st7" points="783.7,71.6 771.9,82 795.5,82 		"/>
		<rect x="761.1" y="117" class="st2" width="10" height="23.1"/>
		<rect x="779.1" y="117" class="st7" width="10" height="10.7"/>
		<rect x="797.1" y="117" class="st2" width="10" height="10.7"/>
		<rect x="874" y="67" class="st1" width="11" height="28.4"/>
		<rect x="874" y="67" class="st2" width="5.5" height="28.4"/>
		<rect x="698.9" y="22.8" class="st2" width="56.7" height="24.5"/>
		<polygon class="st3" points="727.3,26.2 711.7,39.9 742.9,39.9 		"/>
		<rect x="698.9" y="39.2" class="st3" width="56.7" height="91.4"/>
		<polygon class="st2" points="727.3,29.5 715.5,39.9 728,42.9 739.1,39.9 		"/>
		<rect x="698.9" y="117" class="st2" width="56.7" height="23.1"/>
		<rect x="740.3" y="102.2" class="st4" width="10" height="10.7"/>
		<rect x="722.3" y="102.2" class="st2" width="10" height="10.7"/>
		<rect x="704.3" y="102.2" class="st2" width="10" height="10.7"/>
		<rect x="722.3" y="119" class="st7" width="10" height="21"/>
		<rect x="740.3" y="119" class="st7" width="10" height="9.7"/>
		<rect x="704.3" y="119" class="st5" width="10" height="9.7"/>
		<rect x="715.5" y="39.9" class="st2" width="23.6" height="9.1"/>
		<polygon class="st5" points="732.3,36.9 727.5,32.5 722.3,36.9 722.3,47.3 732.3,47.3 		"/>
		<polygon class="st3" points="698.9,140 642.8,140 642.8,75.9 642.8,75.9 642.8,75.9 670.9,51.2 698.9,75.9 698.9,75.9 698.9,75.9 
					"/>
		<polygon class="st5" points="698.9,140 642.8,140 642.8,79.2 642.8,79.2 642.8,79.2 670.9,54.5 698.9,79.2 698.9,79.2 698.9,79.2 
					"/>
		<path class="st9" d="M675.9,63l-4.8-4.4l-5.2,4.4c0,8.7,0,17.4,0,26.2h10C675.9,80.5,675.9,71.7,675.9,63z"/>
		<rect x="665.9" y="119" class="st9" width="10" height="21"/>
		<rect x="681" y="81" class="st8" width="10" height="8.2"/>
		<polygon class="st7" points="690.6,76.7 681,67.8 681,76.7 		"/>
		<rect x="650.8" y="81" class="st4" width="10" height="8.2"/>
		<polygon class="st9" points="651.1,76.7 660.8,67.8 660.8,76.7 		"/>
		<rect x="681" y="119" class="st8" width="10" height="8.2"/>
		<rect x="650.8" y="119" class="st9" width="10" height="8.2"/>
		<rect x="586.1" y="42.3" class="st3" width="56.7" height="23.4"/>
		<polygon class="st2" points="614.5,45.9 598.9,59.6 630,59.6 		"/>
		<polygon class="st9" points="614.5,49.2 602.6,59.6 626.3,59.6 		"/>
		<rect x="586.1" y="65.8" class="st2" width="56.7" height="74.3"/>
		<g>
			<rect x="627.5" y="91.6" class="st9" width="10" height="10.7"/>
			<rect x="609.5" y="91.6" class="st3" width="10" height="10.7"/>
			<rect x="591.5" y="91.6" class="st8" width="10" height="10.7"/>
		</g>
		<rect x="627.5" y="117" class="st5" width="10" height="23.1"/>
		<rect x="609.5" y="117" class="st3" width="10" height="10.7"/>
		<rect x="591.5" y="117" class="st9" width="10" height="10.7"/>
		<rect x="763.1" y="41" class="st2" width="6.3" height="23.4"/>
		<rect x="766.2" y="41" class="st1" width="3.1" height="23.4"/>
		<polygon class="st2" points="586.1,91.1 553.1,91.1 553.1,66 553.1,66 553.1,66 569.6,49.6 586.1,66 586.1,66 586.1,66 		"/>
		<polygon class="st3" points="586.1,140 553.1,140 553.1,68.1 553.1,68.1 553.1,68.1 569.6,51.8 586.1,68.1 586.1,68.1 586.1,68.1 
					"/>
		<path class="st8" d="M574.6,64.2l-5-4.9l-5,4.9c0,8.7,0,15.5,0,24.2h10C574.6,79.7,574.6,72.9,574.6,64.2z"/>
		<rect x="564.6" y="119" class="st2" width="10" height="21"/>
		<path class="st9" d="M574.6,91.1h-10c0,8.2,0,3,0,11.2h10C574.6,94.1,574.6,99.3,574.6,91.1z"/>
		<path class="st7" d="M574.6,105.3h-10c0,8.2,0,3,0,11.2h10C574.6,108.3,574.6,113.5,574.6,105.3z"/>
		<rect x="868.5" y="111.8" class="st5" width="56.1" height="28.2"/>
		<rect x="868.5" y="88.7" class="st2" width="56.1" height="23.1"/>
		<polygon class="st1" points="896.5,92.7 881,106.4 912.1,106.4 		"/>
		<polygon class="st7" points="896.5,96 884.7,106.4 908.4,106.4 		"/>
		<rect x="874" y="117" class="st2" width="10" height="23.1"/>
		<rect x="891.9" y="117" class="st8" width="10" height="10.7"/>
		<rect x="908.5" y="117" class="st4" width="10" height="10.7"/>
		<rect x="511.4" y="111.8" class="st5" width="41.7" height="28.2"/>
		<rect x="511.4" y="88.7" class="st2" width="41.7" height="23.1"/>
		<rect x="517.7" y="117" class="st4" width="10" height="23.1"/>
		<rect x="535.7" y="117" class="st8" width="10" height="10.7"/>
		<rect x="586.1" y="111.8" class="st3" width="56.7" height="5.2"/>
		<polygon class="st3" points="532.2,92.7 518.8,104.6 516.7,106.4 547.8,106.4 		"/>
		<polygon class="st9" points="532.2,96 520.4,106.4 544.1,106.4 		"/>
		<rect x="811.7" y="71.4" class="st5" width="56.7" height="5.2"/>
		<g>
			<rect x="853.1" y="58.1" class="st8" width="10" height="10.7"/>
			<rect x="835.1" y="58.1" class="st2" width="10" height="10.7"/>
			<rect x="817.2" y="58.1" class="st7" width="10" height="10.7"/>
		</g>
		<rect x="761.1" y="101" class="st2" width="10" height="10.7"/>
		<rect x="779.1" y="101" class="st8" width="10" height="10.7"/>
		<rect x="797.1" y="101" class="st4" width="10" height="10.7"/>
		<rect x="740.3" y="86.2" class="st7" width="10" height="10.7"/>
		<rect x="722.3" y="86.2" class="st4" width="10" height="10.7"/>
		<rect x="704.3" y="86.2" class="st8" width="10" height="10.7"/>
		<rect x="740.3" y="70.2" class="st5" width="10" height="10.7"/>
		<rect x="722.3" y="70.2" class="st5" width="10" height="10.7"/>
		<rect x="704.3" y="70.2" class="st7" width="10" height="10.7"/>
		<rect x="681" y="106.4" class="st9" width="10" height="8.2"/>
		<rect x="681" y="93.7" class="st4" width="10" height="8.2"/>
		<rect x="665.9" y="106.4" class="st4" width="10" height="8.2"/>
		<rect x="665.9" y="93.7" class="st7" width="10" height="8.2"/>
		<rect x="650.8" y="106.4" class="st7" width="10" height="8.2"/>
		<rect x="650.8" y="93.7" class="st8" width="10" height="8.2"/>
		<rect x="586.1" y="86.4" class="st3" width="56.7" height="5.2"/>
		<g>
			<rect x="627.5" y="65.7" class="st5" width="10" height="10.7"/>
			<rect x="609.5" y="65.7" class="st4" width="10" height="10.7"/>
			<rect x="591.5" y="65.7" class="st9" width="10" height="10.7"/>
		</g>
		<rect x="740.3" y="54" class="st2" width="10" height="10.7"/>
		<rect x="722.3" y="54" class="st8" width="10" height="10.7"/>
		<rect x="704.3" y="54" class="st5" width="10" height="10.7"/>
		<g>
			<path class="st10" d="M751.6,131.9c-0.3,0.1-0.7-0.2-0.7-0.5c-0.1-0.3,0.2-0.7,0.5-0.7c0.4-0.1,1.1-0.3,1.6-0.8
				c0.6-0.6,1.2-1.5,1.5-3.1c0.1-0.3,0.4-0.6,0.8-0.5c0.3,0.1,0.6,0.4,0.5,0.8c-0.4,1.9-1.1,3.1-1.9,3.8
				C753,131.5,752.2,131.8,751.6,131.9z"/>
			<path class="st10" d="M750.1,125.2c0-0.4,0.2-0.7,0.6-0.7c0.4,0,0.7,0.2,0.7,0.6c0.2,1.5,0.4,4,0.5,6.9c0.1,2.8,0,6-0.5,8.6
				c-0.1,0.3-0.4,0.6-0.7,0.5c-0.3-0.1-0.6-0.4-0.5-0.7c0.5-2.5,0.5-5.6,0.5-8.3C750.5,129.2,750.3,126.7,750.1,125.2z"/>
			<path class="st11" d="M753.5,120.8c2.3,0,4.2,1.4,4.2,3.2c0,1.3-1,2.4-2.5,2.9c-0.4,1.4-2.1,2.5-4.1,2.5c-1.7,0-3.2-0.8-3.8-1.9
				c-0.2,0-0.4,0-0.6,0c-2.3,0-4.2-1.4-4.2-3.2c0-1.5,1.3-2.7,3.1-3.1c0.5-1.3,2.1-2.3,4.1-2.3C751.3,118.9,752.8,119.7,753.5,120.8
				L753.5,120.8z"/>
			<path class="st12" d="M753.5,120.8c2.3,0,4.2,1.4,4.2,3.2c0,0.3-0.1,0.6-0.2,0.9c-0.2,0.1-0.5,0.2-0.7,0.3
				c-0.2,0.6-0.6,1.1-1.1,1.5c-0.2,0.1-0.3,0.1-0.5,0.2c0,0.1,0,0.1-0.1,0.2c-0.7,0.4-1.5,0.6-2.5,0.6c-1.7,0-3.2-0.8-3.8-1.9
				c-0.2,0-0.4,0-0.6,0c-2.3,0-4.2-1.4-4.2-3.2c0-0.3,0.1-0.6,0.2-0.9c0.4-0.2,0.8-0.4,1.3-0.5c0.5-1.3,2.1-2.3,4.1-2.3
				C751.3,118.9,752.8,119.7,753.5,120.8L753.5,120.8z"/>
		</g>
		<g>
			<path class="st10" d="M685.1,133.6c0.3,0.2,0.5,0.6,0.3,0.9c-0.2,0.3-0.6,0.5-0.9,0.3c-0.6-0.3-1.7-1-2.7-2.4l0,0
				c-0.7-0.9-1.5-2.1-2.1-3.8c-0.1-0.3,0-0.7,0.4-0.9c0.3-0.1,0.7,0,0.9,0.4c0.6,1.5,1.3,2.6,1.9,3.5l0,0l0,0
				C683.8,132.7,684.6,133.3,685.1,133.6z"/>
			<path class="st10" d="M684.6,140.7c-0.2,0.3-0.6,0.4-0.9,0.2c-0.3-0.2-0.4-0.6-0.2-0.9c0.6-0.9,0.9-2.7,0.9-4.7
				c0-2.2-0.3-4.8-0.9-7c-0.1-0.4,0.1-0.7,0.5-0.8c0.4-0.1,0.7,0.1,0.8,0.5c0.6,2.4,0.9,5,0.9,7.4
				C685.7,137.6,685.3,139.6,684.6,140.7z"/>
			<path class="st11" d="M682.6,130.2L682.6,130.2L682.6,130.2c0,0-0.1,0-0.1,0l0,0l0,0c0,0-0.1,0-0.1,0l0,0l0,0c0,0-0.1,0-0.1,0
				l0,0l0,0h0c0,0-0.1,0-0.1,0l0,0l0,0c0,0-0.1,0-0.1,0l0,0h0h0c0,0-0.1,0-0.1,0l0,0h0c0,0-0.1,0-0.1,0h0c0,0-0.1,0-0.1,0h0h0h0
				c0,0-0.1,0-0.1,0c-2.2,0-4-1.4-4-3c0,0,0,0,0-0.1l0,0c0,0,0,0,0-0.1l0,0c0,0,0,0,0-0.1l0,0c0,0,0,0,0-0.1l0,0c0,0,0,0,0-0.1l0,0
				v0l0,0c0,0,0,0,0-0.1l0,0c0,0,0,0,0-0.1l0,0c0,0,0,0,0-0.1l0,0c0,0,0,0,0-0.1l0,0c0,0,0,0,0-0.1l0,0l0,0l0,0c0,0,0,0,0-0.1l0,0
				c0,0,0,0,0-0.1l0,0c0,0,0,0,0-0.1l0,0c0,0,0,0,0-0.1l0,0c0,0,0,0,0-0.1l0,0l0,0l0,0c0,0,0,0,0-0.1l0,0c0,0,0,0,0-0.1l0,0
				c0,0,0,0,0-0.1l0,0c0,0,0,0,0-0.1l0,0c0,0,0,0,0-0.1l0,0l0,0c0,0,0,0,0-0.1l0,0c0,0,0,0,0-0.1l0,0c0,0,0,0,0,0l0,0c0,0,0,0,0,0
				l0,0c0,0,0,0,0,0l0,0l0,0l0,0c0,0,0,0,0,0l0,0c0,0,0,0,0,0l0,0c0,0,0,0,0,0l0,0c0,0,0,0,0.1,0l0,0c0,0,0,0,0,0l0,0c0,0,0,0,0,0
				l0,0c0,0,0,0,0.1,0l0,0c0,0,0,0,0,0l0,0c0,0,0,0,0.1,0l0,0c0,0,0,0,0.1,0l0,0l0,0c0,0,0,0,0.1,0l0,0c0,0,0,0,0.1,0l0,0
				c0,0,0,0,0.1,0l0,0c0,0,0,0,0.1,0l0,0c0,0,0,0,0.1,0l0,0l0,0c0,0,0,0,0,0l0,0c0,0,0,0,0-0.1l0,0c0,0,0,0,0-0.1l0,0c0,0,0,0,0-0.1
				l0,0c0,0,0,0,0-0.1l0,0c0,0,0,0,0-0.1l0,0c0,0,0,0,0-0.1l0,0l0,0c0,0,0,0,0-0.1l0,0c0,0,0,0,0-0.1v0l0,0c0,0,0,0,0-0.1v0l0,0
				c0,0,0,0,0-0.1v0c0,0,0,0,0-0.1l0,0v0v0c0,0,0-0.1,0-0.1c0-1.7,1.8-3,4-3c0,0,0.1,0,0.1,0l0,0c0,0,0.1,0,0.1,0l0,0
				c0,0,0.1,0,0.1,0l0,0c0,0,0.1,0,0.1,0l0,0c0,0,0,0,0.1,0l0,0c0,0,0.1,0,0.1,0l0,0l0.1,0l0,0c0,0,0.1,0,0.1,0l0,0l0,0
				c0,0,0,0,0.1,0l0,0l0.1,0l0,0c0,0,0.1,0,0.1,0l0,0l0.1,0l0,0c0,0,0.1,0,0.1,0l0,0h0l0,0c0,0,0.1,0,0.1,0l0,0l0.1,0l0,0
				c0,0,0.1,0,0.1,0l0,0l0,0l0,0l0.1,0l0,0c0,0,0,0,0.1,0l0,0l0,0l0,0c0,0,0,0,0.1,0l0,0l0,0l0,0l0,0l0,0c0,0,0,0,0.1,0l0,0l0,0l0,0
				l0,0c0,0,0,0,0.1,0l0,0l0,0l0,0l0,0l0,0c0,0,0,0,0.1,0l0,0l0,0l0,0l0,0c0,0,0.1,0,0.1,0.1l0,0l0,0l0,0l0,0l0,0c0,0,0,0,0.1,0.1
				l0,0l0,0l0,0c0,0,0,0,0,0c0,0,0,0,0,0l0,0l0,0l0,0l0,0l0,0c0,0,0.1,0.1,0.1,0.1l0,0c0,0,0.1,0.1,0.1,0.1l0,0l0,0l0,0
				c0,0,0.1,0.1,0.1,0.1l0,0c0,0,0,0,0,0l0,0l0,0c2.2,0,4,1.4,4,3c0,0,0,0,0,0.1l0,0c0,0,0,0,0,0.1l0,0c0,0,0,0,0,0.1l0,0
				c0,0,0,0,0,0.1l0,0c0,0,0,0,0,0.1l0,0c0,0,0,0,0,0.1l0,0c0,0,0,0,0,0.1l0,0c0,0,0,0,0,0.1l0,0c0,0,0,0,0,0.1l0,0c0,0,0,0,0,0l0,0
				c0,0,0,0,0,0.1l0,0l0,0c0,0,0,0,0,0.1l0,0c0,0,0,0,0,0l0,0c0,0,0,0,0,0.1l0,0l0,0c0,0,0,0,0,0.1l0,0l0,0l0,0c0,0,0,0,0,0.1l0,0
				c0,0,0,0,0,0l0,0l0,0l0,0c0,0,0,0,0,0.1l0,0l0,0l0,0c0,0,0,0,0,0l0,0c0,0,0,0,0,0.1l0,0l0,0l0,0c0,0,0,0,0,0l0,0l0,0l0,0l0,0l0,0
				l0,0l0,0l0,0l0,0l0,0l0,0c0,0,0,0-0.1,0l0,0l0,0l0,0l0,0l0,0c0,0,0,0-0.1,0l0,0l0,0l0,0l0,0l0,0c0,0,0,0-0.1,0l0,0l0,0l0,0l0,0
				l0,0l0,0l0,0l0,0l0,0l0,0l0,0c0,0,0,0-0.1,0l0,0l0,0l0,0l0,0c0,0,0,0-0.1,0l-0.1,0l0,0l0,0l0,0l0,0c-0.4,1.3-2,2.3-3.9,2.3
				C683.9,130.7,683.2,130.5,682.6,130.2z"/>
			<path class="st12" d="M681.8,121.1c0.5-0.1,1-0.2,1.5-0.2c0,0,0.1,0,0.1,0l0,0c0,0,0.1,0,0.1,0l0,0c0,0,0.1,0,0.1,0l0,0
				c0,0,0.1,0,0.1,0l0,0c0,0,0,0,0.1,0l0,0c0,0,0.1,0,0.1,0l0,0l0.1,0l0,0c0,0,0.1,0,0.1,0l0,0l0,0c0,0,0,0,0.1,0l0,0l0.1,0l0,0
				c0,0,0.1,0,0.1,0l0,0l0.1,0l0,0c0,0,0.1,0,0.1,0l0,0h0l0,0c0,0,0.1,0,0.1,0l0,0l0.1,0l0,0c0,0,0.1,0,0.1,0l0,0l0,0l0,0l0.1,0l0,0
				c0,0,0,0,0.1,0l0,0l0,0l0,0c0,0,0,0,0.1,0l0,0l0,0l0,0l0,0l0,0c0,0,0,0,0.1,0l0,0l0,0l0,0l0,0c0,0,0,0,0.1,0l0,0l0,0l0,0l0,0l0,0
				c0,0,0,0,0.1,0l0,0l0,0l0,0l0,0c0,0,0.1,0,0.1,0.1l0,0l0,0l0,0l0,0l0,0c0,0,0,0,0.1,0.1l0,0l0,0l0,0c0,0,0,0,0,0c0,0,0,0,0,0l0,0
				l0,0l0,0l0,0l0,0c0,0,0.1,0.1,0.1,0.1l0,0c0,0,0.1,0.1,0.1,0.1l0,0l0,0l0,0c0,0,0.1,0.1,0.1,0.1l0,0c0,0,0,0,0,0l0,0l0,0
				c2.2,0,4,1.4,4,3c0,0,0,0,0,0.1l0,0c0,0,0,0,0,0.1l0,0c0,0,0,0,0,0.1l0,0c0,0,0,0,0,0.1l0,0c0,0,0,0,0,0.1l0,0c0,0,0,0,0,0.1l0,0
				c0,0,0,0,0,0.1l0,0c0,0,0,0,0,0.1l0,0c0,0,0,0,0,0.1l0,0c0,0,0,0,0,0l0,0c0,0,0,0,0,0.1l0,0l0,0c0,0,0,0,0,0.1l0,0c0,0,0,0,0,0
				l0,0c0,0,0,0,0,0.1l0,0l0,0c0,0,0,0,0,0.1l0,0l0,0l0,0c0,0,0,0,0,0.1l0,0c0,0,0,0,0,0l0,0l0,0l0,0c0,0,0,0,0,0.1l0,0l0,0l0,0
				c0,0,0,0,0,0l0,0c0,0,0,0,0,0.1l0,0l0,0l0,0c0,0,0,0,0,0l0,0l0,0l0,0l0,0l0,0l0,0l0,0l0,0l0,0l0,0l0,0c0,0,0,0-0.1,0l0,0l0,0l0,0
				l0,0l0,0c0,0,0,0-0.1,0l0,0l0,0l0,0l0,0l0,0c0,0,0,0-0.1,0l0,0l0,0l0,0l0,0l0,0l0,0l0,0l0,0l0,0l0,0l0,0c0,0,0,0-0.1,0l0,0l0,0
				l0,0l0,0c0,0,0,0-0.1,0l-0.1,0l0,0l0,0l0,0l0,0c-0.1,0.3-0.3,0.6-0.5,0.9c-0.5,0.1-1,0.2-1.5,0.2c-0.7,0-1.4-0.2-2-0.4l0,0l0,0
				c0,0-0.1,0-0.1,0l0,0l0,0c0,0-0.1,0-0.1,0l0,0l0,0c0,0-0.1,0-0.1,0l0,0l0,0h0c0,0-0.1,0-0.1,0l0,0l0,0c0,0-0.1,0-0.1,0l0,0l0,0h0
				c0,0-0.1,0-0.1,0h0h0c0,0-0.1,0-0.1,0h0c0,0-0.1,0-0.1,0h0h0h0c0,0-0.1,0-0.1,0c-2.2,0-4-1.4-4-3c0,0,0,0,0-0.1l0,0
				c0,0,0,0,0-0.1l0,0c0,0,0,0,0-0.1l0,0c0,0,0,0,0-0.1l0,0c0,0,0,0,0-0.1l0,0l0,0l0,0c0,0,0,0,0-0.1l0,0c0,0,0,0,0-0.1l0,0
				c0,0,0,0,0-0.1l0,0c0,0,0,0,0-0.1l0,0c0,0,0,0,0-0.1l0,0v0l0,0c0,0,0,0,0-0.1l0,0c0,0,0,0,0-0.1l0,0c0,0,0,0,0-0.1l0,0
				c0,0,0,0,0-0.1l0,0c0,0,0,0,0-0.1l0,0l0,0l0,0c0,0,0,0,0-0.1l0,0c0,0,0,0,0-0.1l0,0c0,0,0,0,0-0.1l0,0c0,0,0,0,0-0.1l0,0
				c0,0,0,0,0-0.1l0,0l0,0c0,0,0,0,0-0.1l0,0c0,0,0,0,0-0.1l0,0c0,0,0,0,0,0l0,0c0,0,0,0,0,0l0,0c0,0,0,0,0,0l0,0l0,0l0,0
				c0,0,0,0,0,0l0,0c0,0,0,0,0,0l0,0c0,0,0,0,0,0l0,0c0,0,0,0,0.1,0l0,0c0,0,0,0,0,0l0,0c0,0,0,0,0,0l0,0c0,0,0,0,0.1,0l0,0
				c0,0,0,0,0,0l0,0c0,0,0,0,0.1,0l0,0c0,0,0,0,0.1,0l0,0l0,0c0,0,0,0,0.1,0l0,0c0,0,0,0,0.1,0l0,0c0,0,0,0,0.1,0l0,0c0,0,0,0,0.1,0
				l0,0c0,0,0,0,0.1,0l0,0l0,0c0,0,0,0,0,0l0,0c0,0,0,0,0-0.1l0,0c0,0,0,0,0-0.1l0,0c0,0,0,0,0-0.1l0,0c0,0,0,0,0-0.1l0,0
				c0,0,0,0,0-0.1l0,0c0,0,0,0,0-0.1l0,0l0,0c0,0,0,0,0-0.1l0,0c0,0,0,0,0-0.1v0l0,0c0,0,0,0,0-0.1v0l0,0c0,0,0,0,0-0.1v0
				c0,0,0,0,0-0.1v0v0v0c0,0,0-0.1,0-0.1C681.2,122.1,681.4,121.5,681.8,121.1z"/>
		</g>
		<g>
			<path class="st10" d="M617.2,135.8c-0.3,0.1-0.6-0.2-0.7-0.5c-0.1-0.3,0.2-0.6,0.5-0.7c0.9-0.2,1.8-0.7,2.5-1.6
				c0.6-0.8,0.9-1.9,0.9-3.3c0-0.3,0.3-0.6,0.6-0.6s0.6,0.3,0.6,0.6c0,1.7-0.5,3-1.2,4C619.6,134.9,618.4,135.6,617.2,135.8z"/>
			<path class="st10" d="M616.4,133.1c0.3,0.1,0.5,0.4,0.5,0.7c-0.1,0.3-0.4,0.5-0.7,0.5c-1-0.2-2.8-0.7-4.2-2
				c-0.9-0.8-1.7-1.9-1.9-3.5c0-0.3,0.2-0.6,0.5-0.7c0.3,0,0.6,0.2,0.7,0.5c0.2,1.2,0.7,2.1,1.5,2.7
				C613.9,132.4,615.5,132.9,616.4,133.1z"/>
			<path class="st10" d="M618,140.5c0,0.3-0.4,0.6-0.7,0.5c-0.3,0-0.6-0.4-0.5-0.7c0.2-1.3,0.1-2.4-0.3-3.9c-0.4-1.5-1-3.4-2-6.1
				c-0.1-0.3,0-0.7,0.4-0.8c0.3-0.1,0.7,0,0.8,0.4c1,2.7,1.7,4.7,2,6.3C618.1,137.8,618.2,139.1,618,140.5z"/>
			<path class="st11" d="M610.3,130.1c-0.4,0.1-0.8,0.2-1.3,0.2c-1.6,0-2.8-0.8-2.8-1.9c0-0.8,0.8-1.5,1.9-1.8
				c-0.7-0.3-1.1-0.9-1.1-1.5c0-1,1.3-1.9,2.8-1.9c0.1,0,0.1,0,0.2,0c0-0.1,0-0.2,0-0.3c0-1,1.3-1.9,2.8-1.9c0.3,0,0.6,0,0.9,0.1
				c0.2-1,1.4-1.7,2.8-1.7c1.6,0,2.8,0.8,2.8,1.9c0,0,0,0.1,0,0.1c0.1,0,0.3,0,0.5,0c1.6,0,2.8,0.8,2.8,1.9c0,0.4-0.2,0.7-0.5,1
				c0.4,0.3,0.6,0.7,0.6,1.2c0.2,0,0.4,0,0.6,0c1.6,0,2.8,0.8,2.8,1.9c0,1-1.3,1.9-2.8,1.9c-0.1,0-0.1,0-0.2,0
				c-0.3,0.8-1.4,1.5-2.8,1.5c-0.2,0-0.3,0-0.5,0c-0.1,1-1.3,1.7-2.8,1.7c-1.2,0-2.2-0.5-2.7-1.2c-0.4,0.2-0.9,0.2-1.4,0.2
				C611.7,131.5,610.6,130.9,610.3,130.1z"/>
			<path class="st12" d="M614.6,128.6c-0.4,0.1-0.8,0.2-1.3,0.2c-1.6,0-2.8-0.8-2.8-1.9c0-0.8,0.8-1.5,1.9-1.8
				c-0.7-0.3-1.1-0.9-1.1-1.5c0-1,1.3-1.9,2.8-1.9c0.1,0,0.1,0,0.2,0c0-0.1,0-0.2,0-0.3c0-1,1.2-1.8,2.6-1.9
				c1.4,0.1,2.4,0.9,2.4,1.9c0,0,0,0.1,0,0.1c0.1,0,0.3,0,0.5,0c1.6,0,2.8,0.8,2.8,1.9c0,0.4-0.2,0.7-0.5,1c0.4,0.3,0.6,0.7,0.6,1.2
				c0.2,0,0.4,0,0.6,0c1.6,0,2.8,0.8,2.8,1.9c0,0.8-0.8,1.5-1.8,1.8c0,0-0.1,0-0.1,0c0,0,0,0,0,0c-0.3,0.1-0.6,0.1-0.9,0.1
				c-0.1,0-0.1,0-0.2,0c-0.3,0.8-1.4,1.5-2.8,1.5h0c-0.7-0.2-1.3-0.6-1.6-1.1c-0.4,0.2-0.9,0.2-1.4,0.2
				C616.1,129.9,615,129.3,614.6,128.6z"/>
		</g>
		<g>
			<path class="st10" d="M548,137.1c0.2,0,0.4-0.3,0.4-0.5c0-0.2-0.3-0.4-0.5-0.4c0,0,0,0-0.1,0c-0.2,0-0.5-0.1-0.7-0.3
				c-0.2-0.2-0.4-0.5-0.5-0.9c0-0.1,0-0.1,0-0.2c0-0.2-0.2-0.4-0.5-0.4c-0.2,0-0.4,0.2-0.4,0.5c0,0.1,0,0.2,0,0.3
				c0.1,0.7,0.4,1.2,0.8,1.5c0.4,0.3,0.9,0.5,1.3,0.5C547.9,137.1,548,137.1,548,137.1z"/>
			<g>
				<path class="st10" d="M548.8,140.6c-0.1,0.3-0.4,0.5-0.7,0.5c-0.3-0.1-0.5-0.4-0.5-0.7c0.2-1,0.4-3.3,0.4-5.6
					c0-1.8-0.1-3.5-0.3-4.8c-0.1-0.3,0.2-0.6,0.5-0.7c0.3-0.1,0.6,0.2,0.7,0.5c0.3,1.3,0.3,3.2,0.3,5
					C549.2,137.2,549,139.5,548.8,140.6z"/>
				<path class="st11" d="M551.2,124.8c0.9,0.6,1.5,1.5,1.5,2.6c0,0.2,0,0.4-0.1,0.6c1.1,0.5,1.9,1.6,1.9,2.8c0,1.7-1.6,3.1-3.6,3.2
					c-0.6,1.1-1.8,1.8-3.3,1.8c-0.9,0-1.8-0.3-2.4-0.8c-0.3,0.1-0.7,0.1-1,0.1c-2,0-3.6-1.4-3.6-3.2c0-1.2,0.7-2.2,1.8-2.7
					c-0.1-0.3-0.1-0.6-0.1-0.9c0-1.3,0.8-2.4,2.1-2.9c-0.2-0.4-0.3-0.8-0.3-1.2c0-1.8,1.6-3.2,3.6-3.2c2,0,3.6,1.4,3.6,3.2
					C551.3,124.4,551.3,124.6,551.2,124.8z"/>
				<path class="st12" d="M551.2,124.8c0.9,0.6,1.5,1.5,1.5,2.6c0,0.2,0,0.4-0.1,0.6c1.1,0.5,1.9,1.6,1.9,2.8c0,0.3-0.1,0.6-0.2,0.9
					c-0.3,0.1-0.6,0.1-1,0.1c-0.6,1.1-1.8,1.8-3.3,1.8c-0.9,0-1.8-0.3-2.4-0.8c-0.3,0.1-0.7,0.1-1,0.1c-2,0-3.6-1.4-3.6-3.2
					c0-1.2,0.7-2.2,1.8-2.7c-0.1-0.3-0.1-0.6-0.1-0.9c0-1.3,0.8-2.4,2.1-2.9c-0.2-0.4-0.3-0.8-0.3-1.2c0-0.3,0.1-0.6,0.2-0.9
					c0.3-0.1,0.7-0.1,1-0.1c2,0,3.6,1.4,3.6,3.2C551.3,124.4,551.3,124.6,551.2,124.8z"/>
			</g>
		</g>
		<g>
			<path class="st10" d="M885.7,132.2c0.4,0.2,0.5,0.7,0.4,1.1c-0.2,0.4-0.7,0.5-1.1,0.4c-0.7-0.4-2-1.2-3.2-2.8l0,0
				c-0.8-1.1-1.7-2.5-2.5-4.5c-0.2-0.4,0-0.9,0.4-1c0.4-0.2,0.9,0,1,0.4c0.7,1.8,1.5,3.1,2.3,4.1l0,0l0,0
				C884.1,131.2,885.1,131.9,885.7,132.2z"/>
			<path class="st10" d="M885.1,140.7c-0.2,0.4-0.7,0.5-1.1,0.2c-0.4-0.2-0.5-0.7-0.2-1.1c0.7-1.1,1-3.1,1-5.6c0-2.6-0.3-5.7-1-8.3
				c-0.1-0.4,0.1-0.9,0.6-1c0.4-0.1,0.9,0.1,1,0.6c0.7,2.8,1.1,6,1.1,8.7C886.3,137,885.9,139.3,885.1,140.7z"/>
			<path class="st11" d="M882.7,128.3L882.7,128.3L882.7,128.3c-0.1,0-0.1,0-0.1,0l0,0l0,0c0,0-0.1,0-0.1,0l0,0l0,0c0,0-0.1,0-0.1,0
				l0,0l0,0h0c0,0-0.1,0-0.1,0l0,0l0,0c0,0-0.1,0-0.1,0l0,0l0,0h0c0,0-0.1,0-0.1,0h0l0,0c0,0-0.1,0-0.1,0l0,0c0,0-0.1,0-0.1,0h0h0h0
				c0,0-0.1,0-0.1,0c-2.6,0-4.7-1.6-4.7-3.6c0,0,0-0.1,0-0.1l0,0c0,0,0-0.1,0-0.1l0,0c0,0,0-0.1,0-0.1l0,0c0,0,0-0.1,0-0.1l0,0
				c0,0,0-0.1,0-0.1l0,0v0l0,0c0,0,0-0.1,0-0.1l0,0c0,0,0-0.1,0-0.1l0,0c0,0,0-0.1,0-0.1l0,0c0,0,0-0.1,0-0.1l0,0c0,0,0,0,0-0.1l0,0
				v0l0,0c0,0,0-0.1,0-0.1l0,0c0,0,0,0,0-0.1l0,0c0,0,0,0,0-0.1l0,0c0,0,0,0,0-0.1l0,0c0,0,0,0,0-0.1l0,0l0,0l0,0c0,0,0,0,0-0.1l0,0
				c0,0,0,0,0-0.1l0,0c0,0,0,0,0-0.1l0,0c0,0,0,0,0-0.1l0,0c0,0,0,0,0-0.1l0,0l0,0c0,0,0,0,0-0.1l0,0c0,0,0,0,0.1-0.1l0,0
				c0,0,0,0,0-0.1l0,0c0,0,0,0,0.1-0.1l0,0c0,0,0,0,0-0.1l0,0l0,0l0,0c0,0,0,0,0.1-0.1l0,0c0,0,0,0,0.1-0.1l0,0c0,0,0,0,0.1-0.1l0,0
				c0,0,0,0,0.1-0.1l0,0c0,0,0,0,0.1-0.1l0,0c0,0,0,0,0.1,0l0,0c0,0,0,0,0.1-0.1l0,0c0,0,0,0,0.1,0l0,0c0,0,0,0,0.1,0l0,0
				c0,0,0,0,0.1,0l0,0l0,0c0,0,0,0,0.1,0l0,0c0,0,0,0,0.1,0l0,0c0,0,0,0,0.1,0l0,0c0,0,0,0,0.1,0l0,0c0,0,0,0,0.1,0l0,0l0,0
				c0,0,0,0,0,0l0,0c0,0,0,0,0-0.1l0,0c0,0,0,0,0-0.1l0,0c0,0,0-0.1,0-0.1l0,0c0,0,0-0.1,0-0.1l0,0c0,0,0-0.1,0-0.1l0,0
				c0,0,0-0.1,0-0.1l0,0l0,0c0,0,0-0.1,0-0.1l0,0c0,0,0-0.1,0-0.1v0l0,0c0,0,0-0.1,0-0.1v0l0,0c0,0,0-0.1,0-0.1v0c0,0,0-0.1,0-0.1v0
				v0v0c0,0,0-0.1,0-0.1c0-2,2.1-3.6,4.7-3.6c0,0,0.1,0,0.1,0l0,0c0,0,0.1,0,0.1,0l0,0c0,0,0.1,0,0.1,0l0,0c0,0,0.1,0,0.1,0l0,0
				c0,0,0.1,0,0.1,0l0,0c0,0,0.1,0,0.1,0l0,0l0.1,0l0,0c0,0,0.1,0,0.1,0l0,0l0,0c0,0,0.1,0,0.1,0l0,0l0.1,0l0,0c0,0,0.1,0,0.1,0l0,0
				l0.1,0l0,0c0,0,0.1,0,0.1,0l0,0l0,0l0,0c0,0,0.1,0,0.1,0l0,0l0.1,0l0,0c0,0,0.1,0,0.1,0l0,0l0.1,0l0,0l0.1,0l0,0c0,0,0.1,0,0.1,0
				l0,0l0.1,0l0,0c0,0,0,0,0.1,0l0,0l0.1,0l0,0l0,0l0,0c0,0,0.1,0,0.1,0l0,0l0,0l0,0l0,0c0,0,0,0,0.1,0l0,0l0,0l0,0l0,0l0,0
				c0,0,0,0,0.1,0l0,0l0,0l0,0l0,0c0,0,0.1,0,0.1,0.1l0,0l0,0l0,0l0,0l0,0c0,0,0,0,0.1,0.1l0,0l0,0l0,0c0,0,0,0,0,0c0,0,0,0,0.1,0
				l0,0l0,0l0,0l0,0l0,0c0,0,0.1,0.1,0.1,0.1l0,0c0,0,0.1,0.1,0.1,0.1l0,0l0,0l0,0c0,0,0.1,0.1,0.1,0.1l0,0c0,0,0,0,0,0l0,0l0,0
				c2.6,0,4.7,1.6,4.7,3.6c0,0,0,0.1,0,0.1l0,0c0,0,0,0,0,0.1l0,0c0,0,0,0.1,0,0.1l0,0c0,0,0,0.1,0,0.1l0,0c0,0,0,0,0,0.1l0,0
				c0,0,0,0.1,0,0.1l0,0c0,0,0,0,0,0.1l0,0c0,0,0,0,0,0.1l0,0c0,0,0,0.1,0,0.1l0,0c0,0,0,0,0,0.1l0,0c0,0,0,0,0,0.1l0,0l0,0
				c0,0,0,0,0,0.1l0,0c0,0,0,0,0,0.1l0,0c0,0,0,0,0,0.1l0,0l0,0c0,0,0,0,0,0.1l0,0l0,0l0,0c0,0,0,0,0,0.1l0,0c0,0,0,0,0,0.1l0,0l0,0
				l0,0c0,0,0,0,0,0.1l0,0l0,0l0,0c0,0,0,0,0,0l0,0c0,0,0,0-0.1,0.1l0,0l0,0l0,0c0,0,0,0,0,0l0,0l0,0l0,0l0,0l0,0l0,0l0,0l0,0l0,0
				l0,0l0,0c0,0,0,0-0.1,0.1l0,0l0,0l0,0l0,0l0,0c0,0,0,0-0.1,0l0,0l0,0l0,0l0,0l0,0c0,0,0,0-0.1,0l0,0l0,0l0,0l0,0l0,0l-0.1,0l0,0
				l0,0l0,0l0,0l0,0c0,0-0.1,0-0.1,0l0,0l-0.1,0l0,0l0,0c0,0,0,0-0.1,0l-0.1,0l0,0l0,0l0,0l0,0c-0.5,1.6-2.3,2.8-4.6,2.8
				C884.3,128.8,883.4,128.6,882.7,128.3z"/>
			<path class="st12" d="M881.8,117.4c0.5-0.2,1.1-0.3,1.8-0.3c0,0,0.1,0,0.1,0l0,0c0,0,0.1,0,0.1,0l0,0c0,0,0.1,0,0.1,0l0,0
				c0,0,0.1,0,0.1,0l0,0c0,0,0.1,0,0.1,0l0,0c0,0,0.1,0,0.1,0l0,0l0.1,0l0,0c0,0,0.1,0,0.1,0l0,0l0,0c0,0,0.1,0,0.1,0l0,0l0.1,0l0,0
				c0,0,0.1,0,0.1,0l0,0l0.1,0l0,0c0,0,0.1,0,0.1,0l0,0l0,0l0,0c0,0,0.1,0,0.1,0l0,0l0.1,0l0,0c0,0,0.1,0,0.1,0l0,0l0.1,0l0,0l0.1,0
				l0,0c0,0,0.1,0,0.1,0l0,0l0.1,0l0,0c0,0,0,0,0.1,0l0,0l0.1,0l0,0l0,0l0,0c0,0,0.1,0,0.1,0l0,0l0,0l0,0l0,0c0,0,0,0,0.1,0l0,0l0,0
				l0,0l0,0l0,0c0,0,0,0,0.1,0l0,0l0,0l0,0l0,0c0,0,0.1,0,0.1,0.1l0,0l0,0l0,0l0,0l0,0c0,0,0,0,0.1,0.1l0,0l0,0l0,0c0,0,0,0,0,0
				c0,0,0,0,0.1,0l0,0l0,0l0,0l0,0l0,0c0,0,0.1,0.1,0.1,0.1l0,0c0,0,0.1,0.1,0.1,0.1l0,0l0,0l0,0c0,0,0.1,0.1,0.1,0.1l0,0
				c0,0,0,0,0,0l0,0l0,0c2.6,0,4.7,1.6,4.7,3.6c0,0,0,0.1,0,0.1l0,0c0,0,0,0,0,0.1l0,0c0,0,0,0.1,0,0.1l0,0c0,0,0,0.1,0,0.1l0,0
				c0,0,0,0,0,0.1l0,0c0,0,0,0.1,0,0.1l0,0c0,0,0,0,0,0.1l0,0c0,0,0,0,0,0.1l0,0c0,0,0,0.1,0,0.1l0,0c0,0,0,0,0,0.1l0,0
				c0,0,0,0,0,0.1l0,0l0,0c0,0,0,0,0,0.1l0,0c0,0,0,0,0,0.1l0,0c0,0,0,0,0,0.1l0,0l0,0c0,0,0,0,0,0.1l0,0l0,0l0,0c0,0,0,0,0,0.1l0,0
				c0,0,0,0,0,0.1l0,0l0,0l0,0c0,0,0,0,0,0.1l0,0l0,0l0,0c0,0,0,0,0,0l0,0c0,0,0,0-0.1,0.1l0,0l0,0l0,0c0,0,0,0,0,0l0,0l0,0l0,0l0,0
				l0,0l0,0l0,0l0,0l0,0l0,0l0,0c0,0,0,0-0.1,0.1l0,0l0,0l0,0l0,0l0,0c0,0,0,0-0.1,0l0,0l0,0l0,0l0,0l0,0c0,0,0,0-0.1,0l0,0l0,0l0,0
				l0,0l0,0l-0.1,0l0,0l0,0l0,0l0,0l0,0c0,0-0.1,0-0.1,0l0,0l-0.1,0l0,0l0,0c0,0,0,0-0.1,0l-0.1,0l0,0l0,0l0,0l0,0
				c-0.1,0.4-0.3,0.8-0.6,1.1c-0.5,0.2-1.1,0.3-1.8,0.3c-0.9,0-1.7-0.2-2.4-0.5l0,0l0,0c0,0-0.1,0-0.1,0l0,0l0,0c0,0-0.1,0-0.1,0
				l0,0l0,0c0,0-0.1,0-0.1,0l0,0l0,0h0c0,0-0.1,0-0.1,0l0,0l0,0c0,0-0.1,0-0.1,0l0,0l0,0h0c0,0-0.1,0-0.1,0h0l0,0c0,0-0.1,0-0.1,0
				l0,0c0,0-0.1,0-0.1,0h0h0h0c0,0-0.1,0-0.1,0c-2.6,0-4.7-1.6-4.7-3.6c0,0,0-0.1,0-0.1l0,0c0,0,0-0.1,0-0.1l0,0c0,0,0-0.1,0-0.1
				l0,0c0,0,0-0.1,0-0.1l0,0c0,0,0-0.1,0-0.1l0,0l0,0l0,0c0,0,0-0.1,0-0.1l0,0c0,0,0-0.1,0-0.1l0,0c0,0,0-0.1,0-0.1l0,0
				c0,0,0-0.1,0-0.1l0,0c0,0,0,0,0-0.1l0,0l0,0l0,0c0,0,0-0.1,0-0.1l0,0c0,0,0,0,0-0.1l0,0c0,0,0,0,0-0.1l0,0c0,0,0,0,0-0.1l0,0
				c0,0,0,0,0-0.1l0,0l0,0l0,0c0,0,0,0,0-0.1l0,0c0,0,0,0,0-0.1l0,0c0,0,0,0,0-0.1l0,0c0,0,0,0,0-0.1l0,0c0,0,0,0,0-0.1l0,0l0,0
				c0,0,0,0,0-0.1l0,0c0,0,0,0,0.1-0.1l0,0c0,0,0,0,0-0.1l0,0c0,0,0,0,0.1-0.1l0,0c0,0,0,0,0-0.1l0,0l0,0l0,0c0,0,0,0,0.1-0.1l0,0
				c0,0,0,0,0.1-0.1l0,0c0,0,0,0,0.1-0.1l0,0c0,0,0,0,0.1-0.1l0,0c0,0,0,0,0.1-0.1l0,0c0,0,0,0,0.1,0l0,0c0,0,0,0,0.1-0.1l0,0
				c0,0,0,0,0.1,0l0,0c0,0,0,0,0.1,0l0,0c0,0,0,0,0.1,0l0,0l0,0c0,0,0,0,0.1,0l0,0c0,0,0,0,0.1,0l0,0c0,0,0,0,0.1,0l0,0
				c0,0,0,0,0.1,0l0,0c0,0,0,0,0.1,0l0,0l0,0c0,0,0,0,0,0l0,0c0,0,0,0,0-0.1l0,0c0,0,0,0,0-0.1l0,0c0,0,0-0.1,0-0.1l0,0
				c0,0,0-0.1,0-0.1l0,0c0,0,0-0.1,0-0.1l0,0c0,0,0-0.1,0-0.1l0,0l0,0c0,0,0-0.1,0-0.1l0,0c0,0,0-0.1,0-0.1v0l0,0c0,0,0-0.1,0-0.1v0
				l0,0c0,0,0-0.1,0-0.1v0c0,0,0-0.1,0-0.1v0v0v0c0,0,0-0.1,0-0.1C881,118.6,881.3,118,881.8,117.4z"/>
		</g>
		<path class="st13" d="M924.4,162.6H510.7c-6.2,0-11.3-5.1-11.3-11.3v0c0-6.2,5.1-11.3,11.3-11.3h413.8V162.6z"/>
		<g>
			<path class="st14" d="M924.4,161H504.9c-0.6-0.4-1.3-0.8-1.8-1.3h421.4V161z"/>
			<path class="st14" d="M924.4,143H503.1c0.6-0.5,1.2-1,1.8-1.3h419.5V143z"/>
		</g>
		<g>
			<path class="st10" d="M816.7,134.5c-0.5,0-0.9-0.4-0.9-0.9c0-0.5,0.4-0.9,0.9-0.9c0.7,0,1.9-0.4,2.8-1.4c0.7-0.7,1.2-1.6,1.4-2.9
				c0.1-0.5,0.5-0.8,0.9-0.7c0.5,0.1,0.8,0.5,0.7,0.9c-0.2,1.7-1,3-1.9,3.9C819.4,134,817.7,134.5,816.7,134.5z"/>
			<path class="st10" d="M817.7,139.7c0.3,0.4,0.2,0.9-0.2,1.2c-0.4,0.3-0.9,0.2-1.2-0.2c-0.8-1.1-1.1-3.1-1-5.2
				c0.1-2.3,0.5-4.9,1.2-6.9c0.2-0.4,0.6-0.7,1.1-0.5c0.4,0.2,0.7,0.6,0.5,1.1c-0.6,1.8-1.1,4.2-1.1,6.4
				C817,137.4,817.2,139,817.7,139.7z"/>
			<g>
				<path class="st11" d="M819.4,130.5L819.4,130.5L819.4,130.5c0.1,0,0.1,0,0.1,0l0,0c0,0,0.1,0,0.1,0l0,0l0,0c0,0,0.1,0,0.1,0l0,0
					l0,0c0,0,0.1,0,0.1,0l0,0l0,0c0,0,0.1,0,0.1,0l0,0h0c0,0,0.1,0,0.1,0l0,0h0l0,0c0,0,0.1,0,0.1,0h0c0,0,0.1,0,0.1,0l0,0h0h0
					c0,0,0.1,0,0.1,0c2.7,0,4.9-1.7,4.9-3.7c0,0,0-0.1,0-0.1l0,0c0,0,0-0.1,0-0.1l0,0c0,0,0,0,0-0.1l0,0c0,0,0-0.1,0-0.1l0,0
					c0,0,0-0.1,0-0.1l0,0v0l0,0c0,0,0-0.1,0-0.1l0,0c0,0,0-0.1,0-0.1l0,0c0,0,0-0.1,0-0.1l0,0c0,0,0-0.1,0-0.1l0,0c0,0,0-0.1,0-0.1
					l0,0l0,0c0,0,0-0.1,0-0.1l0,0c0,0,0,0,0-0.1l0,0c0,0,0,0,0-0.1l0,0c0,0,0,0,0-0.1l0,0c0,0,0,0,0-0.1l0,0l0,0l0,0c0,0,0,0,0-0.1
					l0,0c0,0,0,0,0-0.1l0,0c0,0,0,0,0-0.1l0,0c0,0,0,0,0-0.1l0,0c0,0,0,0,0-0.1l0,0l0,0c0,0,0,0,0-0.1l0,0c0,0,0,0,0-0.1l0,0l0-0.1
					l0,0c0,0,0,0-0.1-0.1l0,0c0,0,0,0,0,0l0,0l0,0l0,0c0,0,0,0-0.1-0.1l0,0c0,0,0,0-0.1,0l0,0c0,0,0,0-0.1-0.1l0,0l-0.1,0l0,0
					c0,0,0,0-0.1,0l0,0l-0.1,0l0,0l0,0l0,0c0,0,0,0-0.1,0l0,0l-0.1,0l0,0l-0.1,0l0,0c0,0,0,0-0.1,0l0,0l-0.1,0l0,0c0,0,0,0-0.1,0
					l0,0l-0.1,0l0,0l0-0.1l0,0c0,0,0,0,0-0.1l0,0c0,0,0-0.1,0-0.1l0,0c0,0,0-0.1,0-0.1l0,0c0,0,0-0.1,0-0.1l0,0l0,0c0,0,0-0.1,0-0.1
					l0,0c0,0,0-0.1,0-0.1l0,0c0,0,0-0.1,0-0.1l0,0l0,0c0-0.1,0-0.1,0-0.2l0,0l0,0v0c0,0,0-0.1,0-0.1l0,0v0v0c0,0,0-0.1,0-0.1l0,0v0
					v0c0,0,0-0.1,0-0.1c0-2-2.2-3.7-4.9-3.7c0,0-0.1,0-0.1,0l0,0c0,0-0.1,0-0.1,0l0,0c0,0-0.1,0-0.1,0l0,0c0,0-0.1,0-0.1,0l0,0
					c0,0-0.1,0-0.1,0l0,0l0,0c0,0-0.1,0-0.1,0l0,0l-0.1,0l0,0c0,0-0.1,0-0.1,0l0,0c0,0-0.1,0-0.1,0l0,0c0,0-0.1,0-0.1,0l0,0
					c0,0-0.1,0-0.1,0l0,0l-0.1,0l0,0c0,0-0.1,0-0.1,0l0,0h0l0,0c0,0-0.1,0-0.1,0l0,0l-0.1,0l0,0c0,0-0.1,0-0.1,0l0,0l-0.1,0l0,0
					l-0.1,0l0,0c0,0-0.1,0-0.1,0l0,0l-0.1,0l0,0c0,0-0.1,0-0.1,0l0,0l-0.1,0l0,0l0,0l0,0c0,0-0.1,0-0.1,0l0,0l-0.1,0l0,0l-0.1,0
					l-0.1,0l0,0l0,0l0,0l0,0l0,0c0,0,0,0-0.1,0l0,0l0,0l0,0l0,0c0,0,0,0-0.1,0l0,0l0,0l0,0l0,0l0,0c0,0-0.1,0-0.1,0.1l0,0l0,0l0,0
					l0,0c0,0,0,0-0.1,0.1l0,0l0,0l0,0l0,0c0,0-0.1,0.1-0.1,0.1l0,0c0,0,0,0,0,0c0,0,0,0,0,0.1c0,0,0,0,0,0l0,0l0,0l0,0
					c0,0,0,0.1-0.1,0.1l0,0l0,0l0,0l0,0v0l0,0c-2.7,0-4.9,1.7-4.9,3.7c0,0,0,0.1,0,0.1l0,0c0,0,0,0,0,0.1l0,0c0,0,0,0.1,0,0.1l0,0
					c0,0,0,0,0,0.1l0,0c0,0,0,0,0,0.1l0,0c0,0,0,0.1,0,0.1l0,0c0,0,0,0,0,0.1l0,0c0,0,0,0,0,0.1l0,0c0,0,0,0.1,0,0.1l0,0
					c0,0,0,0,0,0.1l0,0c0,0,0,0,0,0.1l0,0c0,0,0,0.1,0,0.1l0,0c0,0,0,0,0,0.1l0,0c0,0,0,0,0,0.1l0,0l0,0l0,0c0,0,0,0,0,0.1l0,0
					c0,0,0,0,0,0.1l0,0c0,0,0,0,0,0.1l0,0l0,0.1l0,0l0,0.1l0,0c0,0,0,0,0,0.1l0,0c0,0,0,0,0,0.1l0,0c0,0,0,0,0,0.1l0,0
					c0,0,0,0,0.1,0.1l0,0l0,0l0,0l0,0l0,0c0,0,0,0,0.1,0.1l0,0l0,0l0,0c0,0,0,0,0.1,0l0,0l0,0l0,0l0,0l0,0c0,0,0,0,0.1,0l0,0l0,0
					l0,0l0,0l0,0l0,0c0,0,0,0,0.1,0l0,0l0,0l0,0l0,0l0,0c0,0,0,0,0.1,0l0,0l0,0l0,0l0,0l0,0c0,0,0,0,0.1,0l0,0l0,0l0,0l0,0l0,0
					c0,0,0.1,0,0.1,0l0,0l0,0l0,0l0,0l0,0c0,0,0.1,0,0.1,0h0l0,0l0,0l0.1,0l0,0l0.1,0c0.5,1.6,2.4,2.9,4.7,2.9
					C817.8,131,818.7,130.8,819.4,130.5L819.4,130.5z M814.5,120.7L814.5,120.7C814.4,120.7,814.4,120.7,814.5,120.7z"/>
			</g>
			<g>
				<path class="st12" d="M825.1,128.1c0.2-0.4,0.3-0.8,0.3-1.3c0,0,0-0.1,0-0.1l0,0c0,0,0-0.1,0-0.1l0,0c0,0,0,0,0-0.1l0,0
					c0,0,0-0.1,0-0.1l0,0c0,0,0-0.1,0-0.1l0,0v0l0,0c0,0,0-0.1,0-0.1l0,0c0,0,0-0.1,0-0.1l0,0c0,0,0-0.1,0-0.1l0,0c0,0,0-0.1,0-0.1
					l0,0c0,0,0-0.1,0-0.1l0,0l0,0c0,0,0-0.1,0-0.1l0,0c0,0,0,0,0-0.1l0,0c0,0,0,0,0-0.1l0,0c0,0,0,0,0-0.1l0,0c0,0,0,0,0-0.1l0,0
					l0,0l0,0c0,0,0,0,0-0.1l0,0c0,0,0,0,0-0.1l0,0c0,0,0,0,0-0.1l0,0c0,0,0,0,0-0.1l0,0c0,0,0,0,0-0.1l0,0l0,0c0,0,0,0,0-0.1l0,0
					c0,0,0,0,0-0.1l0,0l0-0.1l0,0c0,0,0,0-0.1-0.1l0,0c0,0,0,0,0,0l0,0l0,0l0,0c0,0,0,0-0.1-0.1l0,0c0,0,0,0-0.1,0l0,0
					c0,0,0,0-0.1-0.1l0,0l-0.1,0l0,0c0,0,0,0-0.1,0l0,0l-0.1,0l0,0l0,0l0,0c0,0,0,0-0.1,0l0,0l-0.1,0l0,0l-0.1,0l0,0c0,0,0,0-0.1,0
					l0,0l-0.1,0l0,0c0,0,0,0-0.1,0l0,0l-0.1,0l0,0l0-0.1l0,0c0,0,0,0,0-0.1l0,0c0,0,0-0.1,0-0.1l0,0c0,0,0-0.1,0-0.1l0,0
					c0,0,0-0.1,0-0.1l0,0l0,0c0,0,0-0.1,0-0.1l0,0c0,0,0-0.1,0-0.1l0,0c0,0,0-0.1,0-0.1l0,0l0,0c0-0.1,0-0.1,0-0.2l0,0l0,0v0
					c0,0,0-0.1,0-0.1l0,0v0v0c0,0,0-0.1,0-0.1l0,0v0v0c0,0,0-0.1,0-0.1c0-2-2.2-3.7-4.9-3.7c0,0-0.1,0-0.1,0l0,0c0,0-0.1,0-0.1,0
					l0,0c0,0-0.1,0-0.1,0l0,0c0,0-0.1,0-0.1,0l0,0c0,0-0.1,0-0.1,0l0,0l0,0c0,0-0.1,0-0.1,0l0,0l-0.1,0l0,0c0,0-0.1,0-0.1,0l0,0
					c0,0-0.1,0-0.1,0l0,0c0,0-0.1,0-0.1,0l0,0c0,0-0.1,0-0.1,0l0,0l-0.1,0l0,0c0,0-0.1,0-0.1,0l0,0h0l0,0c0,0-0.1,0-0.1,0l0,0
					l-0.1,0l0,0c0,0-0.1,0-0.1,0l0,0l-0.1,0l0,0l-0.1,0l0,0c0,0-0.1,0-0.1,0l0,0l-0.1,0l0,0c0,0-0.1,0-0.1,0l0,0l-0.1,0l0,0l0,0l0,0
					c0,0-0.1,0-0.1,0l0,0l-0.1,0l0,0l-0.1,0l-0.1,0l0,0l0,0l0,0l0,0l0,0c0,0,0,0-0.1,0l0,0l0,0l0,0l0,0c0,0,0,0-0.1,0l0,0l0,0l0,0
					l0,0l0,0c0,0-0.1,0-0.1,0.1l0,0l0,0l0,0l0,0c0,0,0,0-0.1,0.1l0,0l0,0l0,0l0,0c0,0-0.1,0.1-0.1,0.1l0,0c0,0,0,0,0,0
					c0,0,0,0,0,0.1c0,0,0,0,0,0l0,0l0,0l0,0c0,0,0,0.1-0.1,0.1l0,0l0,0l0,0l0,0v0l0,0c-1.1,0-2,0.3-2.8,0.7
					c-0.2,0.4-0.3,0.8-0.3,1.3c0,0,0,0.1,0,0.1l0,0c0,0,0,0,0,0.1l0,0c0,0,0,0.1,0,0.1l0,0c0,0,0,0,0,0.1l0,0c0,0,0,0,0,0.1l0,0
					c0,0,0,0.1,0,0.1l0,0c0,0,0,0,0,0.1l0,0c0,0,0,0,0,0.1l0,0c0,0,0,0.1,0,0.1l0,0c0,0,0,0,0,0.1l0,0c0,0,0,0,0,0.1l0,0
					c0,0,0,0.1,0,0.1l0,0c0,0,0,0,0,0.1l0,0c0,0,0,0,0,0.1l0,0l0,0l0,0c0,0,0,0,0,0.1l0,0c0,0,0,0,0,0.1l0,0c0,0,0,0,0,0.1l0,0
					l0,0.1l0,0l0,0.1l0,0c0,0,0,0,0,0.1l0,0c0,0,0,0,0,0.1l0,0c0,0,0,0,0,0.1l0,0c0,0,0,0,0.1,0.1l0,0l0,0l0,0l0,0l0,0
					c0,0,0,0,0.1,0.1l0,0l0,0l0,0c0,0,0,0,0.1,0l0,0l0,0l0,0l0,0l0,0c0,0,0,0,0.1,0l0,0l0,0l0,0l0,0l0,0l0,0c0,0,0,0,0.1,0l0,0l0,0
					l0,0l0,0l0,0c0,0,0,0,0.1,0l0,0l0,0l0,0l0,0l0,0c0,0,0,0,0.1,0l0,0l0,0l0,0l0,0l0,0c0,0,0.1,0,0.1,0l0,0l0,0l0,0l0,0l0,0
					c0,0,0.1,0,0.1,0l0,0l0,0l0,0l0.1,0l0,0l0.1,0c0.5,1.6,2.4,2.9,4.7,2.9c0.9,0,1.8-0.2,2.5-0.5h0l0,0c0,0,0.1,0,0.1,0l0,0
					c0,0,0.1,0,0.1,0l0,0l0,0c0,0,0.1,0,0.1,0l0,0l0,0c0,0,0.1,0,0.1,0l0,0l0,0c0,0,0.1,0,0.1,0l0,0l0,0c0,0,0.1,0,0.1,0l0,0l0,0h0
					c0,0,0.1,0,0.1,0l0,0c0,0,0.1,0,0.1,0h0h0h0c0,0,0.1,0,0.1,0C823.3,128.8,824.3,128.6,825.1,128.1L825.1,128.1z M814.5,120.7
					L814.5,120.7C814.4,120.7,814.4,120.7,814.5,120.7z"/>
			</g>
		</g>
		<g>
			<rect x="499.4" y="150.6" class="st14" width="8.4" height="1.3"/>
			<rect x="510" y="150.6" class="st14" width="8.4" height="1.3"/>
			<rect x="520.6" y="150.6" class="st14" width="8.4" height="1.3"/>
			<rect x="531.2" y="150.6" class="st14" width="8.4" height="1.3"/>
			<rect x="541.8" y="150.6" class="st14" width="8.4" height="1.3"/>
			<rect x="552.4" y="150.6" class="st14" width="8.4" height="1.3"/>
			<rect x="563" y="150.6" class="st14" width="8.4" height="1.3"/>
			<rect x="573.6" y="150.6" class="st14" width="8.4" height="1.3"/>
			<rect x="584.3" y="150.6" class="st14" width="8.4" height="1.3"/>
			<rect x="594.9" y="150.6" class="st14" width="8.4" height="1.3"/>
			<rect x="605.5" y="150.6" class="st14" width="8.4" height="1.3"/>
			<rect x="616.1" y="150.6" class="st14" width="8.4" height="1.3"/>
			<rect x="626.7" y="150.6" class="st14" width="8.4" height="1.3"/>
			<rect x="637.3" y="150.6" class="st14" width="8.4" height="1.3"/>
			<rect x="647.9" y="150.6" class="st14" width="8.4" height="1.3"/>
			<rect x="658.5" y="150.6" class="st14" width="8.4" height="1.3"/>
			<rect x="669.1" y="150.6" class="st14" width="8.4" height="1.3"/>
			<rect x="679.7" y="150.6" class="st14" width="8.4" height="1.3"/>
			<rect x="690.3" y="150.6" class="st14" width="8.4" height="1.3"/>
			<rect x="700.9" y="150.6" class="st14" width="8.4" height="1.3"/>
			<rect x="711.5" y="150.6" class="st14" width="8.4" height="1.3"/>
			<rect x="722.1" y="150.6" class="st14" width="8.4" height="1.3"/>
			<rect x="732.7" y="150.6" class="st14" width="8.4" height="1.3"/>
			<rect x="743.3" y="150.6" class="st14" width="8.4" height="1.3"/>
			<rect x="753.9" y="150.6" class="st14" width="8.4" height="1.3"/>
			<rect x="764.5" y="150.6" class="st14" width="8.4" height="1.3"/>
			<rect x="775.1" y="150.6" class="st14" width="8.4" height="1.3"/>
			<rect x="785.8" y="150.6" class="st14" width="8.4" height="1.3"/>
			<rect x="796.4" y="150.6" class="st14" width="8.4" height="1.3"/>
			<rect x="807" y="150.6" class="st14" width="8.4" height="1.3"/>
			<rect x="817.6" y="150.6" class="st14" width="8.4" height="1.3"/>
			<rect x="828.2" y="150.6" class="st14" width="8.4" height="1.3"/>
			<rect x="838.8" y="150.6" class="st14" width="8.4" height="1.3"/>
			<rect x="849.4" y="150.6" class="st14" width="8.4" height="1.3"/>
			<rect x="860" y="150.6" class="st14" width="8.4" height="1.3"/>
			<rect x="870.6" y="150.6" class="st14" width="8.4" height="1.3"/>
			<rect x="881.2" y="150.6" class="st14" width="8.4" height="1.3"/>
			<rect x="891.8" y="150.6" class="st14" width="8.4" height="1.3"/>
			<rect x="902.4" y="150.6" class="st14" width="8.4" height="1.3"/>
			<rect x="913" y="150.6" class="st14" width="8.4" height="1.3"/>
			<path class="st14" d="M923.6,150.6h0.8c0,0.2,0,0.4,0,0.7v0c0,0.2,0,0.5,0,0.7h-0.8V150.6z"/>
		</g>
		<g>
			<path class="st15" d="M595.5,136h-6.8c-2.9,0-5.8,3.6-8.5,5.3c-1.9,1.2-2.9,1.2-3.9,1.5c-1.5,0.4-2.3,1.3-2.7,2
				c-0.4,0.7-0.6,2.5-0.6,3.3c0,1,0.6,1.3,1.3,1.3l29,0c0.6,0,0.9-0.8,1-1.4c0.1-1,0.2-2.8,0-3.7C603.6,141.1,601.1,136,595.5,136z"
				/>
			<path class="st16" d="M573,148.1c0-0.1,0-0.2,0-0.4l31.3-0.4c0,0.3,0,0.6-0.1,0.8c-0.1,0.6-0.4,1.4-1,1.4l-29,0
				C573.7,149.5,573,149.1,573,148.1z"/>
			<path class="st16" d="M601.9,149.5c0-3-1.9-4.2-4.2-4.2c-2.3,0-4.2,1.2-4.2,4.2L601.9,149.5z"/>
			<circle class="st17" cx="597.7" cy="149.5" r="3.3"/>
			<circle class="st18" cx="597.7" cy="149.5" r="2.2"/>
			<path class="st16" d="M584.2,149.5c0-3-1.9-4.2-4.2-4.2c-2.3,0-4.2,1.2-4.2,4.2L584.2,149.5z"/>
			<circle class="st17" cx="580.1" cy="149.5" r="3.3"/>
			<circle class="st18" cx="580.1" cy="149.5" r="2.2"/>
			<path class="st19" d="M588.3,136.8c0,0-4,0.7-6.4,5.2l6.4,0V136.8z"/>
			<rect x="589" y="136.8" class="st19" width="6.7" height="5.2"/>
			<path class="st19" d="M596.5,136.8v5.2c0,0,3.2,0,5.1,0C603.6,142,600.3,136.9,596.5,136.8z"/>
			<path class="st16" d="M587.8,142.9c0,0.1,0.1,0.3,0.3,0.3l0.9,0c0.1,0,0.3-0.1,0.3-0.3v-0.2c0-0.1-0.1-0.3-0.3-0.3l-0.9,0
				c-0.1,0-0.3,0.1-0.3,0.3V142.9z"/>
			<path class="st16" d="M594.8,142.9c0,0.1,0.1,0.3,0.3,0.3l0.9,0c0.1,0,0.3-0.1,0.3-0.3v-0.2c0-0.1-0.1-0.3-0.3-0.3l-0.9,0
				c-0.1,0-0.3,0.1-0.3,0.3L594.8,142.9z"/>
			<path class="st16" d="M581.1,142.2c0,0.2,0.2,0.3,0.4,0.3l1.2-0.2c0.2,0,0.3-0.2,0.3-0.4l0-0.2c0-0.2-0.2-0.3-0.4-0.3l-1.2,0.2
				c-0.2,0-0.3,0.2-0.3,0.4L581.1,142.2z"/>
			<path class="st20" d="M574.5,143.7c0.4,0.3,0.7,0.7,0.7,1.3c0,0.8-0.6,1.5-1.4,1.5c-0.2,0-0.4-0.1-0.6-0.2
				c0.1-0.6,0.2-1.2,0.4-1.5C573.8,144.5,574.1,144.1,574.5,143.7z"/>
		</g>
	</g>
</g>
<g>
</g>
<g>
</g>
<g>
</g>
<g>
</g>
<g>
</g>
<g>
</g>
<g>
</g>
<g>
</g>
<g>
</g>
<g>
</g>
<g>
</g>
<g>
</g>
<g>
</g>
<g>
</g>
<g>
</g>
</svg>
