<?xml version="1.0" encoding="utf-8"?>
<!-- Generator: Adobe Illustrator 21.0.2, SVG Export Plug-In . SVG Version: 6.00 Build 0)  -->
<svg version="1.1" id="Layer_1" xmlns="http://www.w3.org/2000/svg" xmlns:xlink="http://www.w3.org/1999/xlink" x="0px" y="0px"
	 viewBox="0 0 500 500" style="enable-background:new 0 0 500 500;" xml:space="preserve">
<style type="text/css">
	.st0{fill:#2D2338;}
	.st1{fill:#F0684E;}
	.st2{fill:#808285;}
	.st3{fill:#634755;}
	.st4{fill:#F3D8B6;}
	.st5{fill:#D1D3D4;}
</style>
<path class="st0" d="M122.2,338.5V296h-9.1v42.4c-10.1,2.1-17.8,11.1-17.8,21.9c0,5.1,1.8,10.2,5.1,14.1l6.3-5.1
	c-2.1-2.6-3.2-5.7-3.2-9c0-7.8,6.4-14.2,14.2-14.2c7.8,0,14.2,6.4,14.2,14.2c0,3.4-1.2,6.7-3.4,9.2l6.2,5.3c3.5-4,5.4-9.2,5.4-14.5
	C140,349.6,132.3,340.6,122.2,338.5z"/>
<path class="st0" d="M386.8,338.5V296h-9.1v42.4c-10.1,2.1-17.8,11.1-17.8,21.9c0,5.1,1.8,10.2,5.1,14.1l6.3-5.1
	c-2.1-2.6-3.2-5.7-3.2-9c0-7.8,6.4-14.2,14.2-14.2c7.8,0,14.2,6.4,14.2,14.2c0,3.4-1.2,6.7-3.4,9.2l6.2,5.3c3.5-4,5.4-9.2,5.4-14.5
	C404.6,349.6,396.9,340.6,386.8,338.5z"/>
<g>
	<path class="st1" d="M407,296.9c0,6.8-5.5,12.4-12.4,12.4l0,0c-6.8,0-12.4-5.5-12.4-12.4v-13.2c0-6.8,5.5-12.4,12.4-12.4l0,0
		c6.8,0,12.4,5.5,12.4,12.4V296.9z"/>
	<path class="st1" d="M117.6,296.9c0,6.8-5.5,12.4-12.4,12.4l0,0c-6.8,0-12.4-5.5-12.4-12.4v-13.2c0-6.8,5.5-12.4,12.4-12.4l0,0
		c6.8,0,12.4,5.5,12.4,12.4V296.9z"/>
	<rect x="117.6" y="284.1" class="st0" width="268.5" height="11.8"/>
	<path class="st2" d="M399.1,303.2c0,9.3-7.6,16.9-16.9,16.9l0,0c-9.3,0-16.9-7.6-16.9-16.9v-25.9c0-9.3,7.6-16.9,16.9-16.9l0,0
		c9.3,0,16.9,7.6,16.9,16.9V303.2z"/>
	<path class="st2" d="M134.5,303.2c0,9.3-7.6,16.9-16.9,16.9l0,0c-9.3,0-16.9-7.6-16.9-16.9v-25.9c0-9.3,7.6-16.9,16.9-16.9l0,0
		c9.3,0,16.9,7.6,16.9,16.9V303.2z"/>
</g>
<g>
	<path class="st3" d="M253.2,96.4c0,1.8-1.5,3.2-3.2,3.2l0,0c-1.8,0-3.2-1.5-3.2-3.2V21c0-1.8,1.4-3.2,3.2-3.2l0,0
		c1.8,0,3.2,1.4,3.2,3.2V96.4z"/>
	<circle class="st1" cx="249.9" cy="17.7" r="16.9"/>
	<ellipse class="st4" cx="253.6" cy="10" rx="6.9" ry="6.9"/>
</g>
<g>
	<rect x="180.6" y="379.6" class="st0" width="14.5" height="110.5"/>
	<rect x="304.8" y="379.6" class="st0" width="14.5" height="110.5"/>
</g>
<g>
	<rect x="365.3" y="154" class="st5" width="20.8" height="20"/>
	<rect x="113.7" y="154" class="st5" width="20.8" height="20"/>
	<rect x="343.7" y="138" class="st0" width="32.1" height="49.9"/>
	<rect x="124.1" y="138" class="st0" width="32.1" height="49.9"/>
</g>
<path class="st2" d="M359.7,363.5c0,20.5-16.6,37.2-37.2,37.2H177.3c-20.5,0-37.2-16.6-37.2-37.2V228.3c0-20.5,16.6-37.2,37.2-37.2
	h145.2c20.5,0,37.2,16.6,37.2,37.2V363.5z"/>
<path class="st2" d="M249.9,39.2c-60.6,0-109.8,49.2-109.8,109.8v55.7h219.6V149C359.7,88.3,310.6,39.2,249.9,39.2z"/>
<path class="st1" d="M385.9,232.6c0,15.4-12.5,27.9-27.9,27.9H141.8c-15.4,0-27.9-12.5-27.9-27.9l0,0c0-15.4,12.5-27.9,27.9-27.9
	H358C373.4,204.7,385.9,217.2,385.9,232.6L385.9,232.6z"/>
<g>
	<g>
		
			<ellipse transform="matrix(0.7071 -0.7071 0.7071 0.7071 4.4991 241.2257)" class="st4" cx="293.5" cy="115.2" rx="17.5" ry="17.5"/>
		<path class="st1" d="M305.8,127.6c6.8-6.8,6.8-17.9,0-24.8c-6.8-6.8-17.9-6.8-24.8,0L305.8,127.6z"/>
	</g>
	<g>
		
			<ellipse transform="matrix(0.7071 -0.7071 0.7071 0.7071 -20.9923 179.6813)" class="st4" cx="206.4" cy="115.2" rx="17.5" ry="17.5"/>
		<path class="st1" d="M218.8,127.6c6.8-6.8,6.8-17.9,0-24.8c-6.8-6.8-17.9-6.8-24.8,0L218.8,127.6z"/>
	</g>
</g>
<g>
	<path class="st0" d="M324.8,174c0,9.5-7.7,17.2-17.2,17.2H192.2c-9.5,0-17.2-7.7-17.2-17.2l0,0c0-9.5,7.7-17.2,17.2-17.2h115.4
		C317.1,156.8,324.8,164.5,324.8,174L324.8,174z"/>
	<path class="st4" d="M271.4,168.6h-21.5h-21.5H207v3.4c0,5.9,4.8,10.7,10.7,10.7c5.9,0,10.7-4.8,10.7-10.7
		c0,5.9,4.8,10.7,10.7,10.7s10.7-4.8,10.7-10.7c0,5.9,4.8,10.7,10.7,10.7c5.9,0,10.7-4.8,10.7-10.7c0,5.9,4.8,10.7,10.7,10.7
		c5.9,0,10.7-4.8,10.7-10.7v-3.4H271.4z"/>
</g>
<g>
	<path class="st5" d="M203.4,371.2c0,4.7-3.8,8.4-8.4,8.4l0,0c-4.7,0-8.4-3.8-8.4-8.4v-14.3c0-4.7,3.8-8.4,8.4-8.4l0,0
		c4.7,0,8.4,3.8,8.4,8.4V371.2z"/>
	<path class="st5" d="M225.4,371.2c0,4.7-3.8,8.4-8.4,8.4l0,0c-4.7,0-8.4-3.8-8.4-8.4v-14.3c0-4.7,3.8-8.4,8.4-8.4l0,0
		c4.7,0,8.4,3.8,8.4,8.4V371.2z"/>
	<path class="st5" d="M247.4,371.2c0,4.7-3.8,8.4-8.4,8.4l0,0c-4.7,0-8.4-3.8-8.4-8.4v-14.3c0-4.7,3.8-8.4,8.4-8.4l0,0
		c4.7,0,8.4,3.8,8.4,8.4V371.2z"/>
	<path class="st5" d="M269.4,371.2c0,4.7-3.8,8.4-8.4,8.4l0,0c-4.7,0-8.4-3.8-8.4-8.4v-14.3c0-4.7,3.8-8.4,8.4-8.4l0,0
		c4.7,0,8.4,3.8,8.4,8.4V371.2z"/>
	<path class="st5" d="M291.3,371.2c0,4.7-3.8,8.4-8.4,8.4l0,0c-4.7,0-8.4-3.8-8.4-8.4v-14.3c0-4.7,3.8-8.4,8.4-8.4l0,0
		c4.7,0,8.4,3.8,8.4,8.4V371.2z"/>
	<path class="st5" d="M313.3,371.2c0,4.7-3.8,8.4-8.4,8.4l0,0c-4.7,0-8.4-3.8-8.4-8.4v-14.3c0-4.7,3.8-8.4,8.4-8.4l0,0
		c4.7,0,8.4,3.8,8.4,8.4V371.2z"/>
</g>
<path class="st5" d="M217.1,498c0-16.2-13.1-29.3-29.3-29.3c-16.2,0-29.3,13.1-29.3,29.3H217.1z"/>
<path class="st5" d="M340.3,498c0-16.2-13.1-29.3-29.3-29.3c-16.2,0-29.3,13.1-29.3,29.3H340.3z"/>
<circle class="st5" cx="312" cy="425.1" r="12.8"/>
<circle class="st5" cx="187.8" cy="425.1" r="12.8"/>
<g>
</g>
<g>
</g>
<g>
</g>
<g>
</g>
<g>
</g>
<g>
</g>
<g>
</g>
<g>
</g>
<g>
</g>
<g>
</g>
<g>
</g>
<g>
</g>
<g>
</g>
<g>
</g>
<g>
</g>
</svg>
