<svg xmlns="http://www.w3.org/2000/svg" viewBox="0 0 398.47 357.45"><defs><style>.cls-1{fill:#808285;}.cls-2{fill:#d1d3d4;}.cls-2,.cls-3{stroke:#231f20;stroke-linejoin:round;stroke-width:5.86px;}.cls-3{fill:none;}.cls-4{fill:#f1f2f2;}.cls-5{fill:#939598;}.cls-6{fill:#19b590;}</style></defs><title>Asset 1</title><g id="Layer_2" data-name="Layer 2"><g id="Element"><rect class="cls-1" x="42.48" y="89.36" width="312.04" height="30.76"/><rect class="cls-1" x="41.02" y="206.56" width="312.04" height="30.76"/><rect class="cls-1" x="39.55" y="323.76" width="312.04" height="30.76"/><rect class="cls-2" x="19.04" y="2.93" width="360.38" height="86.43"/><rect class="cls-2" x="17.58" y="120.13" width="360.38" height="86.43"/><rect class="cls-2" x="16.11" y="237.32" width="360.38" height="86.43"/><line class="cls-3" y1="354.52" x2="398.47" y2="354.52"/><line class="cls-3" x1="43.95" y1="20.51" x2="43.95" y2="65.92"/><line class="cls-3" x1="62.99" y1="20.51" x2="62.99" y2="65.92"/><line class="cls-3" x1="82.04" y1="20.51" x2="82.04" y2="65.92"/><line class="cls-3" x1="101.08" y1="20.51" x2="101.08" y2="65.92"/><line class="cls-3" x1="120.13" y1="20.51" x2="120.13" y2="65.92"/><rect class="cls-4" x="137.71" y="20.51" width="216.82" height="23.44"/><circle class="cls-5" cx="316.05" cy="50.19" r="22.08"/><line class="cls-3" x1="309.11" y1="49.81" x2="325.22" y2="49.81"/><circle class="cls-5" cx="65.54" cy="162.99" r="22.08"/><line class="cls-3" x1="58.6" y1="162.61" x2="74.71" y2="162.61"/><circle class="cls-5" cx="137.33" cy="162.99" r="22.08"/><line class="cls-3" x1="130.38" y1="162.61" x2="146.5" y2="162.61"/><circle class="cls-5" cx="206.18" cy="162.99" r="22.08"/><line class="cls-3" x1="199.24" y1="162.61" x2="215.35" y2="162.61"/><line class="cls-3" x1="137.71" y1="58.6" x2="253.44" y2="58.6"/><line class="cls-3" x1="263.69" y1="58.6" x2="278.34" y2="58.6"/><rect class="cls-6" x="145.03" y="24.9" width="5.86" height="14.65"/><rect class="cls-6" x="159.68" y="24.9" width="5.86" height="14.65"/><rect class="cls-6" x="174.33" y="24.9" width="5.86" height="14.65"/><rect class="cls-6" x="188.98" y="24.9" width="5.86" height="14.65"/><rect class="cls-6" x="203.63" y="24.9" width="5.86" height="14.65"/><rect class="cls-1" x="218.28" y="24.9" width="5.86" height="14.65"/><rect class="cls-1" x="232.93" y="24.9" width="5.86" height="14.65"/><rect class="cls-1" x="247.58" y="24.9" width="5.86" height="14.65"/><rect class="cls-1" x="262.23" y="24.9" width="5.86" height="14.65"/><rect class="cls-1" x="278.34" y="24.9" width="5.86" height="14.65"/><rect class="cls-4" x="250.51" y="140.64" width="17.58" height="26.37"/><rect class="cls-6" x="279.81" y="140.64" width="17.58" height="26.37"/><rect class="cls-4" x="309.11" y="140.64" width="17.58" height="26.37"/><rect class="cls-6" x="338.41" y="140.64" width="17.58" height="26.37"/><line class="cls-3" x1="259.3" y1="153.82" x2="259.3" y2="184.59"/><line class="cls-3" x1="288.6" y1="153.82" x2="288.6" y2="184.59"/><line class="cls-3" x1="317.9" y1="153.82" x2="317.9" y2="184.59"/><line class="cls-3" x1="347.2" y1="153.82" x2="347.2" y2="184.59"/><line class="cls-3" x1="250.51" y1="153.82" x2="268.09" y2="153.82"/><line class="cls-3" x1="279.81" y1="153.82" x2="297.39" y2="153.82"/><line class="cls-3" x1="309.11" y1="153.82" x2="326.69" y2="153.82"/><line class="cls-3" x1="338.41" y1="153.82" x2="355.99" y2="153.82"/><rect class="cls-4" x="232.93" y="256.37" width="120.13" height="45.41"/><circle class="cls-5" cx="62.61" cy="280.19" r="22.08"/><line class="cls-3" x1="55.67" y1="279.81" x2="71.78" y2="279.81"/><line class="cls-3" x1="251.97" y1="256.37" x2="251.97" y2="301.78"/><line class="cls-3" x1="243.18" y1="256.37" x2="260.76" y2="256.37"/><line class="cls-3" x1="276.88" y1="301.78" x2="276.88" y2="256.37"/><line class="cls-3" x1="285.67" y1="301.78" x2="268.09" y2="301.78"/><line class="cls-3" x1="310.57" y1="256.37" x2="310.57" y2="301.78"/><line class="cls-3" x1="301.78" y1="256.37" x2="319.36" y2="256.37"/><line class="cls-3" x1="335.48" y1="301.78" x2="335.48" y2="256.37"/><line class="cls-3" x1="344.27" y1="301.78" x2="326.69" y2="301.78"/><line class="cls-3" x1="104.01" y1="265.16" x2="216.82" y2="265.16"/><line class="cls-3" x1="104.01" y1="279.81" x2="216.82" y2="279.81"/><line class="cls-3" x1="104.01" y1="294.46" x2="216.82" y2="294.46"/></g></g></svg>