<?xml version="1.0" encoding="utf-8"?>
<!-- Generator: Adobe Illustrator 21.0.2, SVG Export Plug-In . SVG Version: 6.00 Build 0)  -->
<svg version="1.1" id="Layer_1" xmlns="http://www.w3.org/2000/svg" xmlns:xlink="http://www.w3.org/1999/xlink" x="0px" y="0px"
	 viewBox="0 0 878.3 300" style="enable-background:new 0 0 878.3 300;" xml:space="preserve">
<style type="text/css">
	.st0{fill:#FBB040;}
	.st1{fill:#231F20;}
	.st2{fill:#FFFFFF;}
	.st3{fill:#F9ED32;stroke:#231F20;stroke-width:3.8209;stroke-linecap:round;stroke-linejoin:round;stroke-miterlimit:10;}
	.st4{fill:#231F20;stroke:#231F20;stroke-width:3.8209;stroke-linecap:round;stroke-linejoin:round;stroke-miterlimit:10;}
	.st5{fill:#E0E0E0;stroke:#231F20;stroke-width:3.8209;stroke-linecap:round;stroke-linejoin:round;stroke-miterlimit:10;}
	.st6{fill:none;stroke:#231F20;stroke-width:3.8209;stroke-linecap:round;stroke-linejoin:round;stroke-miterlimit:10;}
	.st7{fill:none;}
	.st8{font-family:'Roboto-Regular';}
	.st9{font-size:31px;}
	.st10{font-family:'Roboto-Thin';}
	.st11{letter-spacing:2;}
	.st12{letter-spacing:7;}
	.st13{fill:#545454;}
	.st14{font-size:21px;}
</style>
<g>
	<g>
		<g>
			<g>
				<path class="st0" d="M221.1,222.3c0,11.3-9.3,20.6-20.6,20.6h-77c-11.3,0-20.6-9.3-20.6-20.6v-5.8c0-11.3,9.3-20.6,20.6-20.6h77
					c11.3,0,20.6,9.3,20.6,20.6V222.3z"/>
				<path class="st1" d="M200.5,245.7h-77c-12.9,0-23.4-10.5-23.4-23.4v-5.8c0-12.9,10.5-23.4,23.4-23.4h77
					c12.9,0,23.4,10.5,23.4,23.4v5.8C223.9,235.2,213.4,245.7,200.5,245.7z M123.5,198.7c-9.8,0-17.8,8-17.8,17.8v5.8
					c0,9.8,8,17.8,17.8,17.8h77c9.8,0,17.8-8,17.8-17.8v-5.8c0-9.8-8-17.8-17.8-17.8H123.5z"/>
			</g>
			<g>
				<path class="st0" d="M221.1,222.3c0,11.3-9.3,20.6-20.6,20.6h-77c-11.3,0-20.6-9.3-20.6-20.6v-5.8c0-11.3,9.3-20.6,20.6-20.6h77
					c11.3,0,20.6,9.3,20.6,20.6V222.3z"/>
				<path class="st2" d="M200.5,195.9h-16.3c11.3,0,20.6,9.3,20.6,20.6v5.8c0,11.3-9.3,20.6-20.6,20.6h16.3
					c11.3,0,20.6-9.3,20.6-20.6v-5.8C221.1,205.2,211.9,195.9,200.5,195.9z"/>
				<path class="st1" d="M200.5,245.7h-77c-12.9,0-23.4-10.5-23.4-23.4v-5.8c0-12.9,10.5-23.4,23.4-23.4h77
					c12.9,0,23.4,10.5,23.4,23.4v5.8C223.9,235.2,213.4,245.7,200.5,245.7z M123.5,198.7c-9.8,0-17.8,8-17.8,17.8v5.8
					c0,9.8,8,17.8,17.8,17.8h77c9.8,0,17.8-8,17.8-17.8v-5.8c0-9.8-8-17.8-17.8-17.8H123.5z"/>
			</g>
		</g>
		<g>
			<g>
				<path class="st0" d="M237.4,203c0,11.3-9.3,20.6-20.6,20.6H107.2c-11.3,0-20.6-9.3-20.6-20.6v-5.8c0-11.3,9.3-20.6,20.6-20.6
					h109.7c11.3,0,20.6,9.3,20.6,20.6v5.8H237.4z"/>
				<path class="st1" d="M216.8,226.4H107.2c-12.9,0-23.4-10.5-23.4-23.4v-5.8c0-12.9,10.5-23.4,23.4-23.4h109.7
					c12.9,0,23.4,10.5,23.4,23.4v5.8C240.2,215.9,229.7,226.4,216.8,226.4z M107.2,179.4c-9.8,0-17.8,8-17.8,17.8v5.8
					c0,9.8,8,17.8,17.8,17.8h109.7c9.8,0,17.8-8,17.8-17.8v-5.8c0-9.8-8-17.8-17.8-17.8H107.2z"/>
			</g>
			<g>
				<path class="st0" d="M237.4,203c0,11.3-9.3,20.6-20.6,20.6H107.2c-11.3,0-20.6-9.3-20.6-20.6v-5.8c0-11.3,9.3-20.6,20.6-20.6
					h109.7c11.3,0,20.6,9.3,20.6,20.6v5.8H237.4z"/>
				<path class="st2" d="M216.8,176.6h-16.5c11.3,0,20.6,9.3,20.6,20.6v5.8c0,11.3-9.3,20.6-20.6,20.6h16.5
					c11.3,0,20.6-9.3,20.6-20.6v-5.8C237.4,185.9,228.2,176.6,216.8,176.6z"/>
				<path class="st1" d="M216.8,226.4H107.2c-12.9,0-23.4-10.5-23.4-23.4v-5.8c0-12.9,10.5-23.4,23.4-23.4h109.7
					c12.9,0,23.4,10.5,23.4,23.4v5.8C240.2,215.9,229.7,226.4,216.8,226.4z M107.2,179.4c-9.8,0-17.8,8-17.8,17.8v5.8
					c0,9.8,8,17.8,17.8,17.8h109.7c9.8,0,17.8-8,17.8-17.8v-5.8c0-9.8-8-17.8-17.8-17.8H107.2z"/>
			</g>
		</g>
		<g>
			<g>
				<path class="st0" d="M251.2,172.1c0,11.3-9.3,20.6-20.6,20.6H93.4c-11.3,0-20.6-9.3-20.6-20.6v-5.8c0-11.3,9.3-20.6,20.6-20.6
					h137.1c11.3,0,20.6,9.3,20.6,20.6L251.2,172.1L251.2,172.1z"/>
				<path class="st1" d="M230.6,195.5H93.4C80.5,195.5,70,185,70,172.1v-5.8c0-12.9,10.5-23.4,23.4-23.4h137.1
					c12.9,0,23.4,10.5,23.4,23.4v5.8C254,185,243.5,195.5,230.6,195.5z M93.4,148.5c-9.8,0-17.8,8-17.8,17.8v5.8
					c0,9.8,8,17.8,17.8,17.8h137.1c9.8,0,17.8-8,17.8-17.8v-5.8c0-9.8-8-17.8-17.8-17.8H93.4z"/>
			</g>
			<g>
				<path class="st0" d="M251.2,172.1c0,11.3-9.3,20.6-20.6,20.6H93.4c-11.3,0-20.6-9.3-20.6-20.6v-5.8c0-11.3,9.3-20.6,20.6-20.6
					h137.1c11.3,0,20.6,9.3,20.6,20.6L251.2,172.1L251.2,172.1z"/>
				<path class="st2" d="M230.6,145.7h-15.7c11.3,0,20.6,9.3,20.6,20.6v5.8c0,11.3-9.3,20.6-20.6,20.6h15.7
					c11.3,0,20.6-9.3,20.6-20.6v-5.8C251.2,155,241.9,145.7,230.6,145.7z"/>
				<path class="st1" d="M230.6,195.5H93.4C80.5,195.5,70,185,70,172.1v-5.8c0-12.9,10.5-23.4,23.4-23.4h137.1
					c12.9,0,23.4,10.5,23.4,23.4v5.8C254,185,243.5,195.5,230.6,195.5z M93.4,148.5c-9.8,0-17.8,8-17.8,17.8v5.8
					c0,9.8,8,17.8,17.8,17.8h137.1c9.8,0,17.8-8,17.8-17.8v-5.8c0-9.8-8-17.8-17.8-17.8H93.4z"/>
			</g>
		</g>
		<g>
			<g>
				<path class="st0" d="M254.2,135.2c0,11.3-9.3,20.6-20.6,20.6H90.4c-11.3,0-20.6-9.3-20.6-20.6v-5.8c0-11.3,9.3-20.6,20.6-20.6
					h143.1c11.3,0,20.6,9.3,20.6,20.6L254.2,135.2L254.2,135.2z"/>
				<path class="st1" d="M233.6,158.6H90.4c-12.9,0-23.4-10.5-23.4-23.4v-5.8c0-12.9,10.5-23.4,23.4-23.4h143.1
					c12.9,0,23.4,10.5,23.4,23.4v5.8C257,148.1,246.5,158.6,233.6,158.6z M90.4,111.6c-9.8,0-17.8,8-17.8,17.8v5.8
					c0,9.8,8,17.8,17.8,17.8h143.1c9.8,0,17.8-8,17.8-17.8v-5.8c0-9.8-8-17.8-17.8-17.8C233.5,111.6,90.4,111.6,90.4,111.6z"/>
			</g>
			<g>
				<path class="st0" d="M254.2,135.2c0,11.3-9.3,20.6-20.6,20.6H90.4c-11.3,0-20.6-9.3-20.6-20.6v-5.8c0-11.3,9.3-20.6,20.6-20.6
					h143.1c11.3,0,20.6,9.3,20.6,20.6L254.2,135.2L254.2,135.2z"/>
				<path class="st2" d="M233.6,108.8h-16.7c11.3,0,20.6,9.3,20.6,20.6v5.8c0,11.3-9.3,20.6-20.6,20.6h16.7
					c11.3,0,20.6-9.3,20.6-20.6v-5.8C254.2,118.1,244.9,108.8,233.6,108.8z"/>
				<path class="st1" d="M233.6,158.6H90.4c-12.9,0-23.4-10.5-23.4-23.4v-5.8c0-12.9,10.5-23.4,23.4-23.4h143.1
					c12.9,0,23.4,10.5,23.4,23.4v5.8C257,148.1,246.5,158.6,233.6,158.6z M90.4,111.6c-9.8,0-17.8,8-17.8,17.8v5.8
					c0,9.8,8,17.8,17.8,17.8h143.1c9.8,0,17.8-8,17.8-17.8v-5.8c0-9.8-8-17.8-17.8-17.8C233.5,111.6,90.4,111.6,90.4,111.6z"/>
			</g>
		</g>
		<g>
			<g>
				<path class="st0" d="M245.8,99.6c0,11.3-9.3,20.6-20.6,20.6H98.8c-11.3,0-20.6-9.3-20.6-20.6v-5.8c0-11.3,9.3-20.6,20.6-20.6
					h126.4c11.3,0,20.6,9.3,20.6,20.6L245.8,99.6L245.8,99.6z"/>
				<path class="st1" d="M225.2,123H98.8c-12.9,0-23.4-10.5-23.4-23.4v-5.8c0-12.9,10.5-23.4,23.4-23.4h126.4
					c12.9,0,23.4,10.5,23.4,23.4v5.8C248.6,112.5,238.1,123,225.2,123z M98.8,76C89,76,81,84,81,93.8v5.8c0,9.8,8,17.8,17.8,17.8
					h126.4c9.8,0,17.8-8,17.8-17.8v-5.8c0-9.8-8-17.8-17.8-17.8H98.8z"/>
			</g>
			<g>
				<path class="st0" d="M245.8,99.6c0,11.3-9.3,20.6-20.6,20.6H98.8c-11.3,0-20.6-9.3-20.6-20.6v-5.8c0-11.3,9.3-20.6,20.6-20.6
					h126.4c11.3,0,20.6,9.3,20.6,20.6L245.8,99.6L245.8,99.6z"/>
				<path class="st2" d="M225.2,73.2h-15.5c11.3,0,20.6,9.3,20.6,20.6v5.8c0,11.3-9.3,20.6-20.6,20.6h15.5
					c11.3,0,20.6-9.3,20.6-20.6v-5.8C245.8,82.5,236.5,73.2,225.2,73.2z"/>
				<path class="st1" d="M225.2,123H98.8c-12.9,0-23.4-10.5-23.4-23.4v-5.8c0-12.9,10.5-23.4,23.4-23.4h126.4
					c12.9,0,23.4,10.5,23.4,23.4v5.8C248.6,112.5,238.1,123,225.2,123z M98.8,76C89,76,81,84,81,93.8v5.8c0,9.8,8,17.8,17.8,17.8
					h126.4c9.8,0,17.8-8,17.8-17.8v-5.8c0-9.8-8-17.8-17.8-17.8H98.8z"/>
			</g>
		</g>
		<g>
			<g>
				<path class="st0" d="M227.6,64.1c0,11.3-9.3,20.6-20.6,20.6h-90c-11.3,0-20.6-9.3-20.6-20.6v-0.4c0-11.3,9.3-20.6,20.6-20.6h90
					c11.3,0,20.6,9.3,20.6,20.6V64.1z"/>
				<path class="st1" d="M207,87.5h-90c-12.9,0-23.4-10.5-23.4-23.4v-0.4c0-12.9,10.5-23.4,23.4-23.4h90c12.9,0,23.4,10.5,23.4,23.4
					v0.4C230.3,77,219.9,87.5,207,87.5z M117,45.8c-9.8,0-17.8,8-17.8,17.8V64c0,9.8,8,17.8,17.8,17.8h90c9.8,0,17.8-8,17.8-17.8
					v-0.4c0-9.8-8-17.8-17.8-17.8H117z"/>
			</g>
			<g>
				<path class="st0" d="M227.6,64.1c0,11.3-9.3,20.6-20.6,20.6h-90c-11.3,0-20.6-9.3-20.6-20.6v-0.4c0-11.3,9.3-20.6,20.6-20.6h90
					c11.3,0,20.6,9.3,20.6,20.6V64.1z"/>
				<path class="st2" d="M207,43h-14.6c11.3,0,20.6,9.3,20.6,20.6V64c0,11.3-9.3,20.6-20.6,20.6H207c11.3,0,20.6-9.3,20.6-20.6v-0.4
					C227.6,52.3,218.3,43,207,43z"/>
				<path class="st1" d="M207,87.5h-90c-12.9,0-23.4-10.5-23.4-23.4v-0.4c0-12.9,10.5-23.4,23.4-23.4h90c12.9,0,23.4,10.5,23.4,23.4
					v0.4C230.3,77,219.9,87.5,207,87.5z M117,45.8c-9.8,0-17.8,8-17.8,17.8V64c0,9.8,8,17.8,17.8,17.8h90c9.8,0,17.8-8,17.8-17.8
					v-0.4c0-9.8-8-17.8-17.8-17.8H117z"/>
			</g>
		</g>
		<g>
			<g>
				<path class="st0" d="M213,37.9c0,8.3-9.3,15-20.6,15h-60.7c-11.3,0-20.6-6.8-20.6-15c0-8.3,9.3-15,20.6-15h60.7
					C203.7,22.9,213,29.6,213,37.9z"/>
				<path class="st1" d="M192.4,55.7h-60.7c-12.9,0-23.4-8-23.4-17.8s10.5-17.8,23.4-17.8h60.7c12.9,0,23.4,8,23.4,17.8
					C215.8,47.7,205.3,55.7,192.4,55.7z M131.6,25.7c-9.7,0-17.8,5.6-17.8,12.2s8.2,12.2,17.8,12.2h60.7c9.7,0,17.8-5.6,17.8-12.2
					s-8.2-12.2-17.8-12.2H131.6z"/>
			</g>
			<g>
				<path class="st0" d="M213,37.9c0,8.3-9.3,15-20.6,15h-60.7c-11.3,0-20.6-6.8-20.6-15c0-8.3,9.3-15,20.6-15h60.7
					C203.7,22.9,213,29.6,213,37.9z"/>
				<path class="st2" d="M192.4,22.9h-14.6c11.3,0,20.6,6.8,20.6,15c0,8.3-9.3,15-20.6,15h14.6c11.3,0,20.6-6.8,20.6-15
					C213,29.6,203.7,22.9,192.4,22.9z"/>
				<path class="st1" d="M192.4,55.7h-60.7c-12.9,0-23.4-8-23.4-17.8s10.5-17.8,23.4-17.8h60.7c12.9,0,23.4,8,23.4,17.8
					C215.8,47.7,205.3,55.7,192.4,55.7z M131.6,25.7c-9.7,0-17.8,5.6-17.8,12.2s8.2,12.2,17.8,12.2h60.7c9.7,0,17.8-5.6,17.8-12.2
					s-8.2-12.2-17.8-12.2H131.6z"/>
			</g>
		</g>
		<g>
			<circle class="st1" cx="162" cy="160.4" r="45.7"/>
			<path class="st1" d="M162,208.9c-26.7,0-48.5-21.8-48.5-48.5s21.8-48.5,48.5-48.5s48.5,21.8,48.5,48.5S188.7,208.9,162,208.9z
				 M162,117.5c-23.7,0-42.9,19.3-42.9,42.9c0,23.7,19.3,42.9,42.9,42.9c23.7,0,42.9-19.3,42.9-42.9S185.7,117.5,162,117.5z"/>
		</g>
	</g>
	<g>
		<path class="st2" d="M104.3,119.1c-2.4,1.3-5.3,1.3-7.8,0.1l-8.1-4c-8.7,0.7-17.2-2.2-23.6-8.1c-1-0.9-1.9-1.9-2.8-2.9
			c-1.4,3.1-3.8,7.4-11.2,11.3c-9.1,4.8-19.8,2-25.5-6.5c-5.2-7.8-5.1-20.2,5.1-28.6c1.4-1.2,3-2.2,4.6-3.1
			c7.3-3.8,15.4-3.9,21.2-3.1c0.5-1.5,1.1-2.9,1.8-4.3c-0.2-0.6-0.4-1.2-0.5-1.9l-3-0.7c-4.6-1.1-7.5-5.7-6.4-10.4
			c0.6-2.4,2.2-4.5,4.4-5.7c1.8-1,3.9-1.2,6-0.8l3.7,0.9c1.4-1.4,2.9-2.6,4.7-3.5c1.4-0.7,2.9-1.3,4.5-1.6l0.7-3
			c0.6-2.4,2.2-4.5,4.4-5.7c1.8-1,3.9-1.2,6-0.8c4.6,1.1,7.5,5.7,6.4,10.4L88,50.8c0.7,0.7,1.4,1.5,2,2.3c1.6,0.2,3.1,0.5,4.6,1
			c2.7-5.2,7.3-11.8,14.7-15.7c1.7-0.9,3.4-1.6,5.2-2.1c12.7-3.6,22.9,3.3,26.4,12.1c3.8,9.5-0.1,19.9-9.2,24.7
			c-7.4,3.9-12.3,3.4-15.6,2.8c0.3,1.3,0.6,2.6,0.8,3.9c1.2,8.6-1.3,17.3-6.8,24l-1.4,8.9C108.4,115.5,106.7,117.8,104.3,119.1z"/>
		<g>
			<ellipse transform="matrix(0.886 -0.4637 0.4637 0.886 -21.0659 42.3037)" class="st3" cx="75.5" cy="64" rx="9.6" ry="9.6"/>
			<polygon class="st4" points="96.5,104.2 90,106.4 100.3,111.5 102,100.1 			"/>
			<path class="st3" d="M75.5,64c-8.7,4.6-13.2,14-11.9,23.2l37.7-19.8C94.5,61.2,84.2,59.5,75.5,64z"/>
			<path class="st3" d="M96.5,104.2c8.7-4.6,13.2-14,11.9-23.2l-37.7,19.8C77.5,107,87.8,108.7,96.5,104.2z"/>
			<path class="st4" d="M101.3,67.4L63.6,87.2c0.3,2.5,1.1,5,2.4,7.4c1.2,2.4,2.9,4.4,4.8,6.2L108.4,81c-0.3-2.5-1.1-5-2.4-7.4
				C104.8,71.2,103.2,69.2,101.3,67.4z"/>
			<g>
				<path class="st5" d="M99.6,71.5c-3.1,1.7,1.7-22.4,17.3-26.8c15.5-4.4,23,14.5,10.9,20.8S117.5,61.6,99.6,71.5z"/>
				<path class="st5" d="M67.8,88.1c3.2-1.6-19.3-11.3-31.8-1c-12.5,10.2-1.2,27.1,10.9,20.8C58.9,101.6,49.5,97.2,67.8,88.1z"/>
			</g>
			<line class="st6" x1="66.3" y1="61.2" x2="56.6" y2="58.9"/>
			<line class="st6" x1="78.4" y1="54.8" x2="80.6" y2="45.2"/>
		</g>
	</g>
	<g>
		<path class="st2" d="M88.2,280.5c-2.7-0.5-5-2.3-6.2-4.7l-3.9-8.1c-7.2-4.8-12.1-12.3-13.6-20.9c-0.2-1.3-0.4-2.6-0.4-3.9
			c-3,1.5-7.5,3.5-15.8,2c-10.1-1.9-16.9-10.6-16.1-20.8c0.7-9.4,8.4-19,21.6-19.4c1.8,0,3.7,0.1,5.5,0.4
			c8.1,1.5,14.6,6.5,18.7,10.6c1.3-0.9,2.7-1.6,4.1-2.3c0.2-0.6,0.5-1.2,0.7-1.8l-1.9-2.4c-3-3.7-2.4-9.1,1.3-12.1
			c2-1.6,4.5-2.2,7-1.8c2,0.4,3.9,1.5,5.2,3.1l2.4,3c1.9-0.3,3.9-0.2,5.9,0.1c1.6,0.3,3.1,0.8,4.5,1.5l2.4-1.9c2-1.6,4.5-2.2,7-1.8
			c2,0.4,3.9,1.5,5.2,3.1c3,3.7,2.4,9.1-1.3,12.1l-3,2.4c0.1,1,0.2,2,0.2,3c1.1,1.1,2.1,2.3,3,3.6c5.3-2.4,13.1-4.8,21.2-3.3
			c1.8,0.3,3.6,0.9,5.3,1.6c12.3,5,16,16.7,13.4,25.8c-2.9,9.8-12.3,15.6-22.4,13.8c-8.2-1.5-11.8-4.9-14-7.4
			c-0.5,1.2-1.1,2.4-1.8,3.5c-4.4,7.5-11.6,12.8-20.1,14.8l-6.6,6.2C93.7,280.2,90.9,281,88.2,280.5z"/>
		<g>
			
				<ellipse transform="matrix(0.1802 -0.9836 0.9836 0.1802 -134.3975 277.6551)" class="st3" cx="99.4" cy="219.5" rx="9.6" ry="9.6"/>
			<polygon class="st4" points="91.3,264 84.8,261.7 89.8,272.1 98.2,264.2 			"/>
			<path class="st3" d="M99.4,219.4c-9.7-1.8-19,2.9-23.6,10.9l41.9,7.7C116.2,228.8,109.1,221.2,99.4,219.4z"/>
			<path class="st3" d="M91.3,264c9.7,1.8,19-2.9,23.6-10.9L73,245.4C74.6,254.5,81.6,262.2,91.3,264z"/>
			<path class="st4" d="M117.7,238l-41.9-7.7c-1.3,2.2-2.2,4.6-2.7,7.3c-0.5,2.6-0.5,5.3,0,7.8l41.9,7.7c1.3-2.2,2.2-4.6,2.7-7.3
				C118.1,243.1,118.1,240.5,117.7,238z"/>
			<g>
				<path class="st5" d="M113.9,240.1c-3.5-0.6,15.1-16.5,30.1-10.4s9.2,25.6-4.2,23.1C126.4,250.3,134.1,243.3,113.9,240.1z"/>
				<path class="st5" d="M78.6,233.7c3.5,0.7-8.3-20.8-24.4-20.4c-16.1,0.4-17.6,20.6-4.2,23.1C63.3,238.8,58.6,229.5,78.6,233.7z"
					/>
			</g>
			<line class="st6" x1="94" y1="211.5" x2="87.8" y2="203.8"/>
			<line class="st6" x1="107.4" y1="213.9" x2="115.1" y2="207.7"/>
		</g>
	</g>
</g>
<rect x="288.4" y="24.9" class="st7" width="548.3" height="252.9"/>
<text transform="matrix(1 0 0 1 288.3779 48.1597)" class="st8 st9">Swarm Launcher</text>
<text transform="matrix(1 0 0 1 288.3779 122.5597)" class="st10 st9">You</text>
<text transform="matrix(1 0 0 1 340.8779 122.5597)" class="st10 st9 st11"> </text>
<text transform="matrix(1 0 0 1 351.9779 122.5597)" class="st10 st9">can</text>
<text transform="matrix(1 0 0 1 401.0779 122.5597)" class="st10 st9 st11"> </text>
<text transform="matrix(1 0 0 1 412.1779 122.5597)" class="st10 st9">configure</text>
<text transform="matrix(1 0 0 1 538.0779 122.5597)" class="st10 st9 st11"> </text>
<text transform="matrix(1 0 0 1 549.1779 122.5597)" class="st10 st9">how</text>
<text transform="matrix(1 0 0 1 606.6779 122.5597)" class="st10 st9 st11"> </text>
<text transform="matrix(1 0 0 1 617.7779 122.5597)" class="st10 st9">the</text>
<text transform="matrix(1 0 0 1 660.1779 122.5597)" class="st10 st9 st11"> </text>
<text transform="matrix(1 0 0 1 671.2779 122.5597)" class="st10 st9">swarm</text>
<text transform="matrix(1 0 0 1 764.6779 122.5597)" class="st10 st9 st11"> </text>
<text transform="matrix(1 0 0 1 775.7779 122.5597)" class="st10 st9">walk </text>
<text transform="matrix(1 0 0 1 288.3779 159.7597)" class="st10 st9">through</text>
<text transform="matrix(1 0 0 1 393.4779 159.7597)" class="st10 st9 st12"> </text>
<text transform="matrix(1 0 0 1 409.1779 159.7597)" class="st10 st9">the</text>
<text transform="matrix(1 0 0 1 451.5779 159.7597)" class="st10 st9 st12"> </text>
<text transform="matrix(1 0 0 1 467.1779 159.7597)" class="st10 st9">streets,</text>
<text transform="matrix(1 0 0 1 565.0779 159.7597)" class="st10 st9 st12"> </text>
<text transform="matrix(1 0 0 1 580.7779 159.7597)" class="st10 st9">how</text>
<text transform="matrix(1 0 0 1 638.1779 159.7597)" class="st10 st9 st12"> </text>
<text transform="matrix(1 0 0 1 653.8779 159.7597)" class="st10 st9">many</text>
<text transform="matrix(1 0 0 1 729.7779 159.7597)" class="st10 st9 st12"> </text>
<text transform="matrix(1 0 0 1 745.4779 159.7597)" class="st10 st9">agents </text>
<text transform="matrix(1 0 0 1 288.3779 196.9597)" class="st10 st9">and the city that you want run. </text>
<text transform="matrix(1 0 0 1 288.3779 247.3597)" class="st13 st10 st14">After pressed to play, you can go to analytic view in real time</text>
<text transform="matrix(1 0 0 1 830.4779 247.3597)" class="st10 st14">.</text>
</svg>
