<?xml version="1.0" encoding="utf-8"?>
<!-- Generator: Adobe Illustrator 21.0.2, SVG Export Plug-In . SVG Version: 6.00 Build 0)  -->
<svg version="1.1" id="Layer_1" xmlns="http://www.w3.org/2000/svg" xmlns:xlink="http://www.w3.org/1999/xlink" x="0px" y="0px"
	 viewBox="0 0 878.3 300" style="enable-background:new 0 0 878.3 300;" xml:space="preserve">
<style type="text/css">
	.st0{fill:#FBB040;}
	.st1{fill:#231F20;}
	.st2{fill:#FFFFFF;}
	.st3{fill:#F9ED32;stroke:#231F20;stroke-width:3.8209;stroke-linecap:round;stroke-linejoin:round;stroke-miterlimit:10;}
	.st4{fill:#231F20;stroke:#231F20;stroke-width:3.8209;stroke-linecap:round;stroke-linejoin:round;stroke-miterlimit:10;}
	.st5{fill:#E0E0E0;stroke:#231F20;stroke-width:3.8209;stroke-linecap:round;stroke-linejoin:round;stroke-miterlimit:10;}
	.st6{fill:none;stroke:#231F20;stroke-width:3.8209;stroke-linecap:round;stroke-linejoin:round;stroke-miterlimit:10;}
	.st7{fill:none;}
	.st8{font-family:'Roboto-Regular';}
	.st9{font-size:31px;}
	.st10{font-family:'Roboto-Thin';}
	.st11{letter-spacing:3;}
	.st12{fill:#545454;}
	.st13{font-size:21px;}
	.st14{fill-rule:evenodd;clip-rule:evenodd;fill:#231F20;}
</style>
<g>
	<g>
		<g>
			<g>
				<path class="st0" d="M122.6,260.1c0,6.4-5.3,11.8-11.8,11.8H66.9c-6.4,0-11.8-5.3-11.8-11.8v-3.3c0-6.4,5.3-11.8,11.8-11.8h43.9
					c6.4,0,11.8,5.3,11.8,11.8V260.1z"/>
				<path class="st1" d="M110.9,273.4H66.9c-7.4,0-13.3-6-13.3-13.3v-3.3c0-7.4,6-13.3,13.3-13.3h43.9c7.4,0,13.3,6,13.3,13.3v3.3
					C124.2,267.5,118.2,273.4,110.9,273.4z M66.9,246.6c-5.6,0-10.2,4.6-10.2,10.2v3.3c0,5.6,4.6,10.2,10.2,10.2h43.9
					c5.6,0,10.2-4.6,10.2-10.2v-3.3c0-5.6-4.6-10.2-10.2-10.2H66.9z"/>
			</g>
			<g>
				<path class="st0" d="M122.6,260.1c0,6.4-5.3,11.8-11.8,11.8H66.9c-6.4,0-11.8-5.3-11.8-11.8v-3.3c0-6.4,5.3-11.8,11.8-11.8h43.9
					c6.4,0,11.8,5.3,11.8,11.8V260.1z"/>
				<path class="st2" d="M110.9,245h-9.3c6.4,0,11.8,5.3,11.8,11.8v3.3c0,6.4-5.3,11.8-11.8,11.8h9.3c6.4,0,11.8-5.3,11.8-11.8v-3.3
					C122.6,250.3,117.4,245,110.9,245z"/>
				<path class="st1" d="M110.9,273.4H66.9c-7.4,0-13.3-6-13.3-13.3v-3.3c0-7.4,6-13.3,13.3-13.3h43.9c7.4,0,13.3,6,13.3,13.3v3.3
					C124.2,267.5,118.2,273.4,110.9,273.4z M66.9,246.6c-5.6,0-10.2,4.6-10.2,10.2v3.3c0,5.6,4.6,10.2,10.2,10.2h43.9
					c5.6,0,10.2-4.6,10.2-10.2v-3.3c0-5.6-4.6-10.2-10.2-10.2H66.9z"/>
			</g>
		</g>
		<g>
			<g>
				<path class="st0" d="M131.9,249.1c0,6.4-5.3,11.8-11.8,11.8H57.6c-6.4,0-11.8-5.3-11.8-11.8v-3.3c0-6.4,5.3-11.8,11.8-11.8h62.6
					c6.4,0,11.8,5.3,11.8,11.8L131.9,249.1L131.9,249.1z"/>
				<path class="st1" d="M120.2,262.4H57.6c-7.4,0-13.3-6-13.3-13.3v-3.3c0-7.4,6-13.3,13.3-13.3h62.6c7.4,0,13.3,6,13.3,13.3v3.3
					C133.5,256.4,127.5,262.4,120.2,262.4z M57.6,235.6c-5.6,0-10.2,4.6-10.2,10.2v3.3c0,5.6,4.6,10.2,10.2,10.2h62.6
					c5.6,0,10.2-4.6,10.2-10.2v-3.3c0-5.6-4.6-10.2-10.2-10.2H57.6z"/>
			</g>
			<g>
				<path class="st0" d="M131.9,249.1c0,6.4-5.3,11.8-11.8,11.8H57.6c-6.4,0-11.8-5.3-11.8-11.8v-3.3c0-6.4,5.3-11.8,11.8-11.8h62.6
					c6.4,0,11.8,5.3,11.8,11.8L131.9,249.1L131.9,249.1z"/>
				<path class="st2" d="M120.2,234h-9.4c6.4,0,11.8,5.3,11.8,11.8v3.3c0,6.4-5.3,11.8-11.8,11.8h9.4c6.4,0,11.8-5.3,11.8-11.8v-3.3
					C131.9,239.3,126.7,234,120.2,234z"/>
				<path class="st1" d="M120.2,262.4H57.6c-7.4,0-13.3-6-13.3-13.3v-3.3c0-7.4,6-13.3,13.3-13.3h62.6c7.4,0,13.3,6,13.3,13.3v3.3
					C133.5,256.4,127.5,262.4,120.2,262.4z M57.6,235.6c-5.6,0-10.2,4.6-10.2,10.2v3.3c0,5.6,4.6,10.2,10.2,10.2h62.6
					c5.6,0,10.2-4.6,10.2-10.2v-3.3c0-5.6-4.6-10.2-10.2-10.2H57.6z"/>
			</g>
		</g>
		<g>
			<g>
				<path class="st0" d="M139.8,231.5c0,6.4-5.3,11.8-11.8,11.8H49.8c-6.4,0-11.8-5.3-11.8-11.8v-3.3c0-6.4,5.3-11.8,11.8-11.8H128
					c6.4,0,11.8,5.3,11.8,11.8L139.8,231.5L139.8,231.5z"/>
				<path class="st1" d="M128,244.8H49.8c-7.4,0-13.3-6-13.3-13.3v-3.3c0-7.4,6-13.3,13.3-13.3H128c7.4,0,13.3,6,13.3,13.3v3.3
					C141.4,238.8,135.4,244.8,128,244.8z M49.8,218c-5.6,0-10.2,4.6-10.2,10.2v3.3c0,5.6,4.6,10.2,10.2,10.2H128
					c5.6,0,10.2-4.6,10.2-10.2v-3.3c0-5.6-4.6-10.2-10.2-10.2H49.8z"/>
			</g>
			<g>
				<path class="st0" d="M139.8,231.5c0,6.4-5.3,11.8-11.8,11.8H49.8c-6.4,0-11.8-5.3-11.8-11.8v-3.3c0-6.4,5.3-11.8,11.8-11.8H128
					c6.4,0,11.8,5.3,11.8,11.8L139.8,231.5L139.8,231.5z"/>
				<path class="st2" d="M128,216.4h-9c6.4,0,11.8,5.3,11.8,11.8v3.3c0,6.4-5.3,11.8-11.8,11.8h9c6.4,0,11.8-5.3,11.8-11.8v-3.3
					C139.8,221.7,134.5,216.4,128,216.4z"/>
				<path class="st1" d="M128,244.8H49.8c-7.4,0-13.3-6-13.3-13.3v-3.3c0-7.4,6-13.3,13.3-13.3H128c7.4,0,13.3,6,13.3,13.3v3.3
					C141.4,238.8,135.4,244.8,128,244.8z M49.8,218c-5.6,0-10.2,4.6-10.2,10.2v3.3c0,5.6,4.6,10.2,10.2,10.2H128
					c5.6,0,10.2-4.6,10.2-10.2v-3.3c0-5.6-4.6-10.2-10.2-10.2H49.8z"/>
			</g>
		</g>
		<g>
			<g>
				<path class="st0" d="M141.5,210.4c0,6.4-5.3,11.8-11.8,11.8H48c-6.4,0-11.8-5.3-11.8-11.8v-3.3c0-6.4,5.3-11.8,11.8-11.8h81.6
					c6.4,0,11.8,5.3,11.8,11.8L141.5,210.4L141.5,210.4z"/>
				<path class="st1" d="M129.7,223.8H48c-7.4,0-13.3-6-13.3-13.3v-3.3c0-7.4,6-13.3,13.3-13.3h81.6c7.4,0,13.3,6,13.3,13.3v3.3
					C143.1,217.8,137.1,223.8,129.7,223.8z M48,196.9c-5.6,0-10.2,4.6-10.2,10.2v3.3c0,5.6,4.6,10.2,10.2,10.2h81.6
					c5.6,0,10.2-4.6,10.2-10.2v-3.3c0-5.6-4.6-10.2-10.2-10.2C129.7,196.9,48,196.9,48,196.9z"/>
			</g>
			<g>
				<path class="st0" d="M141.5,210.4c0,6.4-5.3,11.8-11.8,11.8H48c-6.4,0-11.8-5.3-11.8-11.8v-3.3c0-6.4,5.3-11.8,11.8-11.8h81.6
					c6.4,0,11.8,5.3,11.8,11.8L141.5,210.4L141.5,210.4z"/>
				<path class="st2" d="M129.7,195.4h-9.5c6.4,0,11.8,5.3,11.8,11.8v3.3c0,6.4-5.3,11.8-11.8,11.8h9.5c6.4,0,11.8-5.3,11.8-11.8
					v-3.3C141.5,200.7,136.2,195.4,129.7,195.4z"/>
				<path class="st1" d="M129.7,223.8H48c-7.4,0-13.3-6-13.3-13.3v-3.3c0-7.4,6-13.3,13.3-13.3h81.6c7.4,0,13.3,6,13.3,13.3v3.3
					C143.1,217.8,137.1,223.8,129.7,223.8z M48,196.9c-5.6,0-10.2,4.6-10.2,10.2v3.3c0,5.6,4.6,10.2,10.2,10.2h81.6
					c5.6,0,10.2-4.6,10.2-10.2v-3.3c0-5.6-4.6-10.2-10.2-10.2C129.7,196.9,48,196.9,48,196.9z"/>
			</g>
		</g>
		<g>
			<g>
				<path class="st0" d="M136.7,190.1c0,6.4-5.3,11.8-11.8,11.8H52.8c-6.4,0-11.8-5.3-11.8-11.8v-3.3c0-6.4,5.3-11.8,11.8-11.8h72.1
					c6.4,0,11.8,5.3,11.8,11.8V190.1L136.7,190.1z"/>
				<path class="st1" d="M124.9,203.5H52.8c-7.4,0-13.3-6-13.3-13.3v-3.3c0-7.4,6-13.3,13.3-13.3h72.1c7.4,0,13.3,6,13.3,13.3v3.3
					C138.3,197.5,132.3,203.5,124.9,203.5z M52.8,176.6c-5.6,0-10.2,4.6-10.2,10.2v3.3c0,5.6,4.6,10.2,10.2,10.2h72.1
					c5.6,0,10.2-4.6,10.2-10.2v-3.3c0-5.6-4.6-10.2-10.2-10.2H52.8z"/>
			</g>
			<g>
				<path class="st0" d="M136.7,190.1c0,6.4-5.3,11.8-11.8,11.8H52.8c-6.4,0-11.8-5.3-11.8-11.8v-3.3c0-6.4,5.3-11.8,11.8-11.8h72.1
					c6.4,0,11.8,5.3,11.8,11.8V190.1L136.7,190.1z"/>
				<path class="st2" d="M124.9,175h-8.8c6.4,0,11.8,5.3,11.8,11.8v3.3c0,6.4-5.3,11.8-11.8,11.8h8.8c6.4,0,11.8-5.3,11.8-11.8v-3.3
					C136.7,180.3,131.4,175,124.9,175z"/>
				<path class="st1" d="M124.9,203.5H52.8c-7.4,0-13.3-6-13.3-13.3v-3.3c0-7.4,6-13.3,13.3-13.3h72.1c7.4,0,13.3,6,13.3,13.3v3.3
					C138.3,197.5,132.3,203.5,124.9,203.5z M52.8,176.6c-5.6,0-10.2,4.6-10.2,10.2v3.3c0,5.6,4.6,10.2,10.2,10.2h72.1
					c5.6,0,10.2-4.6,10.2-10.2v-3.3c0-5.6-4.6-10.2-10.2-10.2H52.8z"/>
			</g>
		</g>
		<g>
			<g>
				<path class="st0" d="M126.3,169.9c0,6.4-5.3,11.8-11.8,11.8H63.2c-6.4,0-11.8-5.3-11.8-11.8v-0.2c0-6.4,5.3-11.8,11.8-11.8h51.3
					c6.4,0,11.8,5.3,11.8,11.8V169.9z"/>
				<path class="st1" d="M114.6,183.2H63.2c-7.4,0-13.3-6-13.3-13.3v-0.2c0-7.4,6-13.3,13.3-13.3h51.3c7.4,0,13.3,6,13.3,13.3v0.2
					C127.9,177.2,121.9,183.2,114.6,183.2z M63.2,159.4c-5.6,0-10.2,4.6-10.2,10.2v0.2c0,5.6,4.6,10.2,10.2,10.2h51.3
					c5.6,0,10.2-4.6,10.2-10.2v-0.2c0-5.6-4.6-10.2-10.2-10.2H63.2z"/>
			</g>
			<g>
				<path class="st0" d="M126.3,169.9c0,6.4-5.3,11.8-11.8,11.8H63.2c-6.4,0-11.8-5.3-11.8-11.8v-0.2c0-6.4,5.3-11.8,11.8-11.8h51.3
					c6.4,0,11.8,5.3,11.8,11.8V169.9z"/>
				<path class="st2" d="M114.6,157.8h-8.3c6.4,0,11.8,5.3,11.8,11.8v0.2c0,6.4-5.3,11.8-11.8,11.8h8.3c6.4,0,11.8-5.3,11.8-11.8
					v-0.2C126.3,163.1,121,157.8,114.6,157.8z"/>
				<path class="st1" d="M114.6,183.2H63.2c-7.4,0-13.3-6-13.3-13.3v-0.2c0-7.4,6-13.3,13.3-13.3h51.3c7.4,0,13.3,6,13.3,13.3v0.2
					C127.9,177.2,121.9,183.2,114.6,183.2z M63.2,159.4c-5.6,0-10.2,4.6-10.2,10.2v0.2c0,5.6,4.6,10.2,10.2,10.2h51.3
					c5.6,0,10.2-4.6,10.2-10.2v-0.2c0-5.6-4.6-10.2-10.2-10.2H63.2z"/>
			</g>
		</g>
		<g>
			<g>
				<path class="st0" d="M118,154.9c0,4.7-5.3,8.6-11.8,8.6H71.6c-6.4,0-11.8-3.9-11.8-8.6c0-4.7,5.3-8.6,11.8-8.6h34.6
					C112.7,146.3,118,150.2,118,154.9z"/>
				<path class="st1" d="M106.2,165.1H71.6c-7.4,0-13.3-4.6-13.3-10.2c0-5.6,6-10.2,13.3-10.2h34.6c7.4,0,13.3,4.6,13.3,10.2
					C119.6,160.5,113.6,165.1,106.2,165.1z M71.6,147.9c-5.5,0-10.2,3.2-10.2,7c0,3.8,4.7,7,10.2,7h34.6c5.5,0,10.2-3.2,10.2-7
					c0-3.8-4.7-7-10.2-7H71.6z"/>
			</g>
			<g>
				<path class="st0" d="M118,154.9c0,4.7-5.3,8.6-11.8,8.6H71.6c-6.4,0-11.8-3.9-11.8-8.6c0-4.7,5.3-8.6,11.8-8.6h34.6
					C112.7,146.3,118,150.2,118,154.9z"/>
				<path class="st2" d="M106.2,146.3h-8.3c6.4,0,11.8,3.9,11.8,8.6c0,4.7-5.3,8.6-11.8,8.6h8.3c6.4,0,11.8-3.9,11.8-8.6
					C118,150.2,112.7,146.3,106.2,146.3z"/>
				<path class="st1" d="M106.2,165.1H71.6c-7.4,0-13.3-4.6-13.3-10.2c0-5.6,6-10.2,13.3-10.2h34.6c7.4,0,13.3,4.6,13.3,10.2
					C119.6,160.5,113.6,165.1,106.2,165.1z M71.6,147.9c-5.5,0-10.2,3.2-10.2,7c0,3.8,4.7,7,10.2,7h34.6c5.5,0,10.2-3.2,10.2-7
					c0-3.8-4.7-7-10.2-7H71.6z"/>
			</g>
		</g>
		<g>
			<circle class="st1" cx="88.9" cy="224.8" r="26.1"/>
			<path class="st1" d="M88.9,252.5c-15.2,0-27.7-12.4-27.7-27.7s12.4-27.7,27.7-27.7s27.7,12.4,27.7,27.7S104.1,252.5,88.9,252.5z
				 M88.9,200.3c-13.5,0-24.5,11-24.5,24.5c0,13.5,11,24.5,24.5,24.5c13.5,0,24.5-11,24.5-24.5S102.4,200.3,88.9,200.3z"/>
		</g>
	</g>
	<g>
		<path class="st2" d="M90.3,102.9c-2.4,1.3-5.3,1.3-7.8,0.1l-8.1-4c-8.7,0.7-17.2-2.2-23.6-8.1C49.8,90,48.9,89,48,88
			c-1.4,3.1-3.8,7.4-11.2,11.3c-9.1,4.8-19.8,2-25.5-6.5C6.1,85,6.2,72.6,16.4,64.2c1.4-1.2,3-2.2,4.6-3.1
			c7.3-3.8,15.4-3.9,21.2-3.1c0.5-1.5,1.1-2.9,1.8-4.3c-0.2-0.6-0.4-1.2-0.5-1.9l-3-0.7c-4.6-1.1-7.5-5.7-6.4-10.4
			c0.6-2.4,2.2-4.5,4.4-5.7c1.8-1,3.9-1.2,6-0.8l3.7,0.9c1.4-1.4,2.9-2.6,4.7-3.5c1.4-0.7,2.9-1.3,4.5-1.6l0.7-3
			c0.6-2.4,2.2-4.5,4.4-5.7c1.8-1,3.9-1.2,6-0.8c4.6,1.1,7.5,5.7,6.4,10.4L74,34.6c0.7,0.7,1.4,1.5,2,2.3c1.6,0.2,3.1,0.5,4.6,1
			c2.7-5.2,7.3-11.8,14.7-15.7c1.7-0.9,3.4-1.6,5.2-2.1c12.7-3.6,22.9,3.3,26.4,12.1c3.8,9.5-0.1,19.9-9.2,24.7
			c-7.4,3.9-12.3,3.4-15.6,2.8c0.3,1.3,0.6,2.6,0.8,3.9c1.2,8.6-1.3,17.3-6.8,24l-1.4,8.9C94.4,99.3,92.7,101.6,90.3,102.9z"/>
		<g>
			<ellipse transform="matrix(0.886 -0.4637 0.4637 0.886 -15.1376 33.9454)" class="st3" cx="61.5" cy="47.8" rx="9.6" ry="9.6"/>
			<polygon class="st4" points="82.5,88 76,90.2 86.3,95.3 88,83.9 			"/>
			<path class="st3" d="M61.5,47.8c-8.7,4.6-13.2,14-11.9,23.2l37.7-19.8C80.5,45,70.2,43.3,61.5,47.8z"/>
			<path class="st3" d="M82.5,88c8.7-4.6,13.2-14,11.9-23.2L56.7,84.6C63.5,90.8,73.8,92.5,82.5,88z"/>
			<path class="st4" d="M87.3,51.2L49.6,71c0.3,2.5,1.1,5,2.4,7.4c1.2,2.4,2.9,4.4,4.8,6.2l37.6-19.8c-0.3-2.5-1.1-5-2.4-7.4
				C90.8,55,89.2,53,87.3,51.2z"/>
			<g>
				<path class="st5" d="M85.6,55.3c-3.1,1.7,1.7-22.4,17.3-26.8c15.5-4.4,23,14.5,10.9,20.8S103.5,45.4,85.6,55.3z"/>
				<path class="st5" d="M53.8,71.9c3.2-1.6-19.3-11.3-31.8-1C9.5,81.1,20.8,98,32.9,91.7C44.9,85.4,35.5,81,53.8,71.9z"/>
			</g>
			<line class="st6" x1="52.3" y1="45" x2="42.6" y2="42.7"/>
			<line class="st6" x1="64.4" y1="38.6" x2="66.6" y2="29"/>
		</g>
	</g>
	<g>
		<path class="st2" d="M210.8,86.4c-2.7-0.5-5-2.3-6.2-4.7l-3.9-8.1c-7.2-4.8-12.1-12.3-13.6-20.9c-0.2-1.3-0.4-2.6-0.4-3.9
			c-3,1.5-7.5,3.5-15.8,2C160.8,48.9,154,40.2,154.8,30c0.7-9.4,8.4-19,21.6-19.4c1.8,0,3.7,0.1,5.5,0.4c8.1,1.5,14.6,6.5,18.7,10.6
			c1.3-0.9,2.7-1.6,4.1-2.3c0.2-0.6,0.5-1.2,0.7-1.8l-1.9-2.4c-3-3.7-2.4-9.1,1.3-12.1c2-1.6,4.5-2.2,7-1.8c2,0.4,3.9,1.5,5.2,3.1
			l2.4,3c1.9-0.3,3.9-0.2,5.9,0.1c1.6,0.3,3.1,0.8,4.5,1.5l2.4-1.9c2-1.6,4.5-2.2,7-1.8c2,0.4,3.9,1.5,5.2,3.1
			c3,3.7,2.4,9.1-1.3,12.1l-3,2.4c0.1,1,0.2,2,0.2,3c1.1,1.1,2.1,2.3,3,3.6c5.3-2.4,13.1-4.8,21.2-3.3c1.8,0.3,3.6,0.9,5.3,1.6
			c12.3,5,16,16.7,13.4,25.8c-2.9,9.8-12.3,15.6-22.4,13.8c-8.2-1.5-11.8-4.9-14-7.4c-0.5,1.2-1.1,2.4-1.8,3.5
			c-4.4,7.5-11.6,12.8-20.1,14.8l-6.6,6.2C216.3,86.1,213.5,86.9,210.8,86.4z"/>
		<g>
			
				<ellipse transform="matrix(0.1802 -0.9836 0.9836 0.1802 157.1373 239.203)" class="st3" cx="222.1" cy="25.3" rx="9.6" ry="9.6"/>
			<polygon class="st4" points="213.9,69.9 207.4,67.6 212.4,78 220.8,70.1 			"/>
			<path class="st3" d="M222,25.3c-9.7-1.8-19,2.9-23.6,10.9l41.9,7.7C238.8,34.7,231.7,27.1,222,25.3z"/>
			<path class="st3" d="M213.9,69.9c9.7,1.8,19-2.9,23.6-10.9l-41.9-7.7C197.2,60.4,204.2,68.1,213.9,69.9z"/>
			<path class="st4" d="M240.3,43.9l-41.9-7.7c-1.3,2.2-2.2,4.6-2.7,7.3c-0.5,2.6-0.5,5.3,0,7.8l41.9,7.7c1.3-2.2,2.2-4.6,2.7-7.3
				C240.7,49,240.7,46.4,240.3,43.9z"/>
			<g>
				<path class="st5" d="M236.5,46c-3.5-0.6,15.1-16.5,30.1-10.4s9.2,25.6-4.2,23.1C249,56.2,256.7,49.2,236.5,46z"/>
				<path class="st5" d="M201.2,39.6c3.5,0.7-8.3-20.8-24.4-20.4c-16.1,0.4-17.6,20.6-4.2,23.1C185.9,44.7,181.2,35.4,201.2,39.6z"
					/>
			</g>
			<line class="st6" x1="216.6" y1="17.4" x2="210.4" y2="9.7"/>
			<line class="st6" x1="230" y1="19.8" x2="237.7" y2="13.6"/>
		</g>
	</g>
	<g>
		<path class="st2" d="M162.1,155c-2.7,0.4-5.5-0.5-7.4-2.4l-6.4-6.4c-8.4-2.2-15.5-7.6-19.7-15.2c-0.6-1.2-1.2-2.3-1.7-3.5
			c-2.3,2.4-5.9,5.8-14.3,7.1c-10.2,1.5-19.5-4.4-22.1-14.3c-2.4-9.1,1.7-20.7,14-25.4c1.7-0.6,3.5-1.1,5.3-1.4
			c8.1-1.3,15.9,1.3,21.2,3.8c0.9-1.3,2-2.4,3.1-3.5c0-0.6,0.1-1.3,0.1-1.9l-2.6-1.6c-4.1-2.5-5.3-7.8-2.8-11.9c1.4-2.2,3.5-3.6,6-4
			c2-0.3,4.2,0.1,5.9,1.2l3.3,2c1.7-0.9,3.6-1.5,5.6-1.9c1.6-0.2,3.2-0.3,4.7-0.1l1.6-2.6c1.4-2.2,3.5-3.6,6-4
			c2-0.3,4.2,0.1,5.9,1.2c4.1,2.5,5.3,7.8,2.8,11.9l-2,3.3c0.4,0.9,0.8,1.8,1.2,2.8c1.4,0.7,2.7,1.5,4,2.4c4.2-4,10.8-8.9,18.9-10.1
			c1.8-0.3,3.7-0.3,5.5-0.2c13.3,0.7,20.6,10.5,21.2,19.9c0.5,10.2-6.5,18.8-16.6,20.4c-8.2,1.3-12.8-0.7-15.7-2.4
			c-0.1,1.3-0.2,2.6-0.5,3.9c-1.7,8.5-6.7,15.9-14.1,20.6l-4.2,8C167.2,152.9,164.8,154.6,162.1,155z"/>
		<g>
			
				<ellipse transform="matrix(0.9879 -0.1548 0.1548 0.9879 -12.6645 24.7447)" class="st3" cx="152.5" cy="93.7" rx="9.6" ry="9.6"/>
			<polygon class="st4" points="159.6,138.4 152.7,138.4 160.9,146.6 166.2,136.3 			"/>
			<path class="st3" d="M152.5,93.7c-9.8,1.5-17,9-18.7,18.1l42.1-6.6C171.5,97,162.3,92.2,152.5,93.7z"/>
			<path class="st3" d="M159.6,138.4c9.8-1.5,17-9,18.7-18.1l-42.1,6.6C140.7,135,149.8,139.9,159.6,138.4z"/>
			<path class="st4" d="M175.9,105.2l-42.1,6.6c-0.5,2.5-0.6,5.1-0.1,7.8c0.4,2.6,1.3,5.2,2.6,7.4l42.1-6.6c0.5-2.5,0.6-5.1,0.1-7.8
				C178,109.8,177.1,107.4,175.9,105.2z"/>
			<g>
				<path class="st5" d="M173,108.4c-3.5,0.6,8.8-20.6,25-19.8s17.1,21.1,3.7,23.2C188.2,113.9,193.2,104.8,173,108.4z"/>
				<path class="st5" d="M137.6,114c3.5-0.5-14.7-16.9-29.8-11.2c-15.1,5.7-9.8,25.3,3.7,23.2C124.8,123.9,117.3,116.7,137.6,114z"
					/>
			</g>
			<line class="st6" x1="144.8" y1="88" x2="136.4" y2="82.8"/>
			<line class="st6" x1="158.2" y1="85.8" x2="163.5" y2="77.4"/>
		</g>
	</g>
</g>
<rect x="288.4" y="24.9" class="st7" width="548.3" height="252.9"/>
<text transform="matrix(1 0 0 1 288.3779 48.1597)"><tspan x="0" y="0" class="st8 st9">Swarm Session is running</tspan><tspan x="0" y="74.4" class="st10 st9">You</tspan><tspan x="52.5" y="74.4" class="st10 st9 st11"> </tspan><tspan x="63.4" y="74.4" class="st10 st9">can&apos;t</tspan><tspan x="127.5" y="74.4" class="st10 st9 st11"> </tspan><tspan x="138.4" y="74.4" class="st10 st9">create</tspan><tspan x="221.9" y="74.4" class="st10 st9 st11"> </tspan><tspan x="232.8" y="74.4" class="st10 st9">a</tspan><tspan x="249.1" y="74.4" class="st10 st9 st11"> </tspan><tspan x="260" y="74.4" class="st10 st9">new</tspan><tspan x="316.1" y="74.4" class="st10 st9 st11"> </tspan><tspan x="327" y="74.4" class="st10 st9">swarm</tspan><tspan x="420.4" y="74.4" class="st10 st9 st11"> </tspan><tspan x="431.3" y="74.4" class="st10 st9">until</tspan><tspan x="487.8" y="74.4" class="st10 st9 st11"> </tspan><tspan x="498.7" y="74.4" class="st10 st9">end </tspan><tspan x="0" y="111.6" class="st10 st9">the last execution.</tspan><tspan x="0" y="174" class="st12 st10 st13">Please review the swarm execution or end him.</tspan></text>
<g>
	<g>
		<g>
			<g>
				<g>
					<g>
						<path class="st7" d="M187.7,137.4c0.9,3.8,1.6,7.6,2,11.5l14.9-1.6c-0.5-4.5-1.3-9-2.3-13.5L187.7,137.4z"/>
					</g>
					<path class="st14" d="M197.3,144.7l-1.5,0.2c0.1,0.8,0.2,1.5,0.3,2.3l1.5-0.2C197.5,146.3,197.4,145.5,197.3,144.7z"/>
					<path class="st14" d="M196.6,140.6l-1.5,0.3c0.1,0.8,0.3,1.5,0.4,2.3l1.5-0.2C196.9,142.1,196.8,141.3,196.6,140.6z"/>
					<path class="st14" d="M195.8,136.4l-1.5,0.3c0.2,0.8,0.3,1.5,0.5,2.3l1.5-0.3C196.1,138,195.9,137.2,195.8,136.4z"/>
				</g>
			</g>
			<g>
				<g>
					<g>
						<path class="st7" d="M189.7,148.9c0.4,3.9,0.6,7.8,0.5,11.7l15,0.3c0.1-4.6-0.1-9.1-0.6-13.6L189.7,148.9z"/>
					</g>
					<polygon class="st14" points="198.3,157.4 196.8,157.5 196.8,159.8 198.3,159.8 					"/>
					<polygon class="st14" points="198.2,153.2 196.7,153.3 196.7,155.6 198.2,155.6 					"/>
					<polygon class="st14" points="197.8,149 196.3,149.1 196.5,151.5 198,151.3 					"/>
				</g>
			</g>
			<g>
				<g>
					<g>
						<path class="st7" d="M190.3,160.6c-0.1,3.9-0.4,7.8-1.1,11.6l14.8,2.4c0.8-4.5,1.1-9.1,1.3-13.7L190.3,160.6z"/>
					</g>
					<path class="st14" d="M197.6,170.2l-1.5-0.2c-0.1,0.8-0.2,1.5-0.3,2.3l1.5,0.2C197.4,171.7,197.5,170.9,197.6,170.2z"/>
					<path class="st14" d="M198,165.9l-1.5-0.1c0,0.8-0.2,1.5-0.2,2.3l1.5,0.2C197.9,167.5,198,166.7,198,165.9z"/>
					<polygon class="st14" points="198.3,161.7 196.8,161.7 196.6,164 198.1,164.1 					"/>
				</g>
			</g>
			<g>
				<g>
					<g>
						<path class="st7" d="M189.2,172.1l-0.5,2.9l-0.7,2.8c-0.4,1.9-1,3.7-1.6,5.5l14.3,4.6c0.7-2.2,1.4-4.4,1.9-6.7l0.8-3.4
							c0.2-1.1,0.4-2.3,0.6-3.4L189.2,172.1z"/>
					</g>
					<polygon class="st14" points="195.1,182.7 193.7,182.2 193,184.5 194.4,184.9 					"/>
					<polygon class="st14" points="196.1,178.5 194.7,178.2 194.1,180.5 195.6,180.8 					"/>
					<path class="st14" d="M197,174.4l-1.5-0.3c-0.1,0.8-0.2,1.5-0.4,2.3l1.5,0.3C196.7,175.9,196.8,175.2,197,174.4z"/>
				</g>
			</g>
			<g>
				<g>
					<g>
						<path class="st7" d="M186.5,183.3c-0.1,0.5-0.3,0.9-0.4,1.4l-0.5,1.3l-1,2.7c-0.3,0.9-0.8,1.7-1.2,2.6l-1.2,2.6l13.3,6.9
							l1.5-3.1c0.5-1.1,1-2.1,1.4-3.2l1.3-3.2l0.6-1.6c0.2-0.5,0.3-1.1,0.5-1.7L186.5,183.3z"/>
					</g>
					<polygon class="st14" points="190.7,194.6 189.3,194 188.3,196.1 189.7,196.7 					"/>
					<path class="st14" d="M192.4,190.7l-1.4-0.6c-0.3,0.7-0.5,1.5-0.9,2.2l1.4,0.6C191.8,192.2,192.1,191.4,192.4,190.7z"/>
					<path class="st14" d="M193.9,186.7l-1.4-0.5c-0.2,0.7-0.5,1.4-0.8,2.2l1.4,0.5C193.3,188.2,193.6,187.5,193.9,186.7z"/>
				</g>
			</g>
			<g>
				<g>
					<g>
						<path class="st7" d="M182.1,193.9c-0.9,1.7-1.9,3.3-2.8,5c-1,1.6-2.1,3.2-3.2,4.7l12,9c1.4-1.8,2.7-3.8,3.9-5.7
							c1.2-2,2.4-4,3.4-6L182.1,193.9z"/>
					</g>
					<path class="st14" d="M184.4,205.7l-1.2-0.8c-0.4,0.6-0.9,1.3-1.3,1.9l1.2,0.9C183.5,207,184,206.3,184.4,205.7z"/>
					<path class="st14" d="M186.7,202.1l-1.3-0.8c-0.4,0.7-0.8,1.4-1.2,2l1.3,0.8C185.9,203.5,186.3,202.8,186.7,202.1z"/>
					<polygon class="st14" points="188.8,198.4 187.5,197.7 186.3,199.8 187.6,200.5 					"/>
				</g>
			</g>
			<g>
				<g>
					<g>
						<path class="st7" d="M176,203.6c-2.3,3.1-4.8,5.9-7.6,8.6l10.4,10.8c3.3-3.2,6.4-6.7,9.2-10.4L176,203.6z"/>
					</g>
					<polygon class="st14" points="176.4,215.6 175.3,214.6 173.7,216.2 174.7,217.3 					"/>
					<polygon class="st14" points="179.2,212.5 178.1,211.5 176.6,213.2 177.7,214.2 					"/>
					<polygon class="st14" points="181.9,209.2 180.7,208.3 179.3,210.1 180.4,211 					"/>
				</g>
			</g>
			<g>
				<g>
					<g>
						<path class="st7" d="M168.5,212.2c-2.8,2.7-5.7,5.1-8.9,7.3l8.6,12.3c3.8-2.6,7.3-5.6,10.7-8.8L168.5,212.2z"/>
					</g>
					<path class="st14" d="M166.9,224.1l-0.9-1.2c-0.6,0.5-1.2,0.9-1.9,1.4l0.9,1.2C165.6,225.1,166.2,224.6,166.9,224.1z"/>
					<path class="st14" d="M170.2,221.4l-1-1.1c-0.6,0.5-1.2,1-1.8,1.5l0.9,1.2C169,222.4,169.6,221.9,170.2,221.4z"/>
					<path class="st14" d="M173.3,218.6l-1-1.1c-0.6,0.5-1.1,1.1-1.7,1.6l1,1.1C172.2,219.7,172.8,219.2,173.3,218.6z"/>
				</g>
			</g>
		</g>
	</g>
</g>
</svg>
