<?xml version="1.0" encoding="utf-8"?>
<!-- Generator: Adobe Illustrator 21.0.2, SVG Export Plug-In . SVG Version: 6.00 Build 0)  -->
<svg version="1.1" id="Layer_1" xmlns="http://www.w3.org/2000/svg" xmlns:xlink="http://www.w3.org/1999/xlink" x="0px" y="0px"
	 viewBox="0 0 878.3 300" style="enable-background:new 0 0 878.3 300;" xml:space="preserve">
<style type="text/css">
	.st0{fill:#FBB040;}
	.st1{fill:#231F20;}
	.st2{fill:#FFFFFF;}
	.st3{fill:#F9ED32;stroke:#231F20;stroke-width:3.8209;stroke-linecap:round;stroke-linejoin:round;stroke-miterlimit:10;}
	.st4{fill:#231F20;stroke:#231F20;stroke-width:3.8209;stroke-linecap:round;stroke-linejoin:round;stroke-miterlimit:10;}
	.st5{fill:#E0E0E0;stroke:#231F20;stroke-width:3.8209;stroke-linecap:round;stroke-linejoin:round;stroke-miterlimit:10;}
	.st6{fill:none;stroke:#231F20;stroke-width:3.8209;stroke-linecap:round;stroke-linejoin:round;stroke-miterlimit:10;}
	.st7{fill:none;}
	.st8{font-family:'Roboto-Regular';}
	.st9{font-size:31px;}
	.st10{enable-background:new    ;}
	.st11{font-family:'Roboto-Thin';}
	.st12{font-size:28px;}
	.st13{letter-spacing:2;}
</style>
<g>
	<g>
		<g>
			<g>
				<path class="st0" d="M111.6,267.4c0,6.4-5.3,11.8-11.8,11.8H55.9c-6.4,0-11.8-5.3-11.8-11.8v-3.3c0-6.4,5.3-11.8,11.8-11.8h43.9
					c6.4,0,11.8,5.3,11.8,11.8C111.6,264.1,111.6,267.4,111.6,267.4z"/>
				<path class="st1" d="M99.9,280.6h-44c-7.4,0-13.3-6-13.3-13.3v-3.3c0-7.4,6-13.3,13.3-13.3h43.9c7.4,0,13.3,6,13.3,13.3v3.3
					C113.2,274.8,107.2,280.6,99.9,280.6z M55.9,253.9c-5.6,0-10.2,4.6-10.2,10.2v3.3c0,5.6,4.6,10.2,10.2,10.2h43.9
					c5.6,0,10.2-4.6,10.2-10.2v-3.3c0-5.6-4.6-10.2-10.2-10.2L55.9,253.9L55.9,253.9z"/>
			</g>
			<g>
				<path class="st0" d="M111.6,267.4c0,6.4-5.3,11.8-11.8,11.8H55.9c-6.4,0-11.8-5.3-11.8-11.8v-3.3c0-6.4,5.3-11.8,11.8-11.8h43.9
					c6.4,0,11.8,5.3,11.8,11.8C111.6,264.1,111.6,267.4,111.6,267.4z"/>
				<path class="st2" d="M99.9,252.2h-9.3c6.4,0,11.8,5.3,11.8,11.8v3.3c0,6.4-5.3,11.8-11.8,11.8h9.3c6.4,0,11.8-5.3,11.8-11.8V264
					C111.6,257.5,106.4,252.2,99.9,252.2z"/>
				<path class="st1" d="M99.9,280.6h-44c-7.4,0-13.3-6-13.3-13.3v-3.3c0-7.4,6-13.3,13.3-13.3h43.9c7.4,0,13.3,6,13.3,13.3v3.3
					C113.2,274.8,107.2,280.6,99.9,280.6z M55.9,253.9c-5.6,0-10.2,4.6-10.2,10.2v3.3c0,5.6,4.6,10.2,10.2,10.2h43.9
					c5.6,0,10.2-4.6,10.2-10.2v-3.3c0-5.6-4.6-10.2-10.2-10.2L55.9,253.9L55.9,253.9z"/>
			</g>
		</g>
		<g>
			<g>
				<path class="st0" d="M120.9,256.4c0,6.4-5.3,11.8-11.8,11.8H46.6c-6.4,0-11.8-5.3-11.8-11.8V253c0-6.4,5.3-11.8,11.8-11.8h62.6
					c6.4,0,11.8,5.3,11.8,11.8L120.9,256.4L120.9,256.4z"/>
				<path class="st1" d="M109.2,269.6H46.6c-7.4,0-13.3-6-13.3-13.3V253c0-7.4,6-13.3,13.3-13.3h62.6c7.4,0,13.3,6,13.3,13.3v3.3
					C122.5,263.6,116.5,269.6,109.2,269.6z M46.6,242.9c-5.6,0-10.2,4.6-10.2,10.2v3.3c0,5.6,4.6,10.2,10.2,10.2h62.6
					c5.6,0,10.2-4.6,10.2-10.2v-3.3c0-5.6-4.6-10.2-10.2-10.2L46.6,242.9L46.6,242.9z"/>
			</g>
			<g>
				<path class="st0" d="M120.9,256.4c0,6.4-5.3,11.8-11.8,11.8H46.6c-6.4,0-11.8-5.3-11.8-11.8V253c0-6.4,5.3-11.8,11.8-11.8h62.6
					c6.4,0,11.8,5.3,11.8,11.8L120.9,256.4L120.9,256.4z"/>
				<path class="st2" d="M109.2,241.2h-9.4c6.4,0,11.8,5.3,11.8,11.8v3.3c0,6.4-5.3,11.8-11.8,11.8h9.4c6.4,0,11.8-5.3,11.8-11.8
					V253C120.9,246.6,115.7,241.2,109.2,241.2z"/>
				<path class="st1" d="M109.2,269.6H46.6c-7.4,0-13.3-6-13.3-13.3V253c0-7.4,6-13.3,13.3-13.3h62.6c7.4,0,13.3,6,13.3,13.3v3.3
					C122.5,263.6,116.5,269.6,109.2,269.6z M46.6,242.9c-5.6,0-10.2,4.6-10.2,10.2v3.3c0,5.6,4.6,10.2,10.2,10.2h62.6
					c5.6,0,10.2-4.6,10.2-10.2v-3.3c0-5.6-4.6-10.2-10.2-10.2L46.6,242.9L46.6,242.9z"/>
			</g>
		</g>
		<g>
			<g>
				<path class="st0" d="M128.8,238.8c0,6.4-5.3,11.8-11.8,11.8H38.8c-6.4,0-11.8-5.3-11.8-11.8v-3.3c0-6.4,5.3-11.8,11.8-11.8H117
					c6.4,0,11.8,5.3,11.8,11.8V238.8L128.8,238.8z"/>
				<path class="st1" d="M117,252.1H38.8c-7.4,0-13.3-6-13.3-13.3v-3.3c0-7.4,6-13.3,13.3-13.3H117c7.4,0,13.3,6,13.3,13.3v3.3
					C130.4,246.1,124.4,252.1,117,252.1z M38.8,225.2c-5.6,0-10.2,4.6-10.2,10.2v3.3c0,5.6,4.6,10.2,10.2,10.2H117
					c5.6,0,10.2-4.6,10.2-10.2v-3.3c0-5.6-4.6-10.2-10.2-10.2H38.8z"/>
			</g>
			<g>
				<path class="st0" d="M128.8,238.8c0,6.4-5.3,11.8-11.8,11.8H38.8c-6.4,0-11.8-5.3-11.8-11.8v-3.3c0-6.4,5.3-11.8,11.8-11.8H117
					c6.4,0,11.8,5.3,11.8,11.8V238.8L128.8,238.8z"/>
				<path class="st2" d="M117,223.6h-9c6.4,0,11.8,5.3,11.8,11.8v3.3c0,6.4-5.3,11.8-11.8,11.8h9c6.4,0,11.8-5.3,11.8-11.8v-3.3
					C128.8,228.9,123.5,223.6,117,223.6z"/>
				<path class="st1" d="M117,252.1H38.8c-7.4,0-13.3-6-13.3-13.3v-3.3c0-7.4,6-13.3,13.3-13.3H117c7.4,0,13.3,6,13.3,13.3v3.3
					C130.4,246.1,124.4,252.1,117,252.1z M38.8,225.2c-5.6,0-10.2,4.6-10.2,10.2v3.3c0,5.6,4.6,10.2,10.2,10.2H117
					c5.6,0,10.2-4.6,10.2-10.2v-3.3c0-5.6-4.6-10.2-10.2-10.2H38.8z"/>
			</g>
		</g>
		<g>
			<g>
				<path class="st0" d="M130.5,217.6c0,6.4-5.3,11.8-11.8,11.8H37c-6.4,0-11.8-5.3-11.8-11.8v-3.3c0-6.4,5.3-11.8,11.8-11.8h81.6
					c6.4,0,11.8,5.3,11.8,11.8L130.5,217.6L130.5,217.6z"/>
				<path class="st1" d="M118.7,231.1H37c-7.4,0-13.3-6-13.3-13.3v-3.3c0-7.4,6-13.3,13.3-13.3h81.6c7.4,0,13.3,6,13.3,13.3v3.3
					C132.1,225.1,126.1,231.1,118.7,231.1z M37,204.1c-5.6,0-10.2,4.6-10.2,10.2v3.3c0,5.6,4.6,10.2,10.2,10.2h81.6
					c5.6,0,10.2-4.6,10.2-10.2v-3.3c0-5.6-4.6-10.2-10.2-10.2C118.7,204.1,37,204.1,37,204.1z"/>
			</g>
			<g>
				<path class="st0" d="M130.5,217.6c0,6.4-5.3,11.8-11.8,11.8H37c-6.4,0-11.8-5.3-11.8-11.8v-3.3c0-6.4,5.3-11.8,11.8-11.8h81.6
					c6.4,0,11.8,5.3,11.8,11.8L130.5,217.6L130.5,217.6z"/>
				<path class="st2" d="M118.7,202.6h-9.5c6.4,0,11.8,5.3,11.8,11.8v3.3c0,6.4-5.3,11.8-11.8,11.8h9.5c6.4,0,11.8-5.3,11.8-11.8
					v-3.3C130.5,207.9,125.2,202.6,118.7,202.6z"/>
				<path class="st1" d="M118.7,231.1H37c-7.4,0-13.3-6-13.3-13.3v-3.3c0-7.4,6-13.3,13.3-13.3h81.6c7.4,0,13.3,6,13.3,13.3v3.3
					C132.1,225.1,126.1,231.1,118.7,231.1z M37,204.1c-5.6,0-10.2,4.6-10.2,10.2v3.3c0,5.6,4.6,10.2,10.2,10.2h81.6
					c5.6,0,10.2-4.6,10.2-10.2v-3.3c0-5.6-4.6-10.2-10.2-10.2C118.7,204.1,37,204.1,37,204.1z"/>
			</g>
		</g>
		<g>
			<g>
				<path class="st0" d="M125.7,197.4c0,6.4-5.3,11.8-11.8,11.8H41.8c-6.4,0-11.8-5.3-11.8-11.8v-3.3c0-6.4,5.3-11.8,11.8-11.8h72.1
					c6.4,0,11.8,5.3,11.8,11.8V197.4L125.7,197.4z"/>
				<path class="st1" d="M113.9,210.8H41.8c-7.4,0-13.3-6-13.3-13.3v-3.3c0-7.4,6-13.3,13.3-13.3h72.1c7.4,0,13.3,6,13.3,13.3v3.3
					C127.3,204.8,121.3,210.8,113.9,210.8z M41.8,183.9c-5.6,0-10.2,4.6-10.2,10.2v3.3c0,5.6,4.6,10.2,10.2,10.2h72.1
					c5.6,0,10.2-4.6,10.2-10.2v-3.3c0-5.6-4.6-10.2-10.2-10.2H41.8z"/>
			</g>
			<g>
				<path class="st0" d="M125.7,197.4c0,6.4-5.3,11.8-11.8,11.8H41.8c-6.4,0-11.8-5.3-11.8-11.8v-3.3c0-6.4,5.3-11.8,11.8-11.8h72.1
					c6.4,0,11.8,5.3,11.8,11.8V197.4L125.7,197.4z"/>
				<path class="st2" d="M113.9,182.2h-8.8c6.4,0,11.8,5.3,11.8,11.8v3.3c0,6.4-5.3,11.8-11.8,11.8h8.8c6.4,0,11.8-5.3,11.8-11.8
					v-3.3C125.7,187.6,120.4,182.2,113.9,182.2z"/>
				<path class="st1" d="M113.9,210.8H41.8c-7.4,0-13.3-6-13.3-13.3v-3.3c0-7.4,6-13.3,13.3-13.3h72.1c7.4,0,13.3,6,13.3,13.3v3.3
					C127.3,204.8,121.3,210.8,113.9,210.8z M41.8,183.9c-5.6,0-10.2,4.6-10.2,10.2v3.3c0,5.6,4.6,10.2,10.2,10.2h72.1
					c5.6,0,10.2-4.6,10.2-10.2v-3.3c0-5.6-4.6-10.2-10.2-10.2H41.8z"/>
			</g>
		</g>
		<g>
			<g>
				<path class="st0" d="M115.3,177.1c0,6.4-5.3,11.8-11.8,11.8H52.2c-6.4,0-11.8-5.3-11.8-11.8v-0.2c0-6.4,5.3-11.8,11.8-11.8h51.3
					c6.4,0,11.8,5.3,11.8,11.8V177.1z"/>
				<path class="st1" d="M103.6,190.4H52.2c-7.4,0-13.3-6-13.3-13.3v-0.2c0-7.4,6-13.3,13.3-13.3h51.3c7.4,0,13.3,6,13.3,13.3v0.2
					C116.9,184.4,110.9,190.4,103.6,190.4z M52.2,166.6c-5.6,0-10.2,4.6-10.2,10.2v0.2c0,5.6,4.6,10.2,10.2,10.2h51.3
					c5.6,0,10.2-4.6,10.2-10.2v-0.2c0-5.6-4.6-10.2-10.2-10.2H52.2z"/>
			</g>
			<g>
				<path class="st0" d="M115.3,177.1c0,6.4-5.3,11.8-11.8,11.8H52.2c-6.4,0-11.8-5.3-11.8-11.8v-0.2c0-6.4,5.3-11.8,11.8-11.8h51.3
					c6.4,0,11.8,5.3,11.8,11.8V177.1z"/>
				<path class="st2" d="M103.6,165.1h-8.3c6.4,0,11.8,5.3,11.8,11.8v0.2c0,6.4-5.3,11.8-11.8,11.8h8.3c6.4,0,11.8-5.3,11.8-11.8
					v-0.2C115.3,170.4,110,165.1,103.6,165.1z"/>
				<path class="st1" d="M103.6,190.4H52.2c-7.4,0-13.3-6-13.3-13.3v-0.2c0-7.4,6-13.3,13.3-13.3h51.3c7.4,0,13.3,6,13.3,13.3v0.2
					C116.9,184.4,110.9,190.4,103.6,190.4z M52.2,166.6c-5.6,0-10.2,4.6-10.2,10.2v0.2c0,5.6,4.6,10.2,10.2,10.2h51.3
					c5.6,0,10.2-4.6,10.2-10.2v-0.2c0-5.6-4.6-10.2-10.2-10.2H52.2z"/>
			</g>
		</g>
		<g>
			<g>
				<path class="st0" d="M107,162.1c0,4.7-5.3,8.6-11.8,8.6H60.6c-6.4,0-11.8-3.9-11.8-8.6c0-4.7,5.3-8.6,11.8-8.6h34.6
					C101.7,153.6,107,157.4,107,162.1z"/>
				<path class="st1" d="M95.2,172.4H60.6c-7.4,0-13.3-4.6-13.3-10.2c0-5.6,6-10.2,13.3-10.2h34.6c7.4,0,13.3,4.6,13.3,10.2
					C108.6,167.8,102.6,172.4,95.2,172.4z M60.6,155.1c-5.5,0-10.2,3.2-10.2,7s4.7,7,10.2,7h34.6c5.5,0,10.2-3.2,10.2-7
					s-4.7-7-10.2-7H60.6z"/>
			</g>
			<g>
				<path class="st0" d="M107,162.1c0,4.7-5.3,8.6-11.8,8.6H60.6c-6.4,0-11.8-3.9-11.8-8.6c0-4.7,5.3-8.6,11.8-8.6h34.6
					C101.7,153.6,107,157.4,107,162.1z"/>
				<path class="st2" d="M95.2,153.6h-8.3c6.4,0,11.8,3.9,11.8,8.6c0,4.7-5.3,8.6-11.8,8.6h8.3c6.4,0,11.8-3.9,11.8-8.6
					S101.7,153.6,95.2,153.6z"/>
				<path class="st1" d="M95.2,172.4H60.6c-7.4,0-13.3-4.6-13.3-10.2c0-5.6,6-10.2,13.3-10.2h34.6c7.4,0,13.3,4.6,13.3,10.2
					C108.6,167.8,102.6,172.4,95.2,172.4z M60.6,155.1c-5.5,0-10.2,3.2-10.2,7s4.7,7,10.2,7h34.6c5.5,0,10.2-3.2,10.2-7
					s-4.7-7-10.2-7H60.6z"/>
			</g>
		</g>
		<g>
			<circle class="st1" cx="77.9" cy="232.1" r="26.1"/>
			<path class="st1" d="M77.9,259.8c-15.2,0-27.7-12.4-27.7-27.7s12.4-27.7,27.7-27.7s27.7,12.4,27.7,27.7S93.1,259.8,77.9,259.8z
				 M77.9,207.6c-13.5,0-24.5,11-24.5,24.5s11,24.5,24.5,24.5s24.5-11,24.5-24.5S91.4,207.6,77.9,207.6z"/>
		</g>
	</g>
	<g>
		<path class="st2" d="M257.5,118.3c2.3,1.5,3.7,4,3.8,6.8l0.4,9c4.8,7.3,6.4,16.1,4.3,24.6c-0.3,1.3-0.7,2.6-1.2,3.9
			c3.4-0.3,8.3-0.2,15.3,4.4c8.6,5.7,11.3,16.4,6.6,25.5c-4.3,8.3-15.2,14.2-27.5,9.3c-1.7-0.6-3.4-1.6-4.9-2.5
			c-6.8-4.6-10.8-11.6-12.9-17.1c-1.6,0.3-3.1,0.4-4.6,0.5c-0.4,0.5-0.9,0.9-1.4,1.4l0.8,3c1.3,4.6-1.4,9.3-6,10.6
			c-2.4,0.6-5,0.2-7.1-1.1c-1.7-1.1-2.9-2.8-3.6-4.9l-1-3.7c-1.9-0.6-3.7-1.3-5.3-2.4c-1.3-0.9-2.5-1.9-3.6-3.2l-3,0.8
			c-2.4,0.6-5,0.2-7.1-1.1c-1.7-1.1-2.9-2.8-3.6-4.9c-1.3-4.6,1.4-9.3,6-10.6l3.7-1c0.3-1,0.6-1.9,1.1-2.9c-0.6-1.5-1.1-3-1.3-4.5
			c-5.9,0.1-13.9-0.7-20.8-5.3c-1.6-1.1-3-2.2-4.3-3.5c-9.3-9.4-8.1-21.7-2.1-29c6.5-7.9,17.5-9.5,26.1-3.8c7,4.6,8.9,9.1,10,12.3
			c1-0.9,2-1.8,3-2.6c7-5.2,15.8-7.2,24.3-5.6l8.5-3.1C252.3,116.4,255.2,116.8,257.5,118.3z"/>
		<g>
			
				<ellipse transform="matrix(0.5527 -0.8334 0.8334 0.5527 -41.9482 261.9427)" class="st3" cx="223.1" cy="170.1" rx="9.6" ry="9.6"/>
			<polygon class="st4" points="248.2,132.3 253.2,136.9 252.7,125.4 241.9,129.4 			"/>
			<path class="st3" d="M223.1,170.1c8.2,5.4,18.6,4.8,26.1-0.8l-35.5-23.5C211.5,154.8,214.9,164.6,223.1,170.1z"/>
			<path class="st3" d="M248.2,132.3c-8.2-5.4-18.6-4.8-26.1,0.8l35.5,23.5C259.8,147.6,256.3,137.7,248.2,132.3z"/>
			<path class="st4" d="M213.6,145.8l35.5,23.5c2-1.5,3.9-3.4,5.3-5.7c1.5-2.2,2.5-4.7,3.1-7.2L222.1,133c-2,1.5-3.9,3.4-5.3,5.7
				C215.3,140.9,214.3,143.3,213.6,145.8z"/>
			<g>
				<path class="st5" d="M218,145.3c3,1.9-20.4,9.3-31.8-2.2c-11.3-11.5,1.6-27.1,13-19.6S200.7,134.4,218,145.3z"/>
				<path class="st5" d="M247.9,165.2c-2.9-2-0.6,22.4,14.5,28.3c15,6,24.3-12,13-19.6C264,166.5,264.7,176.8,247.9,165.2z"/>
			</g>
			<line class="st6" x1="225.1" y1="179.5" x2="227.7" y2="189.1"/>
			<line class="st6" x1="213.6" y1="171.9" x2="204.2" y2="174.6"/>
		</g>
	</g>
	<g>
		<path class="st2" d="M67.7,24.2c2.6-1,5.5-0.7,7.7,0.8l7.6,4.9c8.6,0.3,16.8,4.1,22.5,10.7c0.9,1,1.7,2,2.4,3.1
			c1.8-2.9,4.6-6.9,12.4-10c9.6-3.7,19.9,0.2,24.6,9.3c4.3,8.4,2.8,20.6-8.2,27.8c-1.5,0.9-3.2,1.9-4.9,2.5
			c-7.7,3-15.8,2.1-21.5,0.8c-0.6,1.4-1.5,2.8-2.3,4.1c0.1,0.6,0.2,1.3,0.3,1.9l2.9,1c4.5,1.6,6.8,6.5,5.2,11
			c-0.9,2.4-2.7,4.2-5,5.2c-1.9,0.7-4.1,0.8-6.1,0.1l-3.6-1.3c-1.5,1.3-3.2,2.2-5.1,3c-1.5,0.6-3.1,0.9-4.6,1.1l-1,2.9
			c-0.9,2.4-2.7,4.2-5,5.2c-1.9,0.7-4.1,0.8-6.1,0.1c-4.5-1.6-6.8-6.5-5.2-11l1.3-3.6c-0.6-0.8-1.2-1.6-1.7-2.4
			c-1.5-0.4-3-0.9-4.4-1.5c-3.3,4.8-8.6,11-16.3,13.9c-1.7,0.7-3.5,1.1-5.4,1.4c-13.1,2.2-22.4-5.8-24.9-14.9
			c-2.7-9.9,2.3-19.7,11.8-23.5c7.8-3,12.6-2,15.8-1c-0.2-1.3-0.3-2.6-0.3-3.9c-0.2-8.7,3.2-17,9.4-23.1l2.4-8.7
			C63.2,27.4,65.1,25.2,67.7,24.2z"/>
		<g>
			
				<ellipse transform="matrix(0.9321 -0.3623 0.3623 0.9321 -23.6342 38.2361)" class="st3" cx="90.1" cy="82.1" rx="9.6" ry="9.6"/>
			<polygon class="st4" points="73.7,39.9 80.4,38.4 70.7,32.2 67.7,43.3 			"/>
			<path class="st3" d="M90.2,82.1c9.2-3.6,14.7-12.4,14.4-21.7L64.8,75.9C71,82.9,81,85.7,90.2,82.1z"/>
			<path class="st3" d="M73.7,39.9C64.5,43.4,59,52.3,59.3,61.6L99,46.1C92.9,39.2,82.9,36.3,73.7,39.9z"/>
			<path class="st4" d="M64.8,75.9l39.7-15.4c0-2.6-0.5-5.1-1.5-7.6c-0.9-2.5-2.4-4.8-4.1-6.6L59.2,61.6c0,2.6,0.5,5.1,1.5,7.6
				C61.8,71.7,63.2,74,64.8,75.9z"/>
			<g>
				<path class="st5" d="M67,72.1c3.3-1.3-4.2,22-20.2,24.6c-16,2.7-21.3-17-8.5-21.9C51,70,48.1,80,67,72.1z"/>
				<path class="st5" d="M100.4,59c-3.3,1.2,18,13.4,31.5,4.6c13.5-8.8,4.2-26.8-8.5-21.9C110.8,46.7,119.6,52.1,100.4,59z"/>
			</g>
			<line class="st6" x1="98.9" y1="86" x2="108.2" y2="89.3"/>
			<line class="st6" x1="86.3" y1="91" x2="83" y2="100.3"/>
		</g>
	</g>
	<g>
		<path class="st2" d="M233.4,15.3c2.3,1.4,3.9,3.9,4.1,6.6l0.8,9c5,7.1,7,15.8,5.3,24.3c-0.3,1.3-0.6,2.5-1,3.8
			c3.3-0.4,8.2-0.6,15.5,3.8c8.8,5.4,12.1,15.9,7.7,25.2c-4,8.5-14.6,14.7-27.1,10.4c-1.7-0.6-3.4-1.4-5-2.3
			c-7-4.2-11.3-11.2-13.8-16.6c-1.5,0.4-3.1,0.5-4.6,0.7c-0.4,0.5-0.9,0.9-1.3,1.4l1,2.9c1.5,4.6-1,9.4-5.5,10.9
			c-2.5,0.8-5,0.5-7.2-0.8c-1.7-1.1-3.1-2.8-3.7-4.7l-1.2-3.7c-1.9-0.4-3.7-1.2-5.5-2.2c-1.4-0.9-2.6-1.8-3.7-3l-2.9,1
			c-2.5,0.8-5,0.5-7.2-0.8c-1.7-1.1-3.1-2.8-3.7-4.7c-1.5-4.6,1-9.4,5.5-10.9l3.7-1.2c0.3-0.9,0.5-1.9,0.9-2.9
			c-0.6-1.4-1.1-2.9-1.5-4.4c-5.8,0.4-14-0.2-21-4.5c-1.6-0.9-3-2.2-4.3-3.4c-9.7-9.1-9-21.3-3.4-28.9c6.2-8.1,17.1-10.2,25.8-4.9
			c7.1,4.3,9.3,8.8,10.5,12c0.9-0.9,1.8-1.9,2.9-2.7c6.8-5.4,15.4-7.8,24.1-6.7l8.4-3.4C228.1,13.7,231,13.9,233.4,15.3z"/>
		<g>
			
				<ellipse transform="matrix(0.5184 -0.8551 0.8551 0.5184 38.4097 204.9865)" class="st3" cx="201.2" cy="68.4" rx="9.6" ry="9.6"/>
			<polygon class="st4" points="224.6,29.6 229.8,34.1 228.9,22.5 218.2,27 			"/>
			<path class="st3" d="M201.2,68.4c8.5,5.2,18.8,4.1,26-1.8l-36.4-22.1C188.8,53.6,192.7,63.2,201.2,68.4z"/>
			<path class="st3" d="M224.6,29.6c-8.5-5.2-18.8-4.1-26,1.8L235,53.5C236.8,44.4,233,34.8,224.6,29.6z"/>
			<path class="st4" d="M190.7,44.5l36.4,22.1c2-1.6,3.7-3.5,5.1-5.9c1.4-2.2,2.4-4.8,2.8-7.3l-36.4-22.1c-2,1.6-3.7,3.5-5.1,5.9
				C192.1,39.6,191.2,42.1,190.7,44.5z"/>
			<g>
				<path class="st5" d="M195,43.9c3.1,1.8-20,10.1-31.9-1s0.5-27.2,12.1-20.1C186.9,29.9,177.2,33.7,195,43.9z"/>
				<path class="st5" d="M225.7,62.5c-3-1.9,0.3,22.4,15.6,27.8c15.2,5.4,23.8-13,12.1-20.1C241.8,63.2,242.9,73.5,225.7,62.5z"/>
			</g>
			<line class="st6" x1="203.4" y1="77.7" x2="206.5" y2="87.1"/>
			<line class="st6" x1="191.7" y1="70.8" x2="182.3" y2="73.8"/>
		</g>
	</g>
</g>
<rect x="303.4" y="32.9" class="st7" width="548.3" height="252.9"/>
<text transform="matrix(1 0 0 1 303.3778 63.1164)" class="st8 st9">End the Swarm session</text>
<text transform="matrix(1 0 0 1 303.3778 137.5164)" class="st10"><tspan x="0" y="0" class="st11 st12">Are you sure about the end of the execution?</tspan><tspan x="0" y="33.6" class="st11 st12">This will end all agents from this swarm and</tspan><tspan x="0" y="67.2" class="st11 st12">you not can put the agents back on road.</tspan></text>
<text transform="matrix(1 0 0 1 355.8779 130.5597)" class="st11 st9 st13"> </text>
<text transform="matrix(1 0 0 1 430.8779 130.5597)" class="st11 st9 st13"> </text>
<text transform="matrix(1 0 0 1 525.2779 130.5597)" class="st11 st9 st13"> </text>
<text transform="matrix(1 0 0 1 552.4779 130.5597)" class="st11 st9 st13"> </text>
<text transform="matrix(1 0 0 1 619.4779 130.5597)" class="st11 st9 st13"> </text>
<text transform="matrix(1 0 0 1 723.7779 130.5597)" class="st11 st9 st13"> </text>
<text transform="matrix(1 0 0 1 791.1779 130.5597)" class="st11 st9 st13"> </text>
<g>
	<g>
		<g>
			<g>
				<g>
					<g>
						<path class="st7" d="M174,179.3c-0.3,2.4-0.6,4.8-1.2,7.2l9.2,2.1c0.6-2.8,1.1-5.6,1.4-8.5L174,179.3z"/>
					</g>
					<path class="st1" d="M178.2,185.6l-0.9-0.2c-0.1,0.5-0.2,0.9-0.3,1.4l0.9,0.2C178,186.6,178.1,186.1,178.2,185.6z"/>
					<path class="st1" d="M178.6,183l-1-0.1c-0.1,0.5-0.1,1-0.2,1.4l0.9,0.2C178.5,184,178.6,183.5,178.6,183z"/>
					<path class="st1" d="M179,180.4l-1-0.1c0,0.5-0.1,1-0.2,1.5l1,0.1C178.9,181.4,178.9,180.9,179,180.4z"/>
				</g>
			</g>
			<g>
				<g>
					<g>
						<path class="st7" d="M172.8,186.5c-0.6,2.4-1.3,4.7-2.1,7l8.8,3.3c1-2.7,1.8-5.4,2.5-8.2L172.8,186.5z"/>
					</g>
					<polygon class="st1" points="176.2,193.3 175.3,193.1 174.8,194.5 175.7,194.8 					"/>
					<polygon class="st1" points="177,190.8 176.1,190.6 175.6,191.9 176.5,192.3 					"/>
					<polygon class="st1" points="177.6,188.3 176.7,188 176.3,189.5 177.2,189.7 					"/>
				</g>
			</g>
			<g>
				<g>
					<g>
						<path class="st7" d="M170.8,193.6c-0.9,2.3-1.9,4.5-3.1,6.6l8.3,4.5c1.4-2.5,2.5-5.2,3.6-7.9L170.8,193.6z"/>
					</g>
					<path class="st1" d="M173.1,200.8l-0.8-0.4c-0.2,0.5-0.4,0.8-0.7,1.3l0.8,0.4C172.7,201.6,172.9,201.2,173.1,200.8z"/>
					<path class="st1" d="M174.2,198.3l-0.9-0.4c-0.2,0.5-0.4,0.8-0.6,1.3l0.8,0.4C173.8,199.2,174.1,198.8,174.2,198.3z"/>
					<polygon class="st1" points="175.3,195.9 174.4,195.6 173.8,196.9 174.7,197.3 					"/>
				</g>
			</g>
			<g>
				<g>
					<g>
						<path class="st7" d="M167.7,200.2l-0.9,1.6l-1,1.5c-0.6,1-1.4,2-2.1,2.9l7.5,5.7c0.9-1.2,1.7-2.3,2.5-3.6l1.2-1.8
							c0.3-0.6,0.7-1.3,1.1-1.9L167.7,200.2z"/>
					</g>
					<polygon class="st1" points="169,207.7 168.3,207.1 167.4,208.3 168.1,208.8 					"/>
					<polygon class="st1" points="170.5,205.4 169.7,204.9 168.9,206.2 169.7,206.7 					"/>
					<path class="st1" d="M171.9,203.2l-0.8-0.5c-0.2,0.5-0.4,0.8-0.7,1.3l0.8,0.5C171.4,204,171.6,203.6,171.9,203.2z"/>
				</g>
			</g>
			<g>
				<g>
					<g>
						<path class="st7" d="M163.8,206.3c-0.2,0.3-0.4,0.5-0.5,0.7l-0.6,0.7l-1.2,1.4c-0.4,0.5-0.8,0.8-1.3,1.3l-1.3,1.3l6.5,6.8
							l1.5-1.5c0.5-0.5,1-1,1.5-1.6l1.4-1.6l0.7-0.8c0.2-0.3,0.4-0.6,0.6-0.9L163.8,206.3z"/>
					</g>
					<polygon class="st1" points="163.9,213.8 163.2,213.2 162.2,214.2 162.9,214.9 					"/>
					<path class="st1" d="M165.8,211.9l-0.7-0.6c-0.3,0.4-0.6,0.8-1,1.1l0.7,0.6C165.1,212.6,165.4,212.2,165.8,211.9z"/>
					<path class="st1" d="M167.5,209.8l-0.7-0.6c-0.3,0.4-0.6,0.7-0.9,1.1l0.7,0.6C166.8,210.6,167.1,210.2,167.5,209.8z"/>
				</g>
			</g>
			<g>
				<g>
					<g>
						<path class="st7" d="M159,211.6c-0.9,0.8-1.8,1.6-2.7,2.4c-0.9,0.7-1.9,1.5-2.9,2.1l5.2,7.8c1.2-0.8,2.4-1.7,3.5-2.6
							c1.1-0.9,2.3-1.9,3.3-2.9L159,211.6z"/>
					</g>
					<path class="st1" d="M157.9,219.1l-0.5-0.7c-0.4,0.3-0.8,0.6-1.2,0.9l0.5,0.8C157.1,219.7,157.5,219.4,157.9,219.1z"/>
					<path class="st1" d="M160,217.4l-0.6-0.7c-0.4,0.3-0.8,0.7-1.1,0.9l0.6,0.7C159.3,218.1,159.6,217.8,160,217.4z"/>
					<polygon class="st1" points="162,215.7 161.4,215 160.3,216 160.9,216.7 					"/>
				</g>
			</g>
			<g>
				<g>
					<g>
						<path class="st7" d="M153.4,216.1c-2,1.4-4.1,2.5-6.3,3.5l3.9,8.6c2.6-1.2,5.2-2.6,7.6-4.3L153.4,216.1z"/>
					</g>
					<polygon class="st1" points="151.1,223.3 150.7,222.5 149.4,223.1 149.8,224 					"/>
					<polygon class="st1" points="153.4,222 153,221.2 151.7,221.9 152.2,222.7 					"/>
					<polygon class="st1" points="155.7,220.6 155.2,219.9 154,220.6 154.4,221.4 					"/>
				</g>
			</g>
			<g>
				<g>
					<g>
						<path class="st7" d="M147.1,219.6c-2.2,1-4.4,1.8-6.8,2.5l2.5,9.1c2.8-0.8,5.5-1.8,8.2-3L147.1,219.6z"/>
					</g>
					<path class="st1" d="M143.7,226.4l-0.3-0.9c-0.5,0.2-0.9,0.3-1.4,0.4l0.3,0.9C142.7,226.7,143.2,226.5,143.7,226.4z"/>
					<path class="st1" d="M146.2,225.5l-0.4-0.9c-0.5,0.2-0.9,0.3-1.4,0.5l0.3,0.9C145.3,225.8,145.8,225.6,146.2,225.5z"/>
					<path class="st1" d="M148.7,224.4l-0.4-0.9c-0.5,0.2-0.9,0.4-1.3,0.6l0.4,0.9C147.8,224.9,148.2,224.7,148.7,224.4z"/>
				</g>
			</g>
		</g>
	</g>
</g>
</svg>
