<svg xmlns="http://www.w3.org/2000/svg" viewBox="0 0 799.51 127.73"><defs><style>.cls-1{fill:#5d737a;}.cls-1,.cls-2,.cls-4,.cls-6,.cls-8,.cls-9{fill-rule:evenodd;}.cls-2{fill:#72868d;}.cls-3{fill:#f3d8b6;}.cls-4,.cls-5{fill:#e1c29c;}.cls-6{fill:#fff;}.cls-7{fill:#ae8c64;}.cls-8{fill:#84bb46;}.cls-10,.cls-9{fill:#a4d969;}</style></defs><title>Asset 1</title><g id="Layer_2" data-name="Layer 2"><g id="Layer_1-2" data-name="Layer 1"><path class="cls-1" d="M8.79,96.77c105.92,0,191.79-21.66,191.79-48.39S114.72,0,8.79,0Q4.37,0,0,.05V96.72Q4.37,96.77,8.79,96.77Z"/><path class="cls-2" d="M27.29,96.55c97.24-2.35,173.3-23,173.3-48.16,0-23.1-64.19-42.42-150-47.23C31.47,19.58,20.41,41.49,20.41,65A77.07,77.07,0,0,0,27.29,96.55Z"/><path class="cls-1" d="M234.14,120.33c59.56,0,108.14-18.56,108.14-41.31S293.7,37.71,234.14,37.71,126,56.27,126,79,174.58,120.33,234.14,120.33Z"/><path class="cls-2" d="M244.66,120.13c54.79-2,97.62-19.65,97.62-41.11,0-22.46-46.91-40.73-105.34-41.29C213,47.2,197.76,61.52,197.76,77.53,197.76,95.21,216.34,110.81,244.66,120.13Z"/><path class="cls-1" d="M790.72,96.77c-105.92,0-191.79-21.66-191.79-48.39S684.79,0,790.72,0q4.42,0,8.79.05V96.72Q795.14,96.77,790.72,96.77Z"/><path class="cls-2" d="M790.72,96.77c-40,0-77.21-3.1-108-8.39a49.16,49.16,0,0,1-2.24-14.63C680.5,33.17,731.06.26,793.57,0l4,0,1.95,0V96.72Q795.14,96.77,790.72,96.77Z"/><path class="cls-1" d="M565.37,120.33c59.56,0,108.14-18.56,108.14-41.31S624.93,37.71,565.37,37.71,457.23,56.27,457.23,79,505.81,120.33,565.37,120.33Z"/><path class="cls-2" d="M542.15,38.67c7.48-.62,15.25-1,23.22-1,57.23,0,104.08,17,107.89,38.48-1,7.77-5,15-11.14,21.3-15,11.46-43.58,19.88-77.67,22.2-36.34-3.75-64.07-23.56-64.07-47.44C520.38,59.18,528.68,47.33,542.15,38.67Z"/><rect class="cls-3" y="67.24" width="799.51" height="60.49"/><path class="cls-4" d="M43.82,89.33c5.64,1,10.52,2.6,12.82,4.41a4.43,4.43,0,0,1,1,1.06c6.65.93,12.65,2.73,15.28,4.79l.33.28h0a4.66,4.66,0,0,1,.4.41h0l.11.13h0l.1.13h0a2.71,2.71,0,0,1,.16.26h0l.06.12h0l0,.12h0l0,.09h0c.65,2.22-3.9,3.84-11.72,3.88-.3,1.16-2.16,2.09-5.24,2.63,4.53,3.76,8.1,7.28,9.23,8.88.4.57-.7.94-2.45.82s-3.51-.66-3.91-1.23a43.94,43.94,0,0,0-5.48-5.6h-.4a37.11,37.11,0,0,1-7.63-.87,25.43,25.43,0,0,1-6.82-2.38c-1-.15-1.9-.32-2.82-.51a46.47,46.47,0,0,1-4.66.22c-9.77,0-20.8-2.45-24.65-5.47-2.54-2-1.31-3.73,2.62-4.69A13.18,13.18,0,0,1,7.54,95.3c-2.79-2.19-1-4.08,3.86-5a15.73,15.73,0,0,1-4-2.08c-3.15-2.47-.5-4.56,5.93-5.24H14l.19,0h.55l.29,0h.13l.29,0h2.66c9.77,0,20.8,2.45,24.65,5.47a4.44,4.44,0,0,1,1,1.06Zm9,19.66-1-.82-1.41,0c-1.42,0-2.87-.05-4.32-.15.58.18,1.18.34,1.78.47a20.64,20.64,0,0,0,4.23.5h.68Z"/><path class="cls-5" d="M727.85,115.32c2,.59,2.63,1.42,1.49,1.84a10.87,10.87,0,0,1-5.61-.3,43.13,43.13,0,0,1-14.82-8.15,34.26,34.26,0,0,1-6.52-7.05c-8.7-.47-17.27-2.16-21.89-4.32l-.28,0-.19,0-.28,0-.2,0-.25,0h0l-.4,0h0l-.25,0-.24,0-.25,0L678,97l-.47-.06-.21,0-.25,0-.21,0-.24,0-.23,0-.39-.06-.24,0-.22,0-.23,0-.23,0-.28,0-.35-.06-.21,0-.24,0-.2,0-.23,0h0l-.37-.07h0l-.21,0-.24,0-.21,0-.22,0L672,96l-.31-.07-.18,0-.24-.05-.19,0-.25-.06-.23-.05-.32-.08-.14,0-.27-.06-.16,0-.33-.08-.16,0-.25-.07-.17,0-.24-.07-.14,0-.37-.1-.07,0-.29-.08-.13,0-.27-.08-.1,0-.35-.11-.11,0-.24-.08-.13,0-.24-.08-.1,0-.32-.11-.1,0-.24-.09-.09,0-.27-.1,0,0h0l-.28-.11-.09,0-.23-.09-.09,0-.28-.12-.06,0-.23-.1-.07,0-.22-.1-.06,0-.27-.13,0,0-.21-.11-.08,0-.2-.11,0,0-.23-.13-.07,0-.16-.09-.07,0-.16-.1,0,0-.19-.13-.07,0-.13-.09-.07,0-.17-.13c-4-3.18,2.29-5.76,14.16-5.76h.2l0-.08,0,0,0-.07h0l.11-.14,0,0,.06-.07,0,0,.07-.07.09-.09.08-.07,0,0,.29-.21,0,0,.09-.06.06,0,.1-.06.13-.08.11-.06.05,0L677,85l.05,0,.22-.1.07,0,.11,0,.09,0,.12,0h0l.18-.07.12,0,.09,0,.13,0,.1,0,.2-.07.15,0,.12,0,.13,0,.13,0,.16,0,.17,0,.19,0,.11,0,.18,0,.11,0,.27-.06.15,0,.15,0,.16,0,.18,0,.12,0,.29-.05.15,0,.19,0,.14,0,.32-.05.11,0,.22,0,.18,0,.2,0,.15,0,.34,0,.13,0,.28,0h.1l.38,0h0l.35,0,.16,0,.31,0h.07l.43,0h.07l.37,0h.1l.35,0h.1l.43,0h.1l.36,0h.12l.44,0h2.71c11.87,0,24.78,2.58,28.82,5.76l.18.15h0l.16.14h0l.14.13h0l.25.28h0l.1.14h0l.09.13v0l.07.12h0l.06.13h0l0,.13h0l0,.12v0s0,.07,0,.11v.1h.09l.34.05.19,0,.37.06.17,0,.3,0,.16,0,.4.07.14,0,.34.06.2,0,.3.05.16,0,.38.07.17,0,.22,0,.26.05.31.06.14,0,.35.07.13,0,.31.07.15,0,.37.08.12,0,.32.08.08,0,.36.09.14,0L728,92l.16,0,.3.08.11,0,.36.1.1,0,.3.08.08,0,.35.1.1,0,.35.1h0l.32.1.1,0,.32.1.07,0,.27.09.09,0,.31.11.08,0,.29.1h.06l.26.1.1,0,.28.11.06,0,.25.1.06,0,.27.12.07,0,.27.12h0l.27.12.05,0,.26.12,0,0,.23.12,0,0,.24.13,0,0,.22.12h0l.21.12.05,0,.2.12,0,0,.17.11,0,0,.18.12,0,0,.17.13c3.14,2.47,0,4.57-7.06,5.39.31,1.46-.52,2.64-2,3.58-2.86,1.82-8.3,2.71-12.52,2.89q.83.78,1.74,1.55a34,34,0,0,0,11.36,6.54Zm-17.73-13.59a22.77,22.77,0,0,0,2,2.78,18.26,18.26,0,0,0,7.41-2,3.44,3.44,0,0,0,1.31-1.35h-1l-.53,0h0l-.53,0h-.08l-.48,0h-.08l-.46,0h-.09l-.45,0h-.11a45.45,45.45,0,0,1-6.94.75ZM675.87,85.79l-.07.07Z"/><path class="cls-5" d="M143.64,96.67h0l.41,0h.1l.69-.09h0l.1,0h0l.09,0,.28,0h0l.18,0h.09l.18,0h0l.08,0h0l.07,0,.07,0h.1l.17,0,.07,0h0l.08,0h0l.08,0h0l.07,0h0l.06,0,.08,0h0l.06,0h0l.06,0h0l.07,0h0l.07,0h0l.06,0h0l.05,0h0l0,0h0l0,0h0l0,0h0l.05,0h0l.05,0h0l.06,0h0l.06,0h0l0,0h0l0,0h0l0,0h0l.05,0h0l0,0h0l0,0h0l0,0h0l0,0h0l.07-.06,0,0h0l0,0h0l0,0h0l0,0h0l0,0,0,0h0v0l0,0h0l0,0h0l0,0h0l0,0h0l-4.94,1.72Zm5-1.79-5,1.79-.08,0-.08,0-.05,0h0l-.08,0-.08,0,0,0h0l-.08,0-.08,0h0l0,0-.08,0-.08,0h0l-.05,0-.08,0-.08,0h0l-.06,0-.08,0-.08,0h0l-.07,0-.08,0-.08,0h0L142,96l-.08,0-.08,0h0l-.08,0-.08,0-.07,0h0l-.08,0-.09,0-.06,0h0l-.09,0-.09,0-.05,0h0l-.09,0-.09,0,0,0-.22-.08h0l-.14-.05-.09,0h0l-.07,0-.09,0-.09,0h0l-.08,0-.09,0-.09,0h0l-.09,0-.09,0-.08,0h0l-.09,0-.09,0-.08,0h0l-.09,0-.09,0-.07,0h0l-.09,0-.09,0-.06,0h0l-.09,0-.1,0,0,0,0,0-.1,0-.1,0h0l-.06,0h1.44c4.94,0,7.84-.74,6.76-1.69h1.6l0,0h0l0,0,0,0h0l0,0h0l0,0h0l0,0h0l0,0,0,0h0l0,0v0l0,0,0,0h0l0,0h0l0,0,0,0h0l0,0h0l0,0h0l0,0v0h0l0,0h0l0,0h0v0h0l0,0h0V94h0v0h0v.09h0v0h0v0h0v0h0v0h0v0h0v0h0v0h0v0h0v0h0v0h0v0h0v0h0v0h0l0,.06v.08h0v0h0v0ZM120.23,82.07l.41,0h2.45l.18,0h.08l.15,0h.08l.15,0H124l.16,0h.72l.11,0h.17l.19,0h0l.18,0H126l.14,0h.41l.15,0h0l.14,0h0l.15,0h.34l.16,0,.11,0h.07l.13,0h0l.11,0H128l.09,0h0l.06,0h0l.07,0h0l.08,0h0l.07,0h.07l.07,0,.07,0,.07,0,.09,0h0l.12,0h0l.1,0h0l.12,0,.05,0h0l.07,0h0l.08,0,0,0,.07,0,0,0,.06,0h0l0,0h0l.06,0h0l0,0h0l.06,0h0l.06,0,0,0h0l.05,0,0,0,0,0,0,0h0l.07,0h.13l1.46,0c5.21,0,10.72.83,12.31,1.84.58.37.56.71.05,1h.4l.08,0,.08,0,.08,0,.08,0,.08,0,.07,0,.07,0,.07,0,.07,0,.07,0,.07,0,.07,0,.07,0,.07,0,.07,0,.07,0,.07,0,.07,0,.07,0,.07,0,.06,0,.06,0,.06,0,.06,0,.06,0,.06,0,.06,0,.06,0,.06,0,.06,0,.06,0,.06,0,.06,0,.05,0,.05,0,.05,0,.05,0,.05,0,.05,0,.05,0,0,0,0,0,0,0,0,0,0,0,0,0,0,0,0,0,0,0,0,0,0,0,0,0,0,0,0,0,0,0,0,0,0,0,0,0,0,0h1.92c5.21,0,10.72.83,12.31,1.84l.07,0h0l0,0,0,0,0,0h0l0,0h0l0,0h0l0,0h0l0,0h0l0,0h0l0,0h0v0h0v0h0v0h0v0h0v0h0v0h0v0h0l0,0h0l0,0h0l0,0h0l0,0h0l0,0h0l0,0,0,0h0l0,0h0l-.05,0h0l0,0H162l0,0h0l-.07,0h0l0,0h-.08l-.05,0h0l-.08,0h0l-.08,0h0l-.06,0h0l-.06,0h0l-.06,0-.1,0h-.2l-.08,0h0l-.11,0h-.45l-.12,0h-5.25v0h0v0h0v0h0v0h0v0h0v0h0v0h0v0h0l0,0h0l0,0h0l0,0h0l0,0h0l0,0h0l-.13.09h0l0,0h0l0,0h0l0,0h0l0,0h0l-.06,0h0l-.05,0h0l-.06,0h0l-.06,0h0l-.05,0h0l-.06,0h-.12l-.07,0h0l-.07,0h0l-.09,0h0l-.08,0h0l-.07,0H153l-.08,0h-1.16l.06,0h0l.11.1h0l0,0h0l0,0h0l0,0,0,0,.05.05h0l.06.06h0l0,0,0,0,0,0h0l0,0h0l0,0h0l0,.05h0l0,.05h0l0,0,0,0,0,0h0l0,0h0l0,0h0l0,.05h0l0,0h0l0,0h0l0,0h0l0,0h0l0,0h0l0,.05,0,0h0v0l0,0h0l0,.09,0,0h0l0,0h0v.1h0v.06h0v0h0v0h0v.11h0v0h0v0h0v0h0v.16h0v.19h0l0,0h0l0,0h0v.07l0,0h0l0,0h0l0,0h0l0,0h0l0,0h0l0,0,0,0h0l0,0,0,0h0l0,0h0l0,0h0l0,0h0l0,0,0,0,0,0h0l0,0h0l-.06,0h0l-.06,0h0l-.05,0h0l0,0,0,0h0l0,0,0,0-.06,0h0l-.07,0h0l-.07,0h0l-.08,0h0l-.15.07h0l-.08,0h0l0,0-.06,0h0l-.07,0h0l-.09,0h0l-.1,0-.08,0h0l-.07,0h0l-.05,0h0l-.06,0h0l-.08,0-.08,0h0l-.2.06h0l-.09,0h0l-.08,0h-.1l-.07,0h-.07l-.08,0h0l-.09,0h0l-.11,0h0l-.11,0h0l-.1,0h0l-.08,0H149l-.08,0h-.07l-.08,0-.12,0h0l-.12,0h0l-.11,0h-.06l-.12,0h0l-.1,0h-.22l-.11,0h0l-.13,0h0l-.13,0h.1c3.81,1.6,6.07,2.86,7.6,4.23.36.33-.3.55-1.47.51a5.77,5.77,0,0,1-2.78-.67c-1.36-1.22-3.4-2.35-6.85-3.8l-.07,0-.07,0h0l-.05,0-.07,0,0,0h0l-.07,0-.07,0h0l-.08,0-.08,0h0l-.06,0-.08,0,0,0,0,0-.08,0-.06,0h0l-.08,0-.08,0h0l-.07,0-.08,0h0l0,0-.08,0-.06,0h0l-.08,0-.25-.1h0l-.06,0-.08,0-.05,0h0l-.08,0-.26-.1h0l-.07,0-.09,0,0,0,0,0-.09,0-.09,0-.09,0-.09,0-.27-.11-.09,0-.07,0h0l-.09,0-.56-.22-.1,0-.09,0h0l-.1,0-.1,0-.2-.07-.05,0,0,0-.3-.11-.1,0h0l-.09,0-.1,0h-2.67l-.24,0h-.78l-.2,0h0l-.22,0h0l-.24,0h0l-.24,0h0l-.23,0h0l-.21,0h-.05l-.19,0h-.07l-.18,0h-.09l-.16,0h-.13l-.23,0h-.14l-.15,0h-.1l-.17,0h0l-.27,0h-.07l-.21,0h0l-.23,0h0l-.26,0h0l-.27,0h0l-.25,0h0l-.24,0h-.05l-.22,0h-.11l-.51-.06h0l-.16,0-.27,0h0l-.22,0h0l-.18,0h-.19l-.17,0h0l-.22,0h-.06l-.24,0h0l-.26,0h0l-.28,0h0l-.27,0h0l-.25,0h0l-.23,0h0l-.2,0h-.24l-.19,0h0l-.17,0h-.05l-.16,0-.12,0-.2,0h0l-.18,0h0l-.21,0h-.08l-.2,0h-.23l-.2,0-.26,0h0l-.28-.05-.11,0-.09,0h0l-.18,0h0l-.11,0h-.11l-.11,0h0l-.08,0-.11,0h0l-.1,0-.1,0h0l-.14,0h-.06l-.11,0h-.11l-.11,0h-.11l-.11,0h0l-.09,0-.11,0h0l-.11,0-.09,0h0L120,94,120,94h0l-.11,0h-.11l-.14,0-.07,0-.11,0h0l-.09,0-.1,0h0l-.11,0-.08,0h0l-.11,0-.06,0h0l-.11,0h0l-.17,0h0l-.08,0-.11,0h0l-.19,0h0l-.11,0-.07,0h0l-.1,0h-.11l-.31-.08h0l-.09,0-.1,0h0l-.19-.05h0l-.31-.08h0l-.05,0-.3-.09h0l-.18-.05h0l-.1,0-.07,0h-1.54l-.06,0h-.06l-.06,0h-.17l-.08,0h0l-.11,0a34.08,34.08,0,0,1-4.08.21c-5.21,0-10.72-.83-12.31-1.84-1.25-.8.3-1.48,3.54-1.74-2.82-.34-5.13-.87-6.08-1.48-1.59-1,1.34-1.84,6.55-1.84h.63a3.9,3.9,0,0,1-.6-.3c-1.59-1,1.34-1.84,6.55-1.84,1.06,0,2.13,0,3.19.1-.93-.92,1.94-1.64,6.81-1.64h2.35Zm4.07,11.61h0l.68.12h0l.16,0,.17,0h0l.13,0,.12,0h0l.17,0h0l.14,0h0l.15,0,.17,0h0l.15,0h0l.15,0h0l.17,0h0l.25,0h0l.24,0h0l.23,0h.09l.17,0h0l.16,0h.17l.17,0h0l.17,0h0l.15,0h0l.17,0h0l.17,0h.17l.16,0h0l.17,0h.17l.15,0h0l.17,0,.17,0,.14,0h0l.17,0H131l.16,0h.33l.16,0H132l.16,0h.32l.16,0h1.26l.27,0h.72l-.3-.11h-.17l-.07,0h0l-.62-.23h-2.34l-.12,0h0l-.11,0H131l-.12,0h0l-.11,0h-.47l-.11,0h-.06l-.11,0h0l-.11,0h-.05l-.1,0h0l-.11,0h-.16l-.1,0h0l-.09,0H129l-.09,0a33.27,33.27,0,0,1-4.23.23h-.37Z"/><path class="cls-4" d="M600.65,82.11h.07l.2,0H601l.2,0h7.88l.31,0h.44l.3,0h0l.31,0h.1l.24,0h.09l.31,0h.13l.19,0h.14l.21,0H612l.28,0h.13l.19,0h.12l.25,0,.16,0,.18,0,.16,0,.15,0,.15,0,.28,0,.13,0,.16,0,.16,0,.17,0,.23,0,.15,0,.18,0h.11l.18,0h0l.24,0,.16,0,.11,0,.18,0h.06l.39.06h0l.18,0,.1,0,.17,0h.08l.31.05.11,0,.16,0h.08l.17,0,.22,0h0l.15,0,.1,0,.17,0h0l.59.13h0l.56.13H620l.17,0h0l.52.13h.05l.16,0h.13c7.79,0,16.31,1.41,19,3.15l.11.07,0,0,.07.05,0,0,.09.07h0l.08.07,0,0,.06.06,0,0,.06.07,0,0,0,.05,0,0,0,.06h0l0,.07v0l0,.05v0l0,.06h0v.15s0,0,0,.06h0v.15l0,.06v0l0,0v0l0,0v0l0,.06,0,0,0,0,0,0,0,0h0l-.07.06,0,0-.05,0,0,0-.06,0-.05,0-.06,0,0,0-.05,0,0,0-.07,0-.07,0-.07,0-.05,0-.07,0-.05,0-.12,0-.05,0-.08,0-.07,0-.09,0-.05,0-.13,0-.08,0-.08,0-.08,0-.08,0-.08,0-.14,0h0l-.1,0-.08,0-.09,0-.11,0-.12,0-.11,0-.11,0-.08,0-.11,0-.09,0-.2,0h-.06l-.13,0h-.1l-.1,0-.15,0-.15,0h-.11l-.12,0h-.1l-.12,0,0,.07h0l0,0v0h0V90h0V90h0v.05h0v.05h0v0h0v.09h0l0,0h0l0,0h0v0l0,0,0,0,0,0,0,0h-.12c-.95.73-3.54,1.26-7.3,1.42A80.24,80.24,0,0,1,637.55,97c3.69,2.4,5.71,4.49,5,5.67-.2.32-1.52.42-2.95.21s-2.43-.64-2.23-1c.59-.95-1.26-2.77-4.56-4.92l-1.06-.67a125.68,125.68,0,0,1-12.84-2.39h0c-2.63-.62-5.51-1.39-8.61-2.33-6.14-.43-11.86-1.6-14-3l-.11-.07,0,0-.1-.07h0l-.09-.07h0l-.08-.07h0l-.07-.07h0l-.06-.07v0l-.06-.07h0l0-.07h0l0-.07h0l0-.07h0l0-.07h0l0-.07h0v-.07a.56.56,0,0,1,0-.06h0a.46.46,0,0,1,0-.06h0v-.07l0-.06h0l0-.06h0l0-.06v0l0-.05h0l.06-.06h0l.06-.06h0l.06,0h0l.07-.05,0,0,.07,0h0l.08,0,0,0,.1-.05h0l.1,0h0l.11,0h0l.11,0h0l.11,0h0l.13,0h0l.11,0h0l.13,0h0l.13,0h0l.15,0h.06l.15,0h.05l.13,0h0l.17,0h.05l.16,0h0l-.13,0h0l-.18-.06h0l-.18-.07h0l-.18-.07h0l-.18-.07h0l-.18-.07h0l-.17-.07h0l-.16-.07h0l-.16-.08h0l-.15-.08h0l-.14-.08h0l-.13-.08h0l-.13-.08c-2.1-1.34-.12-2.49,4.48-2.94Zm17.73,9.61H616.3c1.76.49,3.44.92,5,1.29h0c2.89.69,5.39,1.17,7.42,1.52-1.52-.82-3.17-1.66-4.93-2.49C622,92,620.13,91.91,618.38,91.72Z"/><path class="cls-5" d="M221.32,89.86c.12.24-.52.38-1.42.32a3.05,3.05,0,0,1-1.86-.54c-1.14-2.24-2.36-2.72-7.34-5a33,33,0,0,1-4.27-2.33,45.59,45.59,0,0,1-5.81-1.19,27.59,27.59,0,0,1-4.25-1.52c-3.47-.27-6.86-1.1-8.21-2.07-1.65-1.2.39-2.17,4.54-2.17.55,0,1.11,0,1.67,0-.41-.92,1.58-1.6,5.06-1.6,4.15,0,8.86,1,10.5,2.17a1.56,1.56,0,0,1,.51.54c3.07.44,5.78,1.23,7,2.12,1.9,1.38-.45,2.5-5.24,2.5a36.29,36.29,0,0,1-4.89-.35q.47.36,1,.74a31,31,0,0,0,5.06,2.9l.39.18a8.48,8.48,0,0,0,2.18-.49,1.14,1.14,0,0,0,.48-.33l-1-.15c-2.57-.45-4-1.27-3.22-1.83.63-.44,2.47-.59,4.48-.41-.11-.17-.07-.33.13-.47.69-.49,3.05-.56,5.28-.17s3.48,1.1,2.79,1.59a1.41,1.41,0,0,1-.36.17c1.58.4,2.36,1,1.78,1.38a2.78,2.78,0,0,1-1.15.34c-.3.53-1.32.86-2.64,1a23,23,0,0,1-4.8,0l-.49-.05c-.5.09-1,.17-1.56.22,3.45,1.6,4.63,2.37,5.64,4.36Zm-1.5-6a.71.71,0,0,1-.38.63c.29,0,.58,0,.85-.07a4.15,4.15,0,0,0,1.2-.3l-.45-.07c-.35-.06-.67-.13-1-.21l-.24,0Zm-15.06-2.7c-.58-.43-1.1-.84-1.56-1.22-.54-.15-1-.32-1.49-.49a15.22,15.22,0,0,1-2,.21,24.06,24.06,0,0,0,2.85,1C203.28,80.88,204,81.06,204.77,81.21Z"/><path class="cls-4" d="M556.84,75.6c5.85,0,12,1,13.78,2.32l.06,0h0l0,0h0l0,0h0l0,0h0l0,0h0l0,0h0l0,0h0l0,0h0v0h0l0,0h0v0h0v0h0v0h0c0,.55-.94,1-2.68,1.32.85,1.34.18,2.17-1,2.7a13.35,13.35,0,0,1-3.92.8l.4.27c3,2,5.91,4.29,7.31,6.18.19.25-.41.42-1.35.37a3.66,3.66,0,0,1-2-.54c-1.35-1.81-4.17-4-7.1-6-.95-.64-1.91-1.27-2.84-1.86A44,44,0,0,1,548,80.48l-1.41,0c-5.85,0-12-1-13.78-2.32-1.07-.78-.27-1.47,1.85-1.89h2.86c-.05-1,3-1.67,7.87-1.67a46.2,46.2,0,0,1,11.4,1.33Zm8.2,5.79a25.19,25.19,0,0,1-4,.41l1,.61a8.34,8.34,0,0,0,2.24-.52A2.31,2.31,0,0,0,565,81.39Z"/><path class="cls-4" d="M520.16,72.12h0l-.24-.08h0l-.12,0h0l-.23-.05h-.15l-.11,0h-2.62c.86-.11,1.26-.29,1-.49-.51-.34-2.81-.61-5.16-.61h-.28a.22.22,0,0,0-.09-.1c-.51-.33-2.81-.61-5.16-.61-.48,0-.92,0-1.32,0h-5c-.44,0-.86,0-1.23,0h-.24l-.7.06h-.07l-.28,0h-.52l-.06,0h-.32l0,.05h0l0,0h-.69c-2.34,0-3.83.27-3.33.61a2.24,2.24,0,0,0,.66.23h.52c-.41.1-.55.23-.35.37h-.91c-2.34,0-3.83.27-3.33.61s2.81.61,5.16.61h.33a13.89,13.89,0,0,0,2.85.41,13.68,13.68,0,0,0,3.21,1,36.45,36.45,0,0,0,5.2.65l0,.14c.21.53.7.94,1.65,1.39a3.57,3.57,0,0,0,1.27.17c.48,0,.68-.11.45-.22a2.58,2.58,0,0,1-1.47-1.25,1.94,1.94,0,0,1-.12-.72,28.76,28.76,0,0,0,5-.61,2.69,2.69,0,0,0,1.17-.52.65.65,0,0,0,.33-.17c.66,0,1.37.07,2.09.07,2.34,0,3.83-.27,3.33-.61l-.15-.08Zm-19.45-2.8h-.1l0,0h.06Zm5.84,4.14a3.61,3.61,0,0,0,0,.68,27.8,27.8,0,0,1-4-.5,11.84,11.84,0,0,1-2.38-.72h.69a17.2,17.2,0,0,0,5.07.56Zm1.95-.14a1.93,1.93,0,0,0,.8-.24c.68,0,1.43.08,2.18.08h.16a21.5,21.5,0,0,1-3.18.43Q508.49,73.46,508.51,73.32Z"/><path class="cls-5" d="M268.12,69.42h0Zm0,0h0Zm4.5,6.35c.46-.25,0-.79-1.05-1.41L271,74a53.12,53.12,0,0,1-6.66-.62,26.66,26.66,0,0,1-3.48-.77c-3.14-.18-5.87-.63-6.67-1.16l0,0h0l0,0h0l0,0h0l0,0h0l0,0h0l0,0h0v0h0v0h0v0h0a.22.22,0,0,1,0,0h0v0h0v0h0v0h0l0,0h0l0,0h0l0,0h0l0,0h0l0,0h0l0,0h0l0,0h0l0,0h0l0,0h0l0,0h0l.05,0h0l0,0h0l0,0h0l.06,0h0l.06,0h0l.07,0h.11l.07,0h.22l.08,0H256l-.06,0h0l-.08,0h0l-.08,0h0l-.08,0h0l-.08,0h0l-.07,0h0l-.07,0h0l-.07,0h0l-.13-.06h0l-.06,0h0l-.05,0h0l0,0c-.91-.6,1-1.1,4.25-1.21h7.63l.16,0h.25l.11,0h.24l.27,0H268l.1,0h.1l.08,0h0l.15,0h0l.07,0h0l.07,0h.07c4.19,0,8.43.55,9.46,1.24l0,0h0l0,0h0l0,0h0l0,0h0l0,0h0l0,0h0v0h0v0h0v0h0a.16.16,0,0,1,0,0h0v0h0v0h0v0h0v0h0l0,0h0l0,0h0l0,0h0l0,0h0l0,0h0l0,0h0l0,0h0l0,0h0l-.05,0h-.15l-.05,0h-.09l-.06,0h-2.26v0h-.15l0,0h-.32a15,15,0,0,1-3.86.5,21.77,21.77,0,0,1,3.16,1.52c1.2.73,1.74,1.4,1.08,1.75a4.18,4.18,0,0,1-1.75.06c-.73-.09-1.13-.27-.9-.4Zm-4.26-2.92c-1,0-2.07-.08-3-.16h-1.24c.48.11,1,.21,1.51.29a39.18,39.18,0,0,0,4.19.44C269.34,73.24,268.86,73,268.36,72.85Z"/><polygon class="cls-1" points="126.5 127.73 673.01 127.73 461.42 67.24 338.08 67.24 126.5 127.73"/><polygon class="cls-6" points="163.01 127.73 636.5 127.73 453.18 67.24 346.33 67.24 163.01 127.73"/><polygon class="cls-1" points="184.48 127.73 615.03 127.73 448.34 67.24 351.17 67.24 184.48 127.73"/><path class="cls-6" d="M390.2,127.73h19.1l-2.92-23.88H393.12l-2.92,23.88Zm15.86-26.51-1.62-13.29h-9.37l-1.62,13.29Zm-1.95-15.92-1.21-9.86H396.6l-1.21,9.86ZM402.59,72.8l-.68-5.56H397.6l-.68,5.56Z"/><path class="cls-7" d="M63.77,97.94a2.21,2.21,0,1,0-.56-4.38l-.34,0a5.6,5.6,0,0,1-3.59-1.42A7,7,0,0,1,56.9,87.6a9.38,9.38,0,0,1-.07-1,2.21,2.21,0,1,0-4.43.07,13.87,13.87,0,0,0,.11,1.51,11.38,11.38,0,0,0,3.89,7.37A10.09,10.09,0,0,0,62.94,98,7.66,7.66,0,0,0,63.77,97.94Z"/><path class="cls-7" d="M67.54,115.07a3,3,0,0,1-5.84-1.16c1-4.8,1.92-16,2-27.51.09-8.61-.28-17.34-1.47-23.55a3,3,0,0,1,5.84-1.12c1.27,6.59,1.66,15.73,1.57,24.71C69.55,98.36,68.54,110,67.54,115.07Z"/><path class="cls-8" d="M79.57,37.7a15,15,0,0,1,7.21,12.52,13.78,13.78,0,0,1-.34,3c5.47,2.64,9.18,7.75,9.18,13.62,0,8.5-7.78,15.41-17.42,15.53-2.84,5.25-8.93,8.88-16,8.88a19.06,19.06,0,0,1-11.77-3.94,20,20,0,0,1-4.93.61c-9.77,0-17.68-7-17.68-15.53,0-5.66,3.44-10.61,8.59-13.32a13.79,13.79,0,0,1-.73-4.43c0-6.22,4.16-11.58,10.17-14.06a13.87,13.87,0,0,1-1.33-5.91c0-8.58,7.92-15.53,17.68-15.53s17.68,7,17.68,15.53A13.77,13.77,0,0,1,79.57,37.7Z"/><path class="cls-9" d="M79.57,37.7a15,15,0,0,1,7.21,12.52,13.78,13.78,0,0,1-.34,3c5.47,2.64,9.18,7.75,9.18,13.62a13.79,13.79,0,0,1-.76,4.51A19.93,19.93,0,0,1,90,72c-2.84,5.25-8.93,8.88-16,8.88A19.06,19.06,0,0,1,62.29,77a20,20,0,0,1-4.93.61c-9.77,0-17.68-7-17.68-15.53,0-5.66,3.44-10.61,8.59-13.32a13.79,13.79,0,0,1-.73-4.43c0-6.22,4.16-11.58,10.17-14.06a13.82,13.82,0,0,1-.57-10.42,20,20,0,0,1,5.08-.65c9.77,0,17.68,7,17.68,15.53A13.77,13.77,0,0,1,79.57,37.7Z"/><path class="cls-7" d="M153.18,85.71a2,2,0,0,1-.68-4,13,13,0,0,0,8.2-5.43,18.6,18.6,0,0,0,3.14-10.95,2,2,0,1,1,4.06,0A22.59,22.59,0,0,1,164,78.63,17.08,17.08,0,0,1,153.18,85.71Z"/><path class="cls-7" d="M150.44,76.53a2,2,0,1,1-.79,4A31,31,0,0,1,135.86,74a18.23,18.23,0,0,1-6.27-11.45,2,2,0,0,1,4-.54A14.26,14.26,0,0,0,138.52,71,26.84,26.84,0,0,0,150.44,76.53Z"/><path class="cls-7" d="M156,101.29a2,2,0,1,1-4-.52,34,34,0,0,0-.92-13c-1.22-5.09-3.4-11.4-6.64-20.36a2,2,0,0,1,3.81-1.38c3.28,9.06,5.49,15.48,6.77,20.81A37.83,37.83,0,0,1,156,101.29Z"/><path class="cls-8" d="M130.23,66.89a13.29,13.29,0,0,1-4.41.73c-5.21,0-9.43-2.82-9.43-6.29,0-2.73,2.61-5.05,6.25-5.92-2.29-1.15-3.77-3-3.77-5,0-3.47,4.22-6.29,9.43-6.29h.62a4.3,4.3,0,0,1-.13-1c0-3.47,4.22-6.29,9.43-6.29a13.76,13.76,0,0,1,3,.33c.51-3.15,4.51-5.61,9.37-5.61,5.21,0,9.43,2.82,9.43,6.29q0,.14,0,.28a14.1,14.1,0,0,1,1.5-.08c5.21,0,9.43,2.82,9.43,6.29a4.9,4.9,0,0,1-1.52,3.42,5.16,5.16,0,0,1,2,3.82,14.06,14.06,0,0,1,2-.14c5.21,0,9.43,2.82,9.43,6.29S178.67,64,173.46,64l-.73,0c-1,2.8-4.71,4.89-9.19,4.89a14.17,14.17,0,0,1-1.52-.08c-.4,3.23-4.45,5.76-9.4,5.76-4,0-7.45-1.68-8.81-4a13.22,13.22,0,0,1-4.59.79C135,71.28,131.44,69.44,130.23,66.89Z"/><path class="cls-9" d="M144.63,61.66a13.29,13.29,0,0,1-4.41.73c-5.21,0-9.43-2.81-9.43-6.29,0-2.73,2.61-5.05,6.25-5.92-2.29-1.15-3.77-3-3.77-5,0-3.47,4.22-6.29,9.43-6.29h.62a4.29,4.29,0,0,1-.13-1c0-3.32,3.86-6,8.74-6.27,4.59.42,8.12,3.05,8.12,6.23q0,.14,0,.28a14.1,14.1,0,0,1,1.5-.08c5.21,0,9.43,2.82,9.43,6.29a4.9,4.9,0,0,1-1.52,3.42,5.16,5.16,0,0,1,2,3.82,14.06,14.06,0,0,1,2-.14c5.21,0,9.43,2.82,9.43,6.29,0,2.69-2.53,5-6.09,5.88l-.39,0,0,.13a13.77,13.77,0,0,1-2.93.31l-.73,0c-1,2.8-4.71,4.89-9.19,4.89h0a8.53,8.53,0,0,1-5.3-3.59,13.22,13.22,0,0,1-4.59.79C149.4,66,145.84,64.21,144.63,61.66Z"/><path class="cls-7" d="M223.89,73.12a1.54,1.54,0,1,1,1.37-2.75l.22.09a3.9,3.9,0,0,0,2.68-.11,4.89,4.89,0,0,0,2.61-2.45,6.51,6.51,0,0,0,.28-.65,1.54,1.54,0,1,1,2.89,1.06,9.65,9.65,0,0,1-.42,1,7.92,7.92,0,0,1-4.25,3.95,7,7,0,0,1-4.85.13A5.36,5.36,0,0,1,223.89,73.12Z"/><path class="cls-7" d="M219.3,60.6A1.54,1.54,0,0,1,218,63.38a12.41,12.41,0,0,1-4.92-4.54,16.44,16.44,0,0,1-2.41-6.73,1.54,1.54,0,0,1,3-.4,13.35,13.35,0,0,0,2,5.46A9.31,9.31,0,0,0,219.3,60.6Z"/><path class="cls-7" d="M221.78,89.09a1.54,1.54,0,1,1-3-.75c1.94-7.78,1.39-9.46-.5-17.27a49.93,49.93,0,0,1-1.15-10.76A77.55,77.55,0,0,1,218,47.6a1.54,1.54,0,0,1,3,.54,74.12,74.12,0,0,0-.81,12.13,46.89,46.89,0,0,0,1.07,10.07C223.28,78.62,223.84,80.84,221.78,89.09Z"/><path class="cls-8" d="M221.94,33.44a7.53,7.53,0,0,1,7.28,9.41,8.68,8.68,0,1,1-12.78,10.24A7.52,7.52,0,1,1,214.68,39,7.53,7.53,0,0,1,221.94,33.44Z"/><path class="cls-9" d="M214.1,39.79a6.2,6.2,0,0,1,1.7.24,6,6,0,1,1,11.27,3.09,6.16,6.16,0,1,1-7.71,6.15,6.2,6.2,0,1,1-5.26-9.48Z"/><path class="cls-7" d="M220.7,74.31a1.54,1.54,0,1,1-.47-3,8.12,8.12,0,0,0,4.06-2,4.64,4.64,0,0,0,1.55-3.09,1.54,1.54,0,1,1,3.07.2,7.65,7.65,0,0,1-2.51,5.12A11.39,11.39,0,0,1,220.7,74.31Z"/><path class="cls-8" d="M235,68.45a3.93,3.93,0,0,1-6.21-.11,4.53,4.53,0,1,1,0-8.55,3.93,3.93,0,1,1,6.3,3.88A3.93,3.93,0,0,1,235,68.45Z"/><circle class="cls-10" cx="233.07" cy="60.19" r="3.09"/><circle class="cls-10" cx="228.2" cy="63.18" r="3.09"/><circle class="cls-10" cx="232.23" cy="65.58" r="3.09"/><path class="cls-7" d="M572.15,67.3a1.61,1.61,0,0,1-.59-3.16,8.12,8.12,0,0,0,4.12-2.1c1.54-1.45,3-3.86,3.83-7.85a1.61,1.61,0,0,1,3.15.65c-1,4.74-2.82,7.69-4.78,9.54A11.3,11.3,0,0,1,572.15,67.3Z"/><path class="cls-7" d="M568.52,50.63a1.61,1.61,0,0,1,3.2-.33c.39,3.72,1,10.08,1.17,17.16a108.9,108.9,0,0,1-1.19,21.46,1.6,1.6,0,1,1-3.16-.57,105.86,105.86,0,0,0,1.14-20.81C569.49,60.62,568.91,54.32,568.52,50.63Z"/><path class="cls-8" d="M576.93,39.56c5.85,0,10.59,3.61,10.59,8.06,0,3.28-2.57,6.1-6.26,7.36-1.09,3.57-5.29,6.23-10.32,6.23-4.26,0-7.94-1.92-9.62-4.68a14,14,0,0,1-1.43.07c-5.85,0-10.59-3.61-10.59-8.06,0-3.71,3.3-6.84,7.79-7.77,1.28-3.36,5.35-5.81,10.17-5.81,4.23,0,7.87,1.88,9.57,4.61Z"/><path class="cls-9" d="M576.93,39.56c5.85,0,10.59,3.61,10.59,8.06a6.28,6.28,0,0,1-.41,2.23,11.78,11.78,0,0,1-1.81.79,7.77,7.77,0,0,1-2.76,3.82,12,12,0,0,1-1.27.52c0,.13-.09.27-.14.4A12.92,12.92,0,0,1,575,56.87c-4.26,0-7.94-1.92-9.62-4.68a14,14,0,0,1-1.44.07c-5.85,0-10.59-3.61-10.59-8.06a6.28,6.28,0,0,1,.41-2.23,12.23,12.23,0,0,1,3.34-1.21c1.28-3.36,5.35-5.81,10.17-5.81,4.23,0,7.87,1.88,9.57,4.61Z"/><path class="cls-7" d="M726.11,88.66a3.76,3.76,0,1,1,0-7.52c2.92,0,8.19-1.81,12.48-6.11a21.41,21.41,0,0,0,6.11-12.9,3.76,3.76,0,0,1,7.46.88,28.81,28.81,0,0,1-8.26,17.34C738.06,86.19,730.45,88.66,726.11,88.66Z"/><path class="cls-7" d="M730.51,111.52a3.75,3.75,0,0,1-6.08,4.38c-3.41-4.72-4.72-13.48-4.45-23.15a106.39,106.39,0,0,1,5.35-30.44,3.75,3.75,0,1,1,7.08,2.5A98.39,98.39,0,0,0,727.48,93C727.25,101.13,728.13,108.23,730.51,111.52Z"/><path class="cls-8" d="M738,70.79h0l.1,0,.42.07h.08L739,71h.08l.45.06h.08l.5.05h0l.51,0h0l.5,0h.06l.52,0h0l.54,0h.56c11.87,0,21.49-7.32,21.49-16.35,0-.12,0-.25,0-.37v-.1c0-.12,0-.23,0-.35V54q0-.16,0-.32v-.07c0-.12,0-.24,0-.35v-.09c0-.11,0-.23-.05-.34v0h0c0-.12,0-.24-.07-.35v-.07L764,52v-.05l-.08-.33v0l-.1-.35,0-.07-.11-.35h0l-.12-.34,0-.09-.13-.33,0-.07-.12-.29,0-.07-.14-.31,0-.1-.14-.27,0,0h0v0l-.16-.3,0-.08-.17-.3-.05-.09-.15-.25,0-.07-.19-.29-.06-.09-.19-.28v0h0l-.22-.29-.06-.08-.22-.28-.05-.06-.2-.24L761,46l-.23-.27-.07-.08-.2-.22-.11-.11-.2-.21-.1-.1-.25-.25-.06-.06-.23-.21-.08-.08-.26-.23-.11-.09-.22-.19-.1-.08-.26-.21-.1-.08-.23-.18-.19-.15-.17-.12-.13-.09-.29-.21-.12-.08-.23-.16-.16-.1-.26-.17-.11-.07-.31-.19-.13-.08-.24-.14-.14-.08-.3-.17-.15-.08-.28-.15-.08,0,.09-.22,0-.07.12-.31,0-.08.12-.34v0l.12-.36v0l.1-.37h0v0l.09-.35v0l.08-.37h0q0-.19.07-.39v0q.07-.39.11-.79v0h0c0-.13,0-.26,0-.38v0h0c0-.13,0-.26,0-.4h0c0-.14,0-.28,0-.41,0-9-9.62-16.35-21.49-16.35h-1.14l-.48,0h-.12l-.38,0h-.14l-.4,0h-.1l-.46,0-.13,0-.38,0h-.11l-.47.07-.11,0-.38.06-.11,0-.41.08h-.07l-.47.1-.08,0-.35.08-.18,0-.39.1h-.05l-.43.12-.11,0-.32.09-.15,0-.39.12-.18.06-.23.08-.21.07-.27.09-.13,0-.38.15-.17.07-.23.09-.18.07-.36.15-.15.07-.23.1-.2.09-.19.09-.19.09-.34.17-.14.07-.24.13-.15.08-.25.14-.23.13-.22.13-.18.11-.17.11-.17.11-.21.13-.29.19-.14.09-.19.13-.14.1-.17.12-.27.2h0l-.18.14-.14.11-.18.14-.1.09-.35.29-.09.07-.19.17-.09.08-.18.17-.23.22-.17.17-.1.1-.17.17-.07.07-.56.61-.07.08-.16.19-.2.24-.16.2-.05.07-.15.2-.07.1-.29.41,0,0-.14.21-.05.08-.14.22h-.2c-11.87,0-21.49,7.32-21.49,16.35,0,.12,0,.25,0,.37V46q0,.13,0,.25v.13c0,.12,0,.24,0,.36v.09l0,.28,0,.13,0,.26,0,.11c0,.12,0,.24.07.36v.06l.07.3,0,.12.08.3v0l.1.37,0,.07.09.29,0,.09.1.29,0,.07.13.33,0,.1.11.26,0,.1.14.3v0h0l0,0,.14.29.05.1.13.25.06.1.18.31.06.1.14.23.07.12.15.22.06.09.21.3.06.08.17.23.08.11.19.24,0,.06.24.29.09.11.16.18.11.13.17.19.11.12.22.23.11.11.18.18.09.09.23.21.16.15.18.16.14.12.17.15.13.11.23.19.2.16.16.13.15.12.18.13.15.11h0l.28.2h0l.18.12.15.1.19.12.16.1.28.17.22.13.18.11.18.1.18.1.2.11.32.17.19.1.2.1.18.09.21.1.17.08.39.18.15.07.21.09.2.08.21.09h0l.34.14h0l.21.08.18.07.24.09.17.06.24.08c2.21,7.24,10.75,12.64,20.94,12.64a26.67,26.67,0,0,0,11-2.3ZM716.12,27.66l-.16.2Z"/><path class="cls-9" d="M763.07,60.48a12.89,12.89,0,0,0,1.3-5.62c0-.12,0-.25,0-.37v-.1c0-.12,0-.23,0-.35V54q0-.16,0-.32v-.07c0-.12,0-.24,0-.35v-.09c0-.11,0-.23-.05-.34v0h0c0-.12,0-.24-.07-.35v-.07L764,52v-.05l-.08-.33v0l-.1-.35,0-.07-.11-.35h0l-.12-.34,0-.09-.13-.33,0-.07-.12-.29,0-.07-.14-.31,0-.1-.14-.27,0,0h0v0l-.16-.3,0-.08-.17-.3-.05-.09-.15-.25,0-.07-.19-.29-.06-.09-.19-.28v0h0l-.22-.29-.06-.08-.22-.28-.05-.06-.2-.24L761,46l-.23-.27-.07-.08-.2-.22-.11-.11-.2-.21-.1-.1-.25-.25-.06-.06-.23-.21-.08-.08-.26-.23-.11-.09-.22-.19-.1-.08-.26-.21-.1-.08-.23-.18-.19-.15-.17-.12-.13-.09-.29-.21-.12-.08-.23-.16-.16-.1-.26-.17-.11-.07-.31-.19-.13-.08-.24-.14-.14-.08-.3-.17-.15-.08-.28-.15-.08,0,.09-.22,0-.07.12-.31,0-.08.12-.34v0l.12-.36v0l.1-.37h0v0l.09-.35v0l.08-.37h0q0-.19.07-.39v0q.07-.39.11-.79v0h0c0-.13,0-.26,0-.38v0h0c0-.13,0-.26,0-.4h0c0-.14,0-.28,0-.41,0-9-9.62-16.35-21.49-16.35h-1.14l-.48,0h-.12l-.38,0h-.14l-.4,0h-.1l-.46,0-.13,0-.38,0h-.11l-.47.07-.11,0-.38.06-.11,0-.41.08h-.07l-.47.1-.08,0-.35.08-.18,0-.39.1h-.05l-.43.12-.11,0-.32.09-.15,0-.39.12-.18.06-.23.08-.21.07-.27.09-.13,0-.38.15-.17.07-.23.09-.18.07-.36.15-.15.07-.23.1-.2.09-.19.09-.19.09-.34.17-.14.07-.24.13-.15.08-.25.14-.23.13-.22.13-.18.11-.17.11-.17.11-.21.13-.29.19-.14.09-.19.13-.14.1-.17.12-.27.2h0l-.18.14-.14.11-.18.14-.1.09-.35.29-.09.07-.19.17-.09.08-.18.17-.23.22-.17.17-.1.1-.17.17-.07.07-.56.61-.07.08-.16.19-.2.24-.16.2-.05.07-.15.2-.07.1-.29.41,0,0-.14.21-.05.08-.14.22h-.2a26.21,26.21,0,0,0-12.51,3.06,12.9,12.9,0,0,0-1.3,5.62c0,.12,0,.25,0,.37v.14q0,.13,0,.25v.13c0,.12,0,.24,0,.36v.09l0,.28,0,.13,0,.26,0,.11c0,.12,0,.24.07.36v.06l.07.3,0,.12.08.3v0l.11.37,0,.07.09.29,0,.09.1.29,0,.07.13.33,0,.1.11.26,0,.1.14.3v0h0l0,0,.14.29.05.1.13.25.06.1.18.31.06.1.14.23.07.12.15.22.06.09.21.3.06.08.17.23.08.11.19.24,0,.06.24.29.09.11.16.19.11.13.17.19.11.12.22.23.11.11.18.18.09.09.23.21.16.15.18.16.14.12.17.15.13.11.23.19.2.16.16.13.15.12.18.13.15.11h0l.28.2h0l.18.12.15.1.19.12.16.1.28.17.22.13.18.11.18.1.18.1.2.11.32.17.19.1.2.1.18.09.21.1.17.08.39.18.15.07.21.09.2.08.21.09h0l.34.14h0l.21.08.18.07.24.09.17.06.24.08c2.21,7.24,10.75,12.64,20.94,12.64a26.67,26.67,0,0,0,11-2.3h0l.1,0,.42.07h.08l.43.06h.08l.45.06h.08l.5.05h0l.51,0h0l.5,0h.06l.52,0h0l.54,0h.56a26.21,26.21,0,0,0,12.51-3.06Zm-47-32.82-.16.2Z"/><path class="cls-7" d="M644.87,76.41a2.38,2.38,0,1,1-2.13,4.25A29.36,29.36,0,0,1,633,72.18h0a56.17,56.17,0,0,1-7.54-13.53,2.38,2.38,0,1,1,4.42-1.77,51.37,51.37,0,0,0,6.88,12.37h0A24.6,24.6,0,0,0,644.87,76.41Z"/><path class="cls-7" d="M643,101.95a2.38,2.38,0,0,1-4-2.55c2.07-3.24,3.07-9.46,3.12-16.79A101.3,101.3,0,0,0,639,57.54a2.38,2.38,0,0,1,4.61-1.19,106.19,106.19,0,0,1,3.27,26.29C646.84,90.8,645.6,97.93,643,101.95Z"/><path class="cls-8" d="M636,64.6h-.05l-.31.05h0l-.29,0h0l-.3,0h-.05l-.32,0h0l-.33,0h0l-.35,0h0l-.35,0h-.73c-7.79,0-14.11-4.81-14.11-10.74,0-.08,0-.16,0-.24v-.06c0-.08,0-.16,0-.24v0c0-.08,0-.16,0-.23v0c0-.08,0-.16,0-.24v0l0-.23h0l0-.23v-.06l.05-.24v0l.06-.24v0l.07-.23v0l.07-.22h0l.08-.22,0,0,.09-.22v0l.08-.19,0-.05.1-.21,0,0,.1-.2v0h0v0l.1-.19,0-.06.12-.21,0,0,.12-.19,0,0,.13-.19,0-.06.13-.18h0l.15-.2,0,0,.15-.2,0,0,.14-.17,0,0,.15-.18,0-.05.14-.15,0,0h0l0,0,.15-.16.05-.05.18-.18,0,0,.17-.16,0,0,.19-.17,0,0,.18-.15,0,0,.18-.14.06-.05.2-.15,0,0,.17-.13.07,0,.19-.14.07,0,.18-.12,0,0h0l.21-.14.08,0,.21-.13.07,0,.18-.1.06,0,.22-.12.07,0,.21-.11h0l-.06-.15,0,0-.08-.22v0l-.08-.22v0l-.07-.23v0l-.07-.24h0l-.06-.25h0l-.06-.25h0l0-.25h0l0-.27h0q0-.13,0-.26h0c0-.09,0-.18,0-.27h0c0-.09,0-.18,0-.26h0c0-.09,0-.18,0-.27,0-5.93,6.32-10.74,14.11-10.74H639l.33,0h.05l.28,0h.08l.26,0h.08l.3,0h.1l.23,0h.1l.29,0h.06l.26,0,.09,0,.23,0,.09,0,.29.06.09,0,.21,0,.1,0,.27.07h0l.28.08.09,0,.22.06.08,0,.27.08.11,0,.17.06.12,0,.18.06.1,0,.24.09.11,0,.16.07.1,0,.21.09.13.06.15.07.13.06.13.06.12.06.23.11.11.06.13.07.13.07.13.07.18.1.12.07.14.08.08.05.14.09h0l.19.12.12.08.09.06.14.1,0,0,.29.21,0,0,.13.1.07.06.12.1.06,0,.22.19.08.07.12.1.05,0,.12.11.15.14h0l.1.1.07.07.12.12,0,0,.4.43v0l.36.44,0,0,.11.14,0,0,.31.45,0,0,.09.14h.13c7.79,0,14.11,4.81,14.11,10.73,0,.08,0,.16,0,.25v.08q0,.09,0,.18v.07q0,.12,0,.25v0c0,.08,0,.15,0,.23v.06l0,.19v.06l0,.23v.07l0,.18,0,.07,0,.19v0l-.07.23,0,.06-.06.18,0,.07-.07.21v0h0l-.08.22,0,.08-.06.15,0,.08-.1.22h0v0l-.1.2,0,.08-.07.14,0,.09-.11.2,0,.06-.1.16,0,.07-.09.14,0,.07-.14.19,0,.06-.1.14-.06.08-.11.15,0,0-.16.19-.05.06-.11.13-.06.07-.12.13-.1.11-.12.13-.08.08-.1.1-.09.09-.12.11-.12.11-.12.11-.09.07-.12.1-.08.07-.19.15-.08.06-.12.09-.1.08-.13.1-.08.06-.2.14-.12.08-.11.07-.11.07-.12.08-.11.07-.19.12h0l-.13.08-.11.07-.12.07-.15.08-.16.09-.14.07L659,57l-.11.05-.14.07-.12.06-.26.12-.08,0-.16.07-.12.05-.13.05-.19.08-.18.07-.13.05-.14.05-.12,0-.15.05c-1.45,4.75-7.05,8.3-13.74,8.3A17.51,17.51,0,0,1,636,64.6Z"/><path class="cls-9" d="M633,31.91a18,18,0,0,1,5.27-.77H639l.33,0h.05l.28,0h.08l.26,0h.08l.3,0h.1l.23,0h.1l.29,0h.06l.26,0,.09,0,.23,0,.09,0,.29.06.09,0,.21,0,.1,0,.27.07h0l.28.08.09,0,.22.06.08,0,.27.08.11,0,.17.06.12,0,.18.06.1,0,.24.09.11,0,.16.07.1,0,.21.09.13.06.15.07.13.06.13.06.12.06.23.11.11.06.13.07.13.07.13.07.18.1.12.07.14.08.08.05.14.09h0l.19.12.12.08.09.06.14.1,0,0,.29.21,0,0,.13.1.07.06.12.1.06,0,.22.19.08.07.12.1.05,0,.12.11.15.14h0l.1.1.07.07.12.12,0,0,.4.43v0l.36.44,0,0,.11.14,0,0,.31.45,0,0,.09.14h.13c7.79,0,14.11,4.81,14.11,10.73,0,.08,0,.16,0,.25v.08q0,.09,0,.18v.07q0,.12,0,.25v0c0,.08,0,.15,0,.23v.06l0,.19v.06l0,.23v.07l0,.18,0,.07,0,.19v0l-.07.23,0,.06-.06.18,0,.07-.07.21v0h0l-.08.22,0,.08-.06.15,0,.08-.1.22h0v0l-.1.2,0,.08-.07.14,0,.09-.11.2,0,.06-.1.16,0,.07-.09.14,0,.07-.14.19,0,.06-.1.14-.06.08-.11.15,0,0-.16.19-.05.06-.11.13-.06.07-.12.13-.1.11-.12.13-.08.08-.1.1-.09.09-.12.11-.12.11-.12.11-.09.07-.12.1-.08.07-.19.15-.08.06-.12.09-.1.08-.13.1-.08.06-.2.14-.12.08-.11.07-.11.07-.12.08-.11.07-.19.12h0l-.13.08-.11.07-.12.07-.15.08-.16.09-.14.07L659,57l-.11.05-.14.07-.12.06-.26.12-.08,0-.16.07-.12.05-.13.05-.19.08-.18.07-.13.05-.14.05-.12,0-.15.05a9.51,9.51,0,0,1-1.83,3.31,18,18,0,0,1-5.27.77,17.51,17.51,0,0,1-7.21-1.51h-.05l-.31.05h0l-.29,0h0l-.3,0h-.05l-.32,0h0l-.33,0h0l-.35,0h0l-.35,0h-.73c-7.79,0-14.11-4.81-14.11-10.74,0-.08,0-.16,0-.24v-.06c0-.08,0-.16,0-.24v0c0-.08,0-.16,0-.23v0c0-.08,0-.16,0-.24v0l0-.23h0l0-.23v-.06l.05-.24v0l.06-.24v0l.07-.23v0l.07-.22h0l.08-.22,0,0,.09-.22v0l.08-.19,0-.05.1-.21,0,0,.1-.2v0h0v0l.1-.19,0-.06.12-.21v0l.12-.19,0,0,.13-.19,0-.06.13-.18h0l.15-.2,0,0,.15-.2,0,0,.14-.17,0,0,.15-.18,0-.05.14-.15,0,0h0l0,0,.15-.16.05-.05.18-.18,0,0,.17-.16,0,0,.19-.17,0,0,.18-.15,0,0,.18-.14.06-.05.2-.15,0,0,.17-.13.07,0,.19-.14.07,0,.19-.13,0,0h0l.21-.14.08,0,.21-.13.07,0,.18-.1.06,0,.22-.12.07,0,.21-.11h0l-.06-.15,0,0-.08-.22v0l-.08-.22v0l-.07-.23v0l-.07-.24h0l-.06-.25h0l-.06-.25h0l0-.25h0q0-.13,0-.27h0c0-.09,0-.17,0-.26h0q0-.13,0-.27h0q0-.13,0-.26h0c0-.09,0-.18,0-.27A8.93,8.93,0,0,1,633,31.91Z"/><path class="cls-7" d="M509.84,68.48a.91.91,0,0,0,.31-1.8,5.84,5.84,0,0,1-3.69-2.44A8.36,8.36,0,0,1,505,59.31a.91.91,0,1,0-1.83,0,10.16,10.16,0,0,0,1.75,6A7.68,7.68,0,0,0,509.84,68.48Z"/><path class="cls-7" d="M511.07,64.35a.91.91,0,1,0,.36,1.79,13.93,13.93,0,0,0,6.2-2.91,8.2,8.2,0,0,0,2.82-5.15.91.91,0,0,0-1.81-.24,6.41,6.41,0,0,1-2.21,4A12.07,12.07,0,0,1,511.07,64.35Z"/><path class="cls-7" d="M508.57,75.48a.91.91,0,1,0,1.81-.24,15.31,15.31,0,0,1,.41-5.83,93,93,0,0,1,3-9.16.91.91,0,1,0-1.71-.62A93.85,93.85,0,0,0,509,69,17,17,0,0,0,508.57,75.48Z"/><path class="cls-8" d="M520.16,60a6,6,0,0,0,2,.33c2.34,0,4.24-1.27,4.24-2.83,0-1.23-1.17-2.27-2.81-2.66a2.68,2.68,0,0,0,1.7-2.26c0-1.56-1.9-2.83-4.24-2.83h-.28a1.92,1.92,0,0,0,.06-.46c0-1.56-1.9-2.83-4.24-2.83a6.19,6.19,0,0,0-1.36.15c-.23-1.42-2-2.52-4.22-2.52-2.34,0-4.24,1.27-4.24,2.83,0,0,0,.08,0,.13a6.36,6.36,0,0,0-.67,0c-2.34,0-4.24,1.27-4.24,2.83a2.2,2.2,0,0,0,.68,1.54,2.32,2.32,0,0,0-.9,1.72,6.29,6.29,0,0,0-.89-.06c-2.34,0-4.24,1.27-4.24,2.83s1.9,2.83,4.24,2.83H501c.43,1.26,2.12,2.2,4.14,2.2a6.35,6.35,0,0,0,.68,0c.18,1.45,2,2.59,4.23,2.59a4.55,4.55,0,0,0,4-1.82,6,6,0,0,0,2.07.36C518,62,519.62,61.16,520.16,60Z"/><path class="cls-9" d="M524.45,57.16a6,6,0,0,0,1.94.33c0-1.21-1.19-2.25-2.81-2.63a2.68,2.68,0,0,0,1.7-2.26c0-1.56-1.9-2.83-4.24-2.83h-.28a1.94,1.94,0,0,0,.06-.46c0-1.56-1.9-2.83-4.24-2.83a6.19,6.19,0,0,0-1.36.15c-.23-1.41-2-2.51-4.17-2.52v.1a6.3,6.3,0,0,0-.67,0h-.3c-1.9.28-3.32,1.41-3.32,2.76,0,0,0,.08,0,.13a6.24,6.24,0,0,0-.63,0,2.21,2.21,0,0,0,.68,1.51,2.32,2.32,0,0,0-.9,1.72,6.34,6.34,0,0,0-.89-.06,5.55,5.55,0,0,0-2.86.74,2.71,2.71,0,0,0,.37.47,2.32,2.32,0,0,0-.9,1.72,6.31,6.31,0,0,0-.85-.06c0,1.55,1.91,2.8,4.24,2.8h.33c.43,1.26,2.12,2.2,4.14,2.2a6.39,6.39,0,0,0,.68,0c.18,1.45,2,2.59,4.23,2.59a4.55,4.55,0,0,0,4-1.82,5.94,5.94,0,0,0,2.07.36C522.3,59.13,523.9,58.3,524.45,57.16Z"/><path class="cls-7" d="M274.86,66.1a1.33,1.33,0,1,0,0-2.66,7,7,0,0,1-4.41-2.16,7.56,7.56,0,0,1-2.16-4.56,1.33,1.33,0,1,0-2.64.31,10.18,10.18,0,0,0,2.92,6.12A9.86,9.86,0,0,0,274.86,66.1Z"/><path class="cls-7" d="M273.3,74.18a1.32,1.32,0,1,0,2.15,1.55c1.2-1.67,1.67-4.76,1.57-8.18a37.59,37.59,0,0,0-1.89-10.75,1.33,1.33,0,0,0-2.5.88,34.75,34.75,0,0,1,1.75,9.94C274.45,70.51,274.14,73,273.3,74.18Z"/><path class="cls-8" d="M270.66,59.79h0l-.15,0h0l-.15,0h0l-.16,0h0l-.18,0h0l-.18,0h-.78c-4.19,0-7.59-2.59-7.59-5.78,0,0,0-.09,0-.13v0s0-.08,0-.12v-.32l0-.12h0l0-.12v0l0-.13v0l0-.12v0l0-.12v0l0-.12h0l0-.12v0l0-.12v0l0-.1v0l.05-.11,0,0,0-.1h0l.06-.1,0,0,.06-.11,0,0,.05-.09,0,0,.07-.1,0,0,.07-.1h0l.08-.1,0,0,.08-.1,0,0,.07-.08,0,0,.08-.1,0,0,.07-.08,0,0,.07-.07,0,0,.09-.09,0,0,.08-.08,0,0,.09-.08,0,0,.08-.07,0,0,.09-.07,0,0,.08-.06.07-.05.06,0,0,0,.1-.07,0,0,.08-.05.06,0,.09-.06,0,0,.11-.07,0,0,.08,0,0,0,.11-.06.05,0,.1-.05h0l0-.08v0l0-.11v0l0-.12h0l0-.13h0l0-.13h0l0-.12v0l0-.13h0l0-.14h0c0-.09,0-.18,0-.28h0v-.14h0s0-.09,0-.14h0s0-.1,0-.15c0-3.19,3.4-5.78,7.59-5.78h1l.16,0h0l.13,0h0l.16,0h0l.13,0h0l.14,0h0l.17,0h0l.12,0,.06,0,.14,0h0l.15,0h0l.11,0,.05,0,.14,0,.06,0,.08,0,.07,0,.09,0,0,0,.14.05.06,0,.08,0,.06,0,.13.05.05,0,.08,0,.07,0,.07,0,.07,0,.12.06.05,0,.08,0,.05,0,.09,0,.08,0,.08,0,.06,0,.06,0,.06,0,.07,0,.1.07,0,0,.07,0,0,0,.06,0,.09.07h0l.06,0,0,0,.06,0,0,0,.12.1,0,0,.07.06,0,0,.06.06.08.08.06.06,0,0,.06.06,0,0,.2.22,0,0,.06.07.07.09.06.07,0,0,.05.07,0,0,.1.14h0l0,.07,0,0,0,.08h.07c4.19,0,7.59,2.59,7.59,5.78,0,0,0,.09,0,.13v.18s0,.08,0,.13v.31l0,.13v0l0,.11v0l0,.11v0l0,.13v0l0,.1v0l0,.1v0l0,.12,0,0,0,.09,0,0,0,.11h0v0l-.05.1,0,0,0,.09,0,0-.06.11,0,0,0,.08,0,0-.05.08,0,0-.07.11,0,0-.06.08,0,0-.07.08,0,0-.08.1,0,0-.06.07,0,0-.06.07,0,0-.08.08,0,0-.07.06,0,0-.08.08-.06.05-.06.06,0,0-.06.05,0,0-.08.07-.07.06-.06,0-.05,0-.06,0-.05,0h0l-.1.07h0l-.06,0-.05,0-.07,0-.06,0-.1.06-.08,0-.06,0-.06,0-.06,0-.07,0-.11.06-.07,0-.07,0-.06,0-.07,0-.06,0-.14.06-.05,0-.07,0-.07,0-.07,0h0l-.12,0h0l-.07,0-.06,0-.08,0-.06,0-.09,0c-.78,2.56-3.8,4.46-7.4,4.46a9.42,9.42,0,0,1-3.88-.81Zm7.72-15.24.06.07Z"/><path class="cls-9" d="M270.39,41.9a9.94,9.94,0,0,1,1.51-.11h1l.16,0h0l.13,0h0l.16,0h0l.13,0h0l.14,0h0l.17,0h0l.12,0,.06,0,.14,0h0l.15,0h0l.11,0,.05,0,.14,0,.06,0,.08,0,.07,0,.09,0,0,0,.14.05.06,0,.08,0,.06,0,.13.05.05,0,.08,0,.07,0,.07,0,.07,0,.12.06.05,0,.08,0,.05,0,.09,0,.08,0,.08,0,.06,0,.06,0,.06,0,.07,0,.1.07,0,0,.07,0,0,0,.06,0,.09.07h0l.06,0,0,0,.06,0,0,0,.12.1,0,0,.07.06,0,0,.06.06.08.08.06.06,0,0,.06.06,0,0,.2.22,0,0,.06.07.07.09.06.07,0,0,.05.07,0,0,.1.14h0l0,.07,0,0,0,.08h.07c4.19,0,7.59,2.59,7.59,5.78,0,0,0,.09,0,.13v.18s0,.08,0,.13v.31l0,.13v0l0,.11v0l0,.11v0l0,.13v0l0,.1v0l0,.1v0l0,.12,0,0,0,.09,0,0,0,.11h0v0l-.05.1,0,0,0,.09,0,0-.06.11,0,0,0,.08,0,0-.05.08,0,0-.07.11,0,0-.06.08,0,0-.07.08,0,0-.08.1,0,0-.06.07,0,0-.06.07,0,0-.08.08,0,0-.07.06,0,0-.08.08-.06.05-.06.06,0,0-.06.05,0,0-.08.07-.07.06-.06,0-.05,0-.06,0-.05,0h0l-.1.07h0l-.06,0-.05,0-.07,0-.06,0-.1.06-.08,0-.06,0-.06,0-.06,0-.07,0-.11.06-.07,0-.07,0-.06,0-.07,0-.06,0-.14.06-.05,0-.07,0-.07,0-.07,0h0l-.12,0h0l-.07,0-.06,0-.08,0-.06,0-.09,0a5.2,5.2,0,0,1-1.17,2,10,10,0,0,1-1.51.11,9.42,9.42,0,0,1-3.88-.81h0l-.15,0h0l-.15,0h0l-.16,0h0l-.18,0h0l-.18,0h-.78c-4.19,0-7.59-2.59-7.59-5.78,0,0,0-.09,0-.13v0s0-.08,0-.12V51.2l0-.12h0l0-.12v0l0-.13v0l0-.12v0l0-.12v0l0-.12h0l0-.12v0l0-.12v0l0-.1v0l.05-.11,0,0,0-.1h0l.06-.1,0,0,.06-.11,0,0,.05-.09,0,0,.07-.1,0,0,.07-.1h0l.08-.1,0,0,.08-.1,0,0,.07-.08,0,0,.08-.1,0,0,.07-.08,0,0,.07-.07,0,0,.09-.09,0,0,.08-.08,0,0,.09-.08,0,0,.08-.07,0,0,.09-.07,0,0,.08-.06.07-.05.06,0,0,0,.1-.07,0,0,.08-.05.06,0,.09-.06,0,0,.11-.07,0,0,.08,0,0,0,.11-.06.05,0,.1-.05h0l0-.08v0l0-.11v0l0-.12h0l0-.13h0l0-.13h0l0-.12v0l0-.13h0l0-.14h0c0-.09,0-.18,0-.28h0v-.14h0s0-.09,0-.14h0s0-.1,0-.15a4.87,4.87,0,0,1,1.36-3.3Zm8,2.65.06.07Z"/></g></g></svg>